<?xml version="1.0" encoding="UTF-8" standalone="no"?>
<svg
   xmlns:dc="http://purl.org/dc/elements/1.1/"
   xmlns:cc="http://creativecommons.org/ns#"
   xmlns:rdf="http://www.w3.org/1999/02/22-rdf-syntax-ns#"
   xmlns:svg="http://www.w3.org/2000/svg"
   xmlns="http://www.w3.org/2000/svg"
   viewBox="0 0 1920 1080"
   height="1080"
   width="1920"
   xml:space="preserve"
   id="svg2"
   version="1.1"><metadata
     id="metadata8"><rdf:RDF><cc:Work
         rdf:about=""><dc:format>image/svg+xml</dc:format><dc:type
           rdf:resource="http://purl.org/dc/dcmitype/StillImage" /><dc:title></dc:title></cc:Work></rdf:RDF></metadata><defs
     id="defs6"><marker
       orient="auto"
       refY="0"
       refX="0"
       id="marker10185"
       style="overflow:visible"><path
         id="path10183"
         d="M 0,0 5,-5 -12.5,0 5,5 Z"
         style="fill:#999999;fill-opacity:1;fill-rule:evenodd;stroke:#999999;stroke-width:1.00000003pt;stroke-opacity:1"
         transform="matrix(-0.2,0,0,-0.2,-1.2,0)" /></marker><clipPath
       id="clipPath86"
       clipPathUnits="userSpaceOnUse"><path
         id="path84"
         d="M -1021,-463 H 1794 V 1233 H -1021 Z" /></clipPath><clipPath
       id="clipPath108"
       clipPathUnits="userSpaceOnUse"><path
         id="path106"
         d="m 42.01,900.43 h 873.695 v 94.25 H 42.01 Z" /></clipPath><clipPath
       id="clipPath118"
       clipPathUnits="userSpaceOnUse"><path
         id="path116"
         d="m 42.01,900.43 h 873.695 v 94.25 H 42.01 Z" /></clipPath><clipPath
       id="clipPath128"
       clipPathUnits="userSpaceOnUse"><path
         id="path126"
         d="m 42.01,900.43 h 873.695 v 94.25 H 42.01 Z" /></clipPath><clipPath
       id="clipPath138"
       clipPathUnits="userSpaceOnUse"><path
         id="path136"
         d="m 42.01,900.43 h 873.695 v 94.25 H 42.01 Z" /></clipPath><clipPath
       id="clipPath148"
       clipPathUnits="userSpaceOnUse"><path
         id="path146"
         d="m 42.01,900.43 h 873.695 v 94.25 H 42.01 Z" /></clipPath><clipPath
       id="clipPath158"
       clipPathUnits="userSpaceOnUse"><path
         id="path156"
         d="m 42.01,900.43 h 873.695 v 94.25 H 42.01 Z" /></clipPath><clipPath
       id="clipPath168"
       clipPathUnits="userSpaceOnUse"><path
         id="path166"
         d="m 42.01,900.43 h 873.695 v 94.25 H 42.01 Z" /></clipPath><clipPath
       id="clipPath178"
       clipPathUnits="userSpaceOnUse"><path
         id="path176"
         d="m 42.01,900.43 h 873.695 v 94.25 H 42.01 Z" /></clipPath><clipPath
       id="clipPath188"
       clipPathUnits="userSpaceOnUse"><path
         id="path186"
         d="m 42.01,900.43 h 873.695 v 94.25 H 42.01 Z" /></clipPath><clipPath
       id="clipPath198"
       clipPathUnits="userSpaceOnUse"><path
         id="path196"
         d="m 42.01,900.43 h 873.695 v 94.25 H 42.01 Z" /></clipPath><clipPath
       id="clipPath208"
       clipPathUnits="userSpaceOnUse"><path
         id="path206"
         d="m 42.01,900.43 h 873.695 v 94.25 H 42.01 Z" /></clipPath><clipPath
       id="clipPath218"
       clipPathUnits="userSpaceOnUse"><path
         id="path216"
         d="m 42.01,900.43 h 873.695 v 94.25 H 42.01 Z" /></clipPath><clipPath
       id="clipPath228"
       clipPathUnits="userSpaceOnUse"><path
         id="path226"
         d="m 42.01,900.43 h 873.695 v 94.25 H 42.01 Z" /></clipPath><clipPath
       id="clipPath238"
       clipPathUnits="userSpaceOnUse"><path
         id="path236"
         d="m 42.01,900.43 h 873.695 v 94.25 H 42.01 Z" /></clipPath><clipPath
       id="clipPath248"
       clipPathUnits="userSpaceOnUse"><path
         id="path246"
         d="m 42.01,900.43 h 873.695 v 94.25 H 42.01 Z" /></clipPath><clipPath
       id="clipPath258"
       clipPathUnits="userSpaceOnUse"><path
         id="path256"
         d="m 42.01,900.43 h 873.695 v 94.25 H 42.01 Z" /></clipPath><clipPath
       id="clipPath268"
       clipPathUnits="userSpaceOnUse"><path
         id="path266"
         d="m 42.01,900.43 h 873.695 v 94.25 H 42.01 Z" /></clipPath><clipPath
       id="clipPath278"
       clipPathUnits="userSpaceOnUse"><path
         id="path276"
         d="m 42.01,900.43 h 873.695 v 94.25 H 42.01 Z" /></clipPath><clipPath
       id="clipPath288"
       clipPathUnits="userSpaceOnUse"><path
         id="path286"
         d="m 42.01,900.43 h 873.695 v 94.25 H 42.01 Z" /></clipPath><clipPath
       id="clipPath298"
       clipPathUnits="userSpaceOnUse"><path
         id="path296"
         d="m 42.01,900.43 h 873.695 v 94.25 H 42.01 Z" /></clipPath><clipPath
       id="clipPath308"
       clipPathUnits="userSpaceOnUse"><path
         id="path306"
         d="m 42.01,900.43 h 873.695 v 94.25 H 42.01 Z" /></clipPath><clipPath
       id="clipPath384"
       clipPathUnits="userSpaceOnUse"><path
         id="path382"
         d="m 42.01,775.78 h 873.695 v 94.25 H 42.01 Z" /></clipPath><clipPath
       id="clipPath394"
       clipPathUnits="userSpaceOnUse"><path
         id="path392"
         d="m 42.01,775.78 h 873.695 v 94.25 H 42.01 Z" /></clipPath><clipPath
       id="clipPath404"
       clipPathUnits="userSpaceOnUse"><path
         id="path402"
         d="m 42.01,775.78 h 873.695 v 94.25 H 42.01 Z" /></clipPath><clipPath
       id="clipPath414"
       clipPathUnits="userSpaceOnUse"><path
         id="path412"
         d="m 42.01,775.78 h 873.695 v 94.25 H 42.01 Z" /></clipPath><clipPath
       id="clipPath424"
       clipPathUnits="userSpaceOnUse"><path
         id="path422"
         d="m 42.01,775.78 h 873.695 v 94.25 H 42.01 Z" /></clipPath><clipPath
       id="clipPath434"
       clipPathUnits="userSpaceOnUse"><path
         id="path432"
         d="m 42.01,775.78 h 873.695 v 94.25 H 42.01 Z" /></clipPath><clipPath
       id="clipPath444"
       clipPathUnits="userSpaceOnUse"><path
         id="path442"
         d="m 42.01,775.78 h 873.695 v 94.25 H 42.01 Z" /></clipPath><clipPath
       id="clipPath454"
       clipPathUnits="userSpaceOnUse"><path
         id="path452"
         d="m 42.01,775.78 h 873.695 v 94.25 H 42.01 Z" /></clipPath><clipPath
       id="clipPath464"
       clipPathUnits="userSpaceOnUse"><path
         id="path462"
         d="m 42.01,775.78 h 873.695 v 94.25 H 42.01 Z" /></clipPath><clipPath
       id="clipPath474"
       clipPathUnits="userSpaceOnUse"><path
         id="path472"
         d="m 42.01,775.78 h 873.695 v 94.25 H 42.01 Z" /></clipPath><clipPath
       id="clipPath482"
       clipPathUnits="userSpaceOnUse"><path
         id="path480"
         d="m 42.01,775.78 h 873.695 v 94.25 H 42.01 Z" /></clipPath><clipPath
       id="clipPath490"
       clipPathUnits="userSpaceOnUse"><path
         id="path488"
         d="m 42.01,775.78 h 873.695 v 94.25 H 42.01 Z" /></clipPath><clipPath
       id="clipPath498"
       clipPathUnits="userSpaceOnUse"><path
         id="path496"
         d="m 42.01,775.78 h 873.695 v 94.25 H 42.01 Z" /></clipPath><clipPath
       id="clipPath506"
       clipPathUnits="userSpaceOnUse"><path
         id="path504"
         d="m 42.01,775.78 h 873.695 v 94.25 H 42.01 Z" /></clipPath><clipPath
       id="clipPath514"
       clipPathUnits="userSpaceOnUse"><path
         id="path512"
         d="m 42.01,775.78 h 873.695 v 94.25 H 42.01 Z" /></clipPath><clipPath
       id="clipPath522"
       clipPathUnits="userSpaceOnUse"><path
         id="path520"
         d="m 42.01,775.78 h 873.695 v 94.25 H 42.01 Z" /></clipPath><clipPath
       id="clipPath530"
       clipPathUnits="userSpaceOnUse"><path
         id="path528"
         d="m 42.01,775.78 h 873.695 v 94.25 H 42.01 Z" /></clipPath><clipPath
       id="clipPath538"
       clipPathUnits="userSpaceOnUse"><path
         id="path536"
         d="m 42.01,775.78 h 873.695 v 94.25 H 42.01 Z" /></clipPath><clipPath
       id="clipPath546"
       clipPathUnits="userSpaceOnUse"><path
         id="path544"
         d="m 42.01,775.78 h 873.695 v 94.25 H 42.01 Z" /></clipPath><clipPath
       id="clipPath554"
       clipPathUnits="userSpaceOnUse"><path
         id="path552"
         d="m 42.01,775.78 h 873.695 v 94.25 H 42.01 Z" /></clipPath><clipPath
       id="clipPath562"
       clipPathUnits="userSpaceOnUse"><path
         id="path560"
         d="m 42.01,775.78 h 873.695 v 94.25 H 42.01 Z" /></clipPath><clipPath
       id="clipPath570"
       clipPathUnits="userSpaceOnUse"><path
         id="path568"
         d="m 42.01,775.78 h 873.695 v 94.25 H 42.01 Z" /></clipPath><clipPath
       id="clipPath578"
       clipPathUnits="userSpaceOnUse"><path
         id="path576"
         d="m 42.01,775.78 h 873.695 v 94.25 H 42.01 Z" /></clipPath><clipPath
       id="clipPath586"
       clipPathUnits="userSpaceOnUse"><path
         id="path584"
         d="m 42.01,775.78 h 873.695 v 94.25 H 42.01 Z" /></clipPath><clipPath
       id="clipPath672"
       clipPathUnits="userSpaceOnUse"><path
         id="path670"
         d="m 42.01,651.13 h 873.695 v 94.25 H 42.01 Z" /></clipPath><clipPath
       id="clipPath682"
       clipPathUnits="userSpaceOnUse"><path
         id="path680"
         d="m 42.01,651.13 h 873.695 v 94.25 H 42.01 Z" /></clipPath><clipPath
       id="clipPath692"
       clipPathUnits="userSpaceOnUse"><path
         id="path690"
         d="m 42.01,651.13 h 873.695 v 94.25 H 42.01 Z" /></clipPath><clipPath
       id="clipPath702"
       clipPathUnits="userSpaceOnUse"><path
         id="path700"
         d="m 42.01,651.13 h 873.695 v 94.25 H 42.01 Z" /></clipPath><clipPath
       id="clipPath712"
       clipPathUnits="userSpaceOnUse"><path
         id="path710"
         d="m 42.01,651.13 h 873.695 v 94.25 H 42.01 Z" /></clipPath><clipPath
       id="clipPath722"
       clipPathUnits="userSpaceOnUse"><path
         id="path720"
         d="m 42.01,651.13 h 873.695 v 94.25 H 42.01 Z" /></clipPath><clipPath
       id="clipPath732"
       clipPathUnits="userSpaceOnUse"><path
         id="path730"
         d="m 42.01,651.13 h 873.695 v 94.25 H 42.01 Z" /></clipPath><clipPath
       id="clipPath742"
       clipPathUnits="userSpaceOnUse"><path
         id="path740"
         d="m 42.01,651.13 h 873.695 v 94.25 H 42.01 Z" /></clipPath><clipPath
       id="clipPath752"
       clipPathUnits="userSpaceOnUse"><path
         id="path750"
         d="m 42.01,651.13 h 873.695 v 94.25 H 42.01 Z" /></clipPath><clipPath
       id="clipPath762"
       clipPathUnits="userSpaceOnUse"><path
         id="path760"
         d="m 42.01,651.13 h 873.695 v 94.25 H 42.01 Z" /></clipPath><clipPath
       id="clipPath772"
       clipPathUnits="userSpaceOnUse"><path
         id="path770"
         d="m 42.01,651.13 h 873.695 v 94.25 H 42.01 Z" /></clipPath><clipPath
       id="clipPath782"
       clipPathUnits="userSpaceOnUse"><path
         id="path780"
         d="m 42.01,651.13 h 873.695 v 94.25 H 42.01 Z" /></clipPath><clipPath
       id="clipPath792"
       clipPathUnits="userSpaceOnUse"><path
         id="path790"
         d="m 42.01,651.13 h 873.695 v 94.25 H 42.01 Z" /></clipPath><clipPath
       id="clipPath802"
       clipPathUnits="userSpaceOnUse"><path
         id="path800"
         d="m 42.01,651.13 h 873.695 v 94.25 H 42.01 Z" /></clipPath><clipPath
       id="clipPath812"
       clipPathUnits="userSpaceOnUse"><path
         id="path810"
         d="m 42.01,651.13 h 873.695 v 94.25 H 42.01 Z" /></clipPath><clipPath
       id="clipPath822"
       clipPathUnits="userSpaceOnUse"><path
         id="path820"
         d="m 42.01,651.13 h 873.695 v 94.25 H 42.01 Z" /></clipPath><clipPath
       id="clipPath832"
       clipPathUnits="userSpaceOnUse"><path
         id="path830"
         d="m 42.01,651.13 h 873.695 v 94.25 H 42.01 Z" /></clipPath><clipPath
       id="clipPath842"
       clipPathUnits="userSpaceOnUse"><path
         id="path840"
         d="m 42.01,651.13 h 873.695 v 94.25 H 42.01 Z" /></clipPath><clipPath
       id="clipPath852"
       clipPathUnits="userSpaceOnUse"><path
         id="path850"
         d="m 42.01,651.13 h 873.695 v 94.25 H 42.01 Z" /></clipPath><clipPath
       id="clipPath928"
       clipPathUnits="userSpaceOnUse"><path
         id="path926"
         d="m 42.01,526.48 h 873.695 v 94.25 H 42.01 Z" /></clipPath><clipPath
       id="clipPath938"
       clipPathUnits="userSpaceOnUse"><path
         id="path936"
         d="m 42.01,526.48 h 873.695 v 94.25 H 42.01 Z" /></clipPath><clipPath
       id="clipPath948"
       clipPathUnits="userSpaceOnUse"><path
         id="path946"
         d="m 42.01,526.48 h 873.695 v 94.25 H 42.01 Z" /></clipPath><clipPath
       id="clipPath958"
       clipPathUnits="userSpaceOnUse"><path
         id="path956"
         d="m 42.01,526.48 h 873.695 v 94.25 H 42.01 Z" /></clipPath><clipPath
       id="clipPath968"
       clipPathUnits="userSpaceOnUse"><path
         id="path966"
         d="m 42.01,526.48 h 873.695 v 94.25 H 42.01 Z" /></clipPath><clipPath
       id="clipPath978"
       clipPathUnits="userSpaceOnUse"><path
         id="path976"
         d="m 42.01,526.48 h 873.695 v 94.25 H 42.01 Z" /></clipPath><clipPath
       id="clipPath988"
       clipPathUnits="userSpaceOnUse"><path
         id="path986"
         d="m 42.01,526.48 h 873.695 v 94.25 H 42.01 Z" /></clipPath><clipPath
       id="clipPath996"
       clipPathUnits="userSpaceOnUse"><path
         id="path994"
         d="m 42.01,526.48 h 873.695 v 94.25 H 42.01 Z" /></clipPath><clipPath
       id="clipPath1004"
       clipPathUnits="userSpaceOnUse"><path
         id="path1002"
         d="m 42.01,526.48 h 873.695 v 94.25 H 42.01 Z" /></clipPath><clipPath
       id="clipPath1012"
       clipPathUnits="userSpaceOnUse"><path
         id="path1010"
         d="m 42.01,526.48 h 873.695 v 94.25 H 42.01 Z" /></clipPath><clipPath
       id="clipPath1020"
       clipPathUnits="userSpaceOnUse"><path
         id="path1018"
         d="m 42.01,526.48 h 873.695 v 94.25 H 42.01 Z" /></clipPath><clipPath
       id="clipPath1028"
       clipPathUnits="userSpaceOnUse"><path
         id="path1026"
         d="m 42.01,526.48 h 873.695 v 94.25 H 42.01 Z" /></clipPath><clipPath
       id="clipPath1036"
       clipPathUnits="userSpaceOnUse"><path
         id="path1034"
         d="m 42.01,526.48 h 873.695 v 94.25 H 42.01 Z" /></clipPath><clipPath
       id="clipPath1044"
       clipPathUnits="userSpaceOnUse"><path
         id="path1042"
         d="m 42.01,526.48 h 873.695 v 94.25 H 42.01 Z" /></clipPath><clipPath
       id="clipPath1052"
       clipPathUnits="userSpaceOnUse"><path
         id="path1050"
         d="m 42.01,526.48 h 873.695 v 94.25 H 42.01 Z" /></clipPath><clipPath
       id="clipPath1060"
       clipPathUnits="userSpaceOnUse"><path
         id="path1058"
         d="m 42.01,526.48 h 873.695 v 94.25 H 42.01 Z" /></clipPath><clipPath
       id="clipPath1068"
       clipPathUnits="userSpaceOnUse"><path
         id="path1066"
         d="m 42.01,526.48 h 873.695 v 94.25 H 42.01 Z" /></clipPath><clipPath
       id="clipPath1076"
       clipPathUnits="userSpaceOnUse"><path
         id="path1074"
         d="m 42.01,526.48 h 873.695 v 94.25 H 42.01 Z" /></clipPath><clipPath
       id="clipPath1084"
       clipPathUnits="userSpaceOnUse"><path
         id="path1082"
         d="m 42.01,526.48 h 873.695 v 94.25 H 42.01 Z" /></clipPath><clipPath
       id="clipPath1092"
       clipPathUnits="userSpaceOnUse"><path
         id="path1090"
         d="m 42.01,526.48 h 873.695 v 94.25 H 42.01 Z" /></clipPath><clipPath
       id="clipPath1100"
       clipPathUnits="userSpaceOnUse"><path
         id="path1098"
         d="m 42.01,526.48 h 873.695 v 94.25 H 42.01 Z" /></clipPath><clipPath
       id="clipPath1108"
       clipPathUnits="userSpaceOnUse"><path
         id="path1106"
         d="m 42.01,526.48 h 873.695 v 94.25 H 42.01 Z" /></clipPath><clipPath
       id="clipPath1194"
       clipPathUnits="userSpaceOnUse"><path
         id="path1192"
         d="m 42.01,401.83 h 873.695 v 94.25 H 42.01 Z" /></clipPath><clipPath
       id="clipPath1204"
       clipPathUnits="userSpaceOnUse"><path
         id="path1202"
         d="m 42.01,401.83 h 873.695 v 94.25 H 42.01 Z" /></clipPath><clipPath
       id="clipPath1214"
       clipPathUnits="userSpaceOnUse"><path
         id="path1212"
         d="m 42.01,401.83 h 873.695 v 94.25 H 42.01 Z" /></clipPath><clipPath
       id="clipPath1224"
       clipPathUnits="userSpaceOnUse"><path
         id="path1222"
         d="m 42.01,401.83 h 873.695 v 94.25 H 42.01 Z" /></clipPath><clipPath
       id="clipPath1234"
       clipPathUnits="userSpaceOnUse"><path
         id="path1232"
         d="m 42.01,401.83 h 873.695 v 94.25 H 42.01 Z" /></clipPath><clipPath
       id="clipPath1244"
       clipPathUnits="userSpaceOnUse"><path
         id="path1242"
         d="m 42.01,401.83 h 873.695 v 94.25 H 42.01 Z" /></clipPath><clipPath
       id="clipPath1254"
       clipPathUnits="userSpaceOnUse"><path
         id="path1252"
         d="m 42.01,401.83 h 873.695 v 94.25 H 42.01 Z" /></clipPath><clipPath
       id="clipPath1264"
       clipPathUnits="userSpaceOnUse"><path
         id="path1262"
         d="m 42.01,401.83 h 873.695 v 94.25 H 42.01 Z" /></clipPath><clipPath
       id="clipPath1274"
       clipPathUnits="userSpaceOnUse"><path
         id="path1272"
         d="m 42.01,401.83 h 873.695 v 94.25 H 42.01 Z" /></clipPath><clipPath
       id="clipPath1284"
       clipPathUnits="userSpaceOnUse"><path
         id="path1282"
         d="m 42.01,401.83 h 873.695 v 94.25 H 42.01 Z" /></clipPath><clipPath
       id="clipPath1294"
       clipPathUnits="userSpaceOnUse"><path
         id="path1292"
         d="m 42.01,401.83 h 873.695 v 94.25 H 42.01 Z" /></clipPath><clipPath
       id="clipPath1304"
       clipPathUnits="userSpaceOnUse"><path
         id="path1302"
         d="m 42.01,401.83 h 873.695 v 94.25 H 42.01 Z" /></clipPath><clipPath
       id="clipPath1314"
       clipPathUnits="userSpaceOnUse"><path
         id="path1312"
         d="m 42.01,401.83 h 873.695 v 94.25 H 42.01 Z" /></clipPath><clipPath
       id="clipPath1324"
       clipPathUnits="userSpaceOnUse"><path
         id="path1322"
         d="m 42.01,401.83 h 873.695 v 94.25 H 42.01 Z" /></clipPath><clipPath
       id="clipPath1334"
       clipPathUnits="userSpaceOnUse"><path
         id="path1332"
         d="m 42.01,401.83 h 873.695 v 94.25 H 42.01 Z" /></clipPath><clipPath
       id="clipPath1344"
       clipPathUnits="userSpaceOnUse"><path
         id="path1342"
         d="m 42.01,401.83 h 873.695 v 94.25 H 42.01 Z" /></clipPath><clipPath
       id="clipPath1354"
       clipPathUnits="userSpaceOnUse"><path
         id="path1352"
         d="m 42.01,401.83 h 873.695 v 94.25 H 42.01 Z" /></clipPath><clipPath
       id="clipPath1364"
       clipPathUnits="userSpaceOnUse"><path
         id="path1362"
         d="m 42.01,401.83 h 873.695 v 94.25 H 42.01 Z" /></clipPath><clipPath
       id="clipPath1374"
       clipPathUnits="userSpaceOnUse"><path
         id="path1372"
         d="m 42.01,401.83 h 873.695 v 94.25 H 42.01 Z" /></clipPath><clipPath
       id="clipPath1384"
       clipPathUnits="userSpaceOnUse"><path
         id="path1382"
         d="m 42.01,401.83 h 873.695 v 94.25 H 42.01 Z" /></clipPath><clipPath
       id="clipPath1460"
       clipPathUnits="userSpaceOnUse"><path
         id="path1458"
         d="m 42.01,277.18 h 873.695 v 94.25 H 42.01 Z" /></clipPath><clipPath
       id="clipPath1470"
       clipPathUnits="userSpaceOnUse"><path
         id="path1468"
         d="m 42.01,277.18 h 873.695 v 94.25 H 42.01 Z" /></clipPath><clipPath
       id="clipPath1480"
       clipPathUnits="userSpaceOnUse"><path
         id="path1478"
         d="m 42.01,277.18 h 873.695 v 94.25 H 42.01 Z" /></clipPath><clipPath
       id="clipPath1490"
       clipPathUnits="userSpaceOnUse"><path
         id="path1488"
         d="m 42.01,277.18 h 873.695 v 94.25 H 42.01 Z" /></clipPath><clipPath
       id="clipPath1500"
       clipPathUnits="userSpaceOnUse"><path
         id="path1498"
         d="m 42.01,277.18 h 873.695 v 94.25 H 42.01 Z" /></clipPath><clipPath
       id="clipPath1510"
       clipPathUnits="userSpaceOnUse"><path
         id="path1508"
         d="m 42.01,277.18 h 873.695 v 94.25 H 42.01 Z" /></clipPath><clipPath
       id="clipPath1520"
       clipPathUnits="userSpaceOnUse"><path
         id="path1518"
         d="m 42.01,277.18 h 873.695 v 94.25 H 42.01 Z" /></clipPath><clipPath
       id="clipPath1530"
       clipPathUnits="userSpaceOnUse"><path
         id="path1528"
         d="m 42.01,277.18 h 873.695 v 94.25 H 42.01 Z" /></clipPath><clipPath
       id="clipPath1538"
       clipPathUnits="userSpaceOnUse"><path
         id="path1536"
         d="m 42.01,277.18 h 873.695 v 94.25 H 42.01 Z" /></clipPath><clipPath
       id="clipPath1546"
       clipPathUnits="userSpaceOnUse"><path
         id="path1544"
         d="m 42.01,277.18 h 873.695 v 94.25 H 42.01 Z" /></clipPath><clipPath
       id="clipPath1554"
       clipPathUnits="userSpaceOnUse"><path
         id="path1552"
         d="m 42.01,277.18 h 873.695 v 94.25 H 42.01 Z" /></clipPath><clipPath
       id="clipPath1562"
       clipPathUnits="userSpaceOnUse"><path
         id="path1560"
         d="m 42.01,277.18 h 873.695 v 94.25 H 42.01 Z" /></clipPath><clipPath
       id="clipPath1570"
       clipPathUnits="userSpaceOnUse"><path
         id="path1568"
         d="m 42.01,277.18 h 873.695 v 94.25 H 42.01 Z" /></clipPath><clipPath
       id="clipPath1578"
       clipPathUnits="userSpaceOnUse"><path
         id="path1576"
         d="m 42.01,277.18 h 873.695 v 94.25 H 42.01 Z" /></clipPath><clipPath
       id="clipPath1586"
       clipPathUnits="userSpaceOnUse"><path
         id="path1584"
         d="m 42.01,277.18 h 873.695 v 94.25 H 42.01 Z" /></clipPath><clipPath
       id="clipPath1594"
       clipPathUnits="userSpaceOnUse"><path
         id="path1592"
         d="m 42.01,277.18 h 873.695 v 94.25 H 42.01 Z" /></clipPath><clipPath
       id="clipPath1602"
       clipPathUnits="userSpaceOnUse"><path
         id="path1600"
         d="m 42.01,277.18 h 873.695 v 94.25 H 42.01 Z" /></clipPath><clipPath
       id="clipPath1610"
       clipPathUnits="userSpaceOnUse"><path
         id="path1608"
         d="m 42.01,277.18 h 873.695 v 94.25 H 42.01 Z" /></clipPath><clipPath
       id="clipPath1618"
       clipPathUnits="userSpaceOnUse"><path
         id="path1616"
         d="m 42.01,277.18 h 873.695 v 94.25 H 42.01 Z" /></clipPath><clipPath
       id="clipPath1626"
       clipPathUnits="userSpaceOnUse"><path
         id="path1624"
         d="m 42.01,277.18 h 873.695 v 94.25 H 42.01 Z" /></clipPath><clipPath
       id="clipPath1634"
       clipPathUnits="userSpaceOnUse"><path
         id="path1632"
         d="m 42.01,277.18 h 873.695 v 94.25 H 42.01 Z" /></clipPath><clipPath
       id="clipPath1642"
       clipPathUnits="userSpaceOnUse"><path
         id="path1640"
         d="m 42.01,277.18 h 873.695 v 94.25 H 42.01 Z" /></clipPath><clipPath
       id="clipPath1650"
       clipPathUnits="userSpaceOnUse"><path
         id="path1648"
         d="m 42.01,277.18 h 873.695 v 94.25 H 42.01 Z" /></clipPath><clipPath
       id="clipPath1736"
       clipPathUnits="userSpaceOnUse"><path
         id="path1734"
         d="m 42.01,152.53 h 873.695 v 94.25 H 42.01 Z" /></clipPath><clipPath
       id="clipPath1746"
       clipPathUnits="userSpaceOnUse"><path
         id="path1744"
         d="m 42.01,152.53 h 873.695 v 94.25 H 42.01 Z" /></clipPath><clipPath
       id="clipPath1756"
       clipPathUnits="userSpaceOnUse"><path
         id="path1754"
         d="m 42.01,152.53 h 873.695 v 94.25 H 42.01 Z" /></clipPath><clipPath
       id="clipPath1766"
       clipPathUnits="userSpaceOnUse"><path
         id="path1764"
         d="m 42.01,152.53 h 873.695 v 94.25 H 42.01 Z" /></clipPath><clipPath
       id="clipPath1776"
       clipPathUnits="userSpaceOnUse"><path
         id="path1774"
         d="m 42.01,152.53 h 873.695 v 94.25 H 42.01 Z" /></clipPath><clipPath
       id="clipPath1786"
       clipPathUnits="userSpaceOnUse"><path
         id="path1784"
         d="m 42.01,152.53 h 873.695 v 94.25 H 42.01 Z" /></clipPath><clipPath
       id="clipPath1796"
       clipPathUnits="userSpaceOnUse"><path
         id="path1794"
         d="m 42.01,152.53 h 873.695 v 94.25 H 42.01 Z" /></clipPath><clipPath
       id="clipPath1806"
       clipPathUnits="userSpaceOnUse"><path
         id="path1804"
         d="m 42.01,152.53 h 873.695 v 94.25 H 42.01 Z" /></clipPath><clipPath
       id="clipPath1816"
       clipPathUnits="userSpaceOnUse"><path
         id="path1814"
         d="m 42.01,152.53 h 873.695 v 94.25 H 42.01 Z" /></clipPath><clipPath
       id="clipPath1826"
       clipPathUnits="userSpaceOnUse"><path
         id="path1824"
         d="m 42.01,152.53 h 873.695 v 94.25 H 42.01 Z" /></clipPath><clipPath
       id="clipPath1836"
       clipPathUnits="userSpaceOnUse"><path
         id="path1834"
         d="m 42.01,152.53 h 873.695 v 94.25 H 42.01 Z" /></clipPath><clipPath
       id="clipPath1846"
       clipPathUnits="userSpaceOnUse"><path
         id="path1844"
         d="m 42.01,152.53 h 873.695 v 94.25 H 42.01 Z" /></clipPath><clipPath
       id="clipPath1922"
       clipPathUnits="userSpaceOnUse"><path
         id="path1920"
         d="m 42.01,27.88 h 873.695 v 94.25 H 42.01 Z" /></clipPath><clipPath
       id="clipPath1932"
       clipPathUnits="userSpaceOnUse"><path
         id="path1930"
         d="m 42.01,27.88 h 873.695 v 94.25 H 42.01 Z" /></clipPath><clipPath
       id="clipPath1942"
       clipPathUnits="userSpaceOnUse"><path
         id="path1940"
         d="m 42.01,27.88 h 873.695 v 94.25 H 42.01 Z" /></clipPath><clipPath
       id="clipPath1952"
       clipPathUnits="userSpaceOnUse"><path
         id="path1950"
         d="m 42.01,27.88 h 873.695 v 94.25 H 42.01 Z" /></clipPath><clipPath
       id="clipPath1962"
       clipPathUnits="userSpaceOnUse"><path
         id="path1960"
         d="m 42.01,27.88 h 873.695 v 94.25 H 42.01 Z" /></clipPath><clipPath
       id="clipPath1972"
       clipPathUnits="userSpaceOnUse"><path
         id="path1970"
         d="m 42.01,27.88 h 873.695 v 94.25 H 42.01 Z" /></clipPath><clipPath
       id="clipPath1982"
       clipPathUnits="userSpaceOnUse"><path
         id="path1980"
         d="m 42.01,27.88 h 873.695 v 94.25 H 42.01 Z" /></clipPath><clipPath
       id="clipPath1990"
       clipPathUnits="userSpaceOnUse"><path
         id="path1988"
         d="m 42.01,27.88 h 873.695 v 94.25 H 42.01 Z" /></clipPath><clipPath
       id="clipPath1998"
       clipPathUnits="userSpaceOnUse"><path
         id="path1996"
         d="m 42.01,27.88 h 873.695 v 94.25 H 42.01 Z" /></clipPath><clipPath
       id="clipPath2006"
       clipPathUnits="userSpaceOnUse"><path
         id="path2004"
         d="m 42.01,27.88 h 873.695 v 94.25 H 42.01 Z" /></clipPath><clipPath
       id="clipPath2014"
       clipPathUnits="userSpaceOnUse"><path
         id="path2012"
         d="m 42.01,27.88 h 873.695 v 94.25 H 42.01 Z" /></clipPath><clipPath
       id="clipPath2022"
       clipPathUnits="userSpaceOnUse"><path
         id="path2020"
         d="m 42.01,27.88 h 873.695 v 94.25 H 42.01 Z" /></clipPath><clipPath
       id="clipPath2030"
       clipPathUnits="userSpaceOnUse"><path
         id="path2028"
         d="m 42.01,27.88 h 873.695 v 94.25 H 42.01 Z" /></clipPath><clipPath
       id="clipPath2038"
       clipPathUnits="userSpaceOnUse"><path
         id="path2036"
         d="m 42.01,27.88 h 873.695 v 94.25 H 42.01 Z" /></clipPath><clipPath
       id="clipPath2046"
       clipPathUnits="userSpaceOnUse"><path
         id="path2044"
         d="m 42.01,27.88 h 873.695 v 94.25 H 42.01 Z" /></clipPath><clipPath
       id="clipPath1746-3"
       clipPathUnits="userSpaceOnUse"><path
         id="path1744-6"
         d="m 42.01,152.53 h 873.695 v 94.25 H 42.01 Z" /></clipPath><clipPath
       id="clipPath1756-7"
       clipPathUnits="userSpaceOnUse"><path
         id="path1754-5"
         d="m 42.01,152.53 h 873.695 v 94.25 H 42.01 Z" /></clipPath><clipPath
       id="clipPath1766-3"
       clipPathUnits="userSpaceOnUse"><path
         id="path1764-5"
         d="m 42.01,152.53 h 873.695 v 94.25 H 42.01 Z" /></clipPath><clipPath
       id="clipPath1776-6"
       clipPathUnits="userSpaceOnUse"><path
         id="path1774-2"
         d="m 42.01,152.53 h 873.695 v 94.25 H 42.01 Z" /></clipPath><clipPath
       id="clipPath1786-9"
       clipPathUnits="userSpaceOnUse"><path
         id="path1784-1"
         d="m 42.01,152.53 h 873.695 v 94.25 H 42.01 Z" /></clipPath><clipPath
       id="clipPath1796-2"
       clipPathUnits="userSpaceOnUse"><path
         id="path1794-7"
         d="m 42.01,152.53 h 873.695 v 94.25 H 42.01 Z" /></clipPath><clipPath
       id="clipPath1806-0"
       clipPathUnits="userSpaceOnUse"><path
         id="path1804-9"
         d="m 42.01,152.53 h 873.695 v 94.25 H 42.01 Z" /></clipPath><clipPath
       id="clipPath1816-3"
       clipPathUnits="userSpaceOnUse"><path
         id="path1814-6"
         d="m 42.01,152.53 h 873.695 v 94.25 H 42.01 Z" /></clipPath><clipPath
       id="clipPath1826-0"
       clipPathUnits="userSpaceOnUse"><path
         id="path1824-6"
         d="m 42.01,152.53 h 873.695 v 94.25 H 42.01 Z" /></clipPath><clipPath
       id="clipPath1836-2"
       clipPathUnits="userSpaceOnUse"><path
         id="path1834-6"
         d="m 42.01,152.53 h 873.695 v 94.25 H 42.01 Z" /></clipPath><clipPath
       id="clipPath1846-1"
       clipPathUnits="userSpaceOnUse"><path
         id="path1844-8"
         d="m 42.01,152.53 h 873.695 v 94.25 H 42.01 Z" /></clipPath><marker
       style="overflow:visible"
       id="Arrow1Send"
       refX="0"
       refY="0"
       orient="auto"><path
         transform="matrix(-0.2,0,0,-0.2,-1.2,0)"
         style="fill:#999999;fill-opacity:1;fill-rule:evenodd;stroke:#999999;stroke-width:1.00000003pt;stroke-opacity:1"
         d="M 0,0 5,-5 -12.5,0 5,5 Z"
         id="path868" /></marker></defs><g
     transform="matrix(1.3333333,0,0,-1.3333333,0,1080)"
     id="g10"><g
       style="stroke-width:0.85525328"
       id="g8797"
       transform="matrix(1.0523723,3.1426875,3.1432657,-1.0518158,-284.81491,211.25591)"><path
         id="path8793"
         d="m 138.12429,101.744 -4.00904,-1.46999"
         style="fill:none;stroke:#33ccff;stroke-width:0.85525328;stroke-linecap:butt;stroke-linejoin:miter;stroke-miterlimit:4;stroke-dasharray:none;stroke-opacity:1" /><circle
         r="1.1358979"
         cy="100.274"
         cx="134.11525"
         id="circle8795"
         style="fill:#33ccff;fill-opacity:1;stroke:none;stroke-width:0.85525328;stroke-miterlimit:4;stroke-dasharray:none;stroke-dashoffset:0" /></g><g
       transform="matrix(0.64097715,3.2516335,3.2521356,-0.6403511,75.003749,90.97288)"
       id="g8791"
       style="stroke-width:0.85525328"><path
         style="fill:none;stroke:#33ccff;stroke-width:0.85525328;stroke-linecap:butt;stroke-linejoin:miter;stroke-miterlimit:4;stroke-dasharray:none;stroke-opacity:1"
         d="m 138.12429,101.744 -4.00904,-1.46999"
         id="path8787" /><circle
         style="fill:#33ccff;fill-opacity:1;stroke:none;stroke-width:0.85525328;stroke-miterlimit:4;stroke-dasharray:none;stroke-dashoffset:0"
         id="circle8789"
         cx="134.11525"
         cy="100.274"
         r="1.1358979" /></g><g
       style="stroke-width:0.85525328"
       id="g3501"
       transform="matrix(2.8343947,-1.7176085,-1.7171927,-2.8350811,113.84073,990.69541)"><path
         id="path3492"
         d="m 138.12429,101.744 -4.00904,-1.46999"
         style="fill:none;stroke:#33ccff;stroke-width:0.85525328;stroke-linecap:butt;stroke-linejoin:miter;stroke-miterlimit:4;stroke-dasharray:none;stroke-opacity:1" /><circle
         r="1.1358979"
         cy="100.274"
         cx="134.11525"
         id="path3497"
         style="fill:#33ccff;fill-opacity:1;stroke:none;stroke-width:0.85525328;stroke-miterlimit:4;stroke-dasharray:none;stroke-dashoffset:0" /></g><path
       id="path8773"
       d="m 107.84746,602.2373 c 61.9322,-87.55932 187.93221,-114.25424 256.2712,-70.47457 68.33898,43.77966 196.47458,27.76271 196.47458,27.76271"
       style="fill:none;stroke:#99cc33;stroke-width:2.83464574;stroke-linecap:butt;stroke-linejoin:miter;stroke-opacity:1;stroke-miterlimit:4;stroke-dasharray:none" /><path
       style="fill:none;stroke:#99cc33;stroke-width:2.83464575;stroke-linecap:butt;stroke-linejoin:miter;stroke-miterlimit:4;stroke-dasharray:none;stroke-opacity:1"
       d="M 84.355934,453.81357 C 146.28813,366.25425 289.37289,436.72882 357.71188,480.50849 426.05086,524.28815 560.59324,445.2712 560.59324,445.2712"
       id="path8775" /><text
       transform="scale(1,-1)"
       id="text8801"
       y="-553.44891"
       x="573.08014"
       style="font-style:normal;font-weight:normal;font-size:30px;line-height:1.25;font-family:sans-serif;letter-spacing:0px;word-spacing:0px;fill:#3366cc;fill-opacity:1;stroke:none;stroke-width:0.75;"
       xml:space="preserve"><tspan
         style="font-size:18px;fill:#3366cc;stroke-width:0.75;"
         y="-553.44891"
         x="573.08014"
         id="tspan8799">3'</tspan></text>
<text
       xml:space="preserve"
       style="font-style:normal;font-weight:normal;font-size:30px;line-height:1.25;font-family:sans-serif;letter-spacing:0px;word-spacing:0px;fill:#3366cc;fill-opacity:1;stroke:none;stroke-width:0.75"
       x="564.01959"
       y="-434.90665"
       id="text8805"
       transform="scale(1,-1)"><tspan
         id="tspan8803"
         x="564.01959"
         y="-434.90665"
         style="font-size:18px;fill:#3366cc;stroke-width:0.75">3'</tspan></text>
<text
       transform="scale(1,-1)"
       id="text8809"
       y="-456.04794"
       x="70.974396"
       style="font-style:normal;font-weight:normal;font-size:30px;line-height:1.25;font-family:sans-serif;letter-spacing:0px;word-spacing:0px;fill:#ffcc00;fill-opacity:1;stroke:none;stroke-width:0.75"
       xml:space="preserve"><tspan
         style="font-size:18px;fill:#ffcc00;stroke-width:0.75"
         y="-456.04794"
         x="70.974396"
         id="tspan8807">5'</tspan></text>
<text
       xml:space="preserve"
       style="font-style:normal;font-weight:normal;font-size:30px;line-height:1.25;font-family:sans-serif;letter-spacing:0px;word-spacing:0px;fill:#ffcc00;fill-opacity:1;stroke:none;stroke-width:0.75"
       x="92.860641"
       y="-607.06726"
       id="text8817"
       transform="scale(1,-1)"><tspan
         id="tspan8815"
         x="92.860641"
         y="-607.06726"
         style="font-size:18px;fill:#ffcc00;stroke-width:0.75">5'</tspan></text>
<g
       transform="matrix(1.0523723,3.1426875,3.1432657,-1.0518158,91.058714,-131.96213)"
       id="g8823"
       style="stroke-width:0.85525328"><path
         style="fill:none;stroke:#33ccff;stroke-width:0.85525328;stroke-linecap:butt;stroke-linejoin:miter;stroke-miterlimit:4;stroke-dasharray:none;stroke-opacity:1"
         d="m 138.12429,101.744 -4.00904,-1.46999"
         id="path8819" /><circle
         style="fill:#33ccff;fill-opacity:1;stroke:none;stroke-width:0.85525328;stroke-miterlimit:4;stroke-dasharray:none;stroke-dashoffset:0"
         id="circle8821"
         cx="134.11525"
         cy="100.274"
         r="1.1358979" /></g><g
       style="stroke-width:0.85525328"
       id="g8829"
       transform="matrix(0.64097715,3.2516335,3.2521356,-0.6403511,447.67398,-254.38075)"><path
         id="path8825"
         d="m 138.12429,101.744 -4.00904,-1.46999"
         style="fill:none;stroke:#33ccff;stroke-width:0.85525328;stroke-linecap:butt;stroke-linejoin:miter;stroke-miterlimit:4;stroke-dasharray:none;stroke-opacity:1" /><circle
         r="1.1358979"
         cy="100.274"
         cx="134.11525"
         id="circle8827"
         style="fill:#33ccff;fill-opacity:1;stroke:none;stroke-width:0.85525328;stroke-miterlimit:4;stroke-dasharray:none;stroke-dashoffset:0" /></g><g
       transform="matrix(2.8343947,-1.7176085,-1.7171927,-2.8350811,486.51096,645.34178)"
       id="g8835"
       style="stroke-width:0.85525328"><path
         style="fill:none;stroke:#33ccff;stroke-width:0.85525328;stroke-linecap:butt;stroke-linejoin:miter;stroke-miterlimit:4;stroke-dasharray:none;stroke-opacity:1"
         d="m 138.12429,101.744 -4.00904,-1.46999"
         id="path8831" /><circle
         style="fill:#33ccff;fill-opacity:1;stroke:none;stroke-width:0.85525328;stroke-miterlimit:4;stroke-dasharray:none;stroke-dashoffset:0"
         id="circle8833"
         cx="134.11525"
         cy="100.274"
         r="1.1358979" /></g><path
       style="fill:none;stroke:#99cc33;stroke-width:2.83464575;stroke-linecap:butt;stroke-linejoin:miter;stroke-miterlimit:4;stroke-dasharray:none;stroke-opacity:1"
       d="m 545.45167,205.54053 c 58.91201,-64.15289 122.99823,-62.9111 191.33722,-19.13143 68.33898,43.77966 196.47458,27.76271 196.47458,27.76271"
       id="path8837" /><path
       id="path8839"
       d="m 641.75498,95.112481 c 29.8983,13.347469 20.28814,-3.73729 88.62713,40.042379 68.33898,43.77966 202.88136,-35.237289 202.88136,-35.237289"
       style="fill:none;stroke:#99cc33;stroke-width:2.83464575;stroke-linecap:butt;stroke-linejoin:miter;stroke-miterlimit:4;stroke-dasharray:none;stroke-opacity:1" /><path
       d="m 240.17953,-522.91748 a 14.586956,14.586956 0 0 1 -11.28782,14.20898 14.586956,14.586956 0 0 1 -16.39376,-7.78169 14.586956,14.586956 0 0 1 3.87226,-17.72894 14.586956,14.586956 0 0 1 18.14534,-0.23784 l -8.92297,11.53949 z"
       transform="matrix(0.70710678,-0.70710678,-0.70710678,-0.70710678,0,0)"
       id="path8857"
       style="fill:#ff0099;fill-opacity:1;stroke:none;stroke-width:2.83464575;stroke-miterlimit:4;stroke-dasharray:none;stroke-dashoffset:0;stroke-opacity:0.88888891" /><path
       style="fill:#ff0099;fill-opacity:1;stroke:none;stroke-width:2.83464575;stroke-miterlimit:4;stroke-dasharray:none;stroke-dashoffset:0;stroke-opacity:0.88888891"
       id="path8859"
       transform="matrix(0.99779927,0.06630692,0.06630692,-0.99779927,0,0)"
       d="m 646.96275,-44.587566 a 14.586956,14.586956 0 0 1 -11.28782,14.208975 14.586956,14.586956 0 0 1 -16.39376,-7.781681 14.586956,14.586956 0 0 1 3.87226,-17.728945 14.586956,14.586956 0 0 1 18.14534,-0.237838 l -8.92298,11.539489 z" /><path
       id="path8861"
       d="m 569.36653,242.60534 12.77238,-8.99854 -19.14051,-14.98809 -1.69439,9.77471 -11.72358,-15.53303 9.93439,28.49487 6.22625,-5.55671 z"
       style="fill:#ff9900;stroke:none;stroke-width:0.75px;stroke-linecap:butt;stroke-linejoin:miter;stroke-opacity:1" /><text
       xml:space="preserve"
       style="font-style:normal;font-weight:normal;font-size:30px;line-height:1.25;font-family:sans-serif;letter-spacing:0px;word-spacing:0px;fill:#ff9900;fill-opacity:1;stroke:none;stroke-width:0.75"
       x="580.32263"
       y="-243.63501"
       id="text8865"
       transform="scale(1,-1)"><tspan
         id="tspan8863"
         x="580.32263"
         y="-243.63501"
         style="font-size:18px;fill:#ff9900;stroke-width:0.75">Blocked</tspan></text>
<g
       style="stroke-width:0.85525328"
       id="g8871"
       transform="matrix(1.0523723,3.1426875,3.1432657,-1.0518158,537.29644,235.1291)"><path
         id="path8867"
         d="m 138.12429,101.744 -4.00904,-1.46999"
         style="fill:none;stroke:#33ccff;stroke-width:0.85525328;stroke-linecap:butt;stroke-linejoin:miter;stroke-miterlimit:4;stroke-dasharray:none;stroke-opacity:1" /><circle
         r="1.1358979"
         cy="100.274"
         cx="134.11525"
         id="circle8869"
         style="fill:#33ccff;fill-opacity:1;stroke:none;stroke-width:0.85525328;stroke-miterlimit:4;stroke-dasharray:none;stroke-dashoffset:0" /></g><g
       transform="matrix(0.64097715,3.2516335,3.2521356,-0.6403511,892.31002,104.70201)"
       id="g8877"
       style="stroke-width:0.85525328"><path
         style="fill:none;stroke:#33ccff;stroke-width:0.85525328;stroke-linecap:butt;stroke-linejoin:miter;stroke-miterlimit:4;stroke-dasharray:none;stroke-opacity:1"
         d="m 138.12429,101.744 -4.00904,-1.46999"
         id="path8873" /><circle
         style="fill:#33ccff;fill-opacity:1;stroke:none;stroke-width:0.85525328;stroke-miterlimit:4;stroke-dasharray:none;stroke-dashoffset:0"
         id="circle8875"
         cx="134.11525"
         cy="100.274"
         r="1.1358979" /></g><g
       style="stroke-width:0.85525328"
       id="g8883"
       transform="matrix(2.8343947,-1.7176085,-1.7171927,-2.8350811,932.74869,1012.433)"><path
         id="path8879"
         d="m 138.12429,101.744 -4.00904,-1.46999"
         style="fill:none;stroke:#33ccff;stroke-width:0.85525328;stroke-linecap:butt;stroke-linejoin:miter;stroke-miterlimit:4;stroke-dasharray:none;stroke-opacity:1" /><circle
         r="1.1358979"
         cy="100.274"
         cx="134.11525"
         id="circle8881"
         style="fill:#33ccff;fill-opacity:1;stroke:none;stroke-width:0.85525328;stroke-miterlimit:4;stroke-dasharray:none;stroke-dashoffset:0" /></g><path
       id="path8885"
       d="m 991.6894,572.63176 c 58.912,-64.15289 122.9982,-62.9111 191.3372,-19.13143 68.3389,43.77966 196.4745,27.76271 196.4745,27.76271"
       style="fill:none;stroke:#99cc33;stroke-width:2.83464575;stroke-linecap:butt;stroke-linejoin:miter;stroke-miterlimit:4;stroke-dasharray:none;stroke-opacity:1" /><path
       style="fill:none;stroke:#99cc33;stroke-width:2.83464575;stroke-linecap:butt;stroke-linejoin:miter;stroke-miterlimit:4;stroke-dasharray:none;stroke-opacity:1"
       d="m 1137.0707,475.41702 c 19.7051,18.25527 25.951,24.57695 39.5491,26.82907 80.0689,13.26101 202.8813,-35.23729 202.8813,-35.23729"
       id="path8887" /><path
       style="fill:#990000;fill-opacity:1;stroke:none;stroke-width:2.83464575;stroke-miterlimit:4;stroke-dasharray:none;stroke-dashoffset:0;stroke-opacity:0.88888891"
       id="path8907"
       transform="matrix(-0.87606312,-0.48219645,-0.48219645,0.87606312,0,0)"
       d="m -1141.2453,42.580212 a 14.586956,14.586956 0 0 1 -11.2878,14.208975 14.586956,14.586956 0 0 1 -16.3938,-7.781681 14.586956,14.586956 0 0 1 3.8723,-17.728945 14.586956,14.586956 0 0 1 18.1453,-0.237838 l -8.923,11.539489 z" /><path
       d="m 244.4756,1210.6113 a 14.586956,14.586956 0 0 1 -11.28782,14.209 14.586956,14.586956 0 0 1 -16.39376,-7.7817 14.586956,14.586956 0 0 1 3.87226,-17.7289 14.586956,14.586956 0 0 1 18.14534,-0.2379 l -8.92298,11.5395 z"
       transform="matrix(-0.1874069,0.98228237,0.98228237,0.1874069,0,0)"
       id="path8909"
       style="fill:#990000;fill-opacity:1;stroke:none;stroke-width:2.83464575;stroke-miterlimit:4;stroke-dasharray:none;stroke-dashoffset:0;stroke-opacity:0.88888891" /><path
       id="path8911"
       d="M 809.02633,623.6682 C 901.89702,636.50399 986.6441,576.87713 986.6441,576.87713"
       style="fill:none;stroke:#3366cc;stroke-width:2.83464575;stroke-linecap:butt;stroke-linejoin:miter;stroke-miterlimit:4;stroke-dasharray:none;stroke-opacity:1" /><path
       style="fill:none;stroke:#3366cc;stroke-width:2.83464575;stroke-linecap:butt;stroke-linejoin:miter;stroke-miterlimit:4;stroke-dasharray:none;stroke-opacity:1"
       d="m 957.95298,427.12595 c 92.87072,-12.83579 177.61772,46.79107 177.61772,46.79107"
       id="path8913" /><text
       transform="scale(1,-1)"
       id="text8917"
       y="-200.74576"
       x="429.25424"
       style="font-style:normal;font-weight:normal;font-size:24px;line-height:1.25;font-family:sans-serif;letter-spacing:0px;word-spacing:0px;fill:#ff0099;fill-opacity:1;stroke:none;stroke-width:0.75"
       xml:space="preserve"><tspan
         style="font-size:24px;fill:#ff0099;stroke-width:0.75"
         y="-200.74576"
         x="429.25424"
         id="tspan8915">XRN-1</tspan></text>
<text
       xml:space="preserve"
       style="font-style:normal;font-weight:normal;font-size:24px;line-height:1.25;font-family:sans-serif;letter-spacing:0px;word-spacing:0px;fill:#990000;fill-opacity:1;stroke:none;stroke-width:0.75"
       x="1017.6102"
       y="-605.44067"
       id="text8921"
       transform="scale(1,-1)"><tspan
         id="tspan8919"
         x="1017.6102"
         y="-605.44067"
         style="font-size:24px;fill:#990000;stroke-width:0.75">RNA Ligase</tspan></text>
<text
       transform="scale(1,-1)"
       id="text8925"
       y="-447.40677"
       x="810.4577"
       style="font-style:normal;font-weight:normal;font-size:24px;line-height:1.25;font-family:sans-serif;letter-spacing:0px;word-spacing:0px;fill:#3366cc;fill-opacity:1;stroke:none;stroke-width:0.75"
       xml:space="preserve"><tspan
         style="font-size:24px;fill:#3366cc;stroke-width:0.75"
         y="-447.40677"
         x="810.4577"
         id="tspan8923">Defined RNA Oligo</tspan></text>
<path
       id="path851"
       d="m 425.44341,365.06615 53.17572,-80.33772"
       style="fill:#999999;stroke:#999999;stroke-width:2.83464575;stroke-linecap:butt;stroke-linejoin:miter;stroke-miterlimit:4;stroke-dasharray:none;stroke-opacity:1;marker-end:url(#Arrow1Send)" /><path
       style="fill:#999999;stroke:#999999;stroke-width:2.83464575;stroke-linecap:butt;stroke-linejoin:miter;stroke-miterlimit:4;stroke-dasharray:none;stroke-opacity:1;marker-end:url(#marker10185)"
       d="m 967.8841,263.62547 91.6164,121.47584"
       id="path10181" /></g></svg>