<?xml version="1.0" encoding="UTF-8" standalone="no"?>
<svg
   xmlns:dc="http://purl.org/dc/elements/1.1/"
   xmlns:cc="http://creativecommons.org/ns#"
   xmlns:rdf="http://www.w3.org/1999/02/22-rdf-syntax-ns#"
   xmlns:svg="http://www.w3.org/2000/svg"
   xmlns="http://www.w3.org/2000/svg"
   viewBox="0 0 1920 1080"
   height="1080"
   width="1920"
   xml:space="preserve"
   id="svg2"
   version="1.1"><metadata
     id="metadata8"><rdf:RDF><cc:Work
         rdf:about=""><dc:format>image/svg+xml</dc:format><dc:type
           rdf:resource="http://purl.org/dc/dcmitype/StillImage" /><dc:title></dc:title></cc:Work></rdf:RDF></metadata><defs
     id="defs6"><clipPath
       id="clipPath18"
       clipPathUnits="userSpaceOnUse"><path
         id="path16"
         d="M 0,595.276 H 841.89 V 0 H 0 Z" /></clipPath><clipPath
       id="clipPath26"
       clipPathUnits="userSpaceOnUse"><path
         id="path24"
         d="M 67.3797,538.583 H 633.062 V 120.827 H 67.3797 Z" /></clipPath></defs><g
     transform="matrix(1.3333333,0,0,-1.3333333,-72.589598,1241.1024)"
     id="g10"><g
       style="stroke-width:2.16811776"
       transform="matrix(0.46122959,0,0,0.46122959,-358.13732,212.44002)"
       id="g831"><path
         d="m 1301.769,140.35625 c 13.875,0 27.375,4.312 32.25,6.375 v 15.75 h -7.125 c -5.625,-3.188 -13.875,-6.75 -22.125,-6.75 -16.5,0 -27.187,11.437 -27.187,29.438 v 1.125 h -19.97 c 1.295,-29.7 16.231,-45.938 44.157,-45.938 m 46.874,243.565 c 7.125,0 13.687,-3.187 18.562,-6 h 6.938 v 15.75 c -5.063,2.813 -16.125,5.625 -26.063,5.625 -16.699,0 -33.576,-9.7 -34.286,-26.812 h 19.665 c -10e-4,0.062 0,0.124 0,0.187 0,7.5 6.938,11.25 15.188,11.25 m -147.748,-158.815 c 6.75,0 14.062,-2.625 18,-4.875 v 14.812 c -3.375,2.063 -11.625,5.438 -21.375,5.438 -17.531,0 -33.098,-10.122 -39.964,-29.056 l 18.913,-5.989 c 4.187,12.081 13.154,19.67 24.426,19.67 m 9.561,158.815 c 6.75,0 14.063,-2.625 18,-4.875 v 14.813 c -3.375,2.062 -11.625,5.437 -21.375,5.437 -17.531,0 -33.098,-10.121 -39.963,-29.056 l 18.912,-5.989 c 4.188,12.082 13.154,19.67 24.426,19.67 m -103.3101,-82.5 h 20.0621 v 66.75 h -20.0621 z m 141.5641,254.825 -4.9,-15.449 c 9.326,-4.477 15.584,-16.43 15.584,-32.935 0,-1.012 -0.026,-2.009 -0.076,-2.992 l 19.956,-2.071 c 0.119,1.762 0.183,3.573 0.183,5.438 0,26.16 -12.584,42.696 -30.747,48.009 m -190.6861,-158.816 -4.9,-15.448 c 9.326,-4.477 15.584,-16.43 15.584,-32.935 0,-1.012 -0.026,-2.009 -0.076,-2.993 l 19.955,-2.071 c 0.12,1.763 0.184,3.573 0.184,5.439 0,26.16 -12.585,42.696 -30.747,48.008 m 0,158.816 -4.9,-15.449 c 9.326,-4.477 15.584,-16.43 15.584,-32.935 0,-1.012 -0.026,-2.009 -0.076,-2.992 l 19.955,-2.071 c 0.12,1.762 0.184,3.573 0.184,5.438 0,26.16 -12.585,42.696 -30.747,48.009 m 50.8091,-315.765 c -12.3751,0 -23.8121,-7.875 -29.2501,-12.937 l 0.938,-12.563 c 4.875,4.125 14.062,9.563 21.562,9.563 2.61,0 5.061,-0.524 7.1471,-1.64 l 7.679,16.669 c -2.554,0.618 -5.268,0.908 -8.076,0.908 m 294.184,0 c -12.375,0 -23.813,-7.875 -29.25,-12.937 l 0.937,-12.563 c 4.875,4.125 14.063,9.563 21.563,9.563 2.61,0 5.06,-0.524 7.147,-1.64 l 7.679,16.669 c -2.555,0.618 -5.268,0.908 -8.076,0.908 m -447.18308,158.816 c -12.375,0 -23.812,-7.875 -29.25,-12.938 l 0.938,-12.562 c 4.875,4.125 14.062,9.562 21.562,9.562 2.61,0 5.06,-0.524 7.147,-1.64 l 7.679,16.669 c -2.554,0.618 -5.268,0.909 -8.076,0.909 m 0,158.815 c -12.375,0 -23.812,-7.875 -29.25,-12.938 l 0.938,-12.562 c 4.875,4.125 14.062,9.562 21.562,9.562 2.61,0 5.06,-0.524 7.147,-1.639 l 7.679,16.668 c -2.554,0.618 -5.268,0.909 -8.076,0.909 m 469.49408,-210.378 25.313,-46.313 h 22.5 l -33.938,60.375 z m -274.307,112.503 34.125,95.625 h -19.875 l -24.375,-73.5 z m -138.7471,-221.622 -4.9,-15.448 c 9.326,-4.478 15.584,-16.431 15.584,-32.936 0,-1.012 -0.026,-2.009 -0.076,-2.992 l 19.955,-2.071 c 0.12,1.762 0.184,3.573 0.184,5.438 0,26.16 -12.585,42.696 -30.747,48.009 m -104.81598,-96.009 h 20.062 v 80.25 h -20.062 z m 364.68508,254.44 h 20.062 v -95.625 h -20.062 z"
         style="opacity:1;fill:#4d4d4d;fill-opacity:1;fill-rule:nonzero;stroke:none;stroke-width:2.16811776"
         id="path28" /><path
         id="path38"
         style="fill:#999999;fill-opacity:1;fill-rule:nonzero;stroke:none;stroke-width:2.16811776"
         d="m 998.7709,155.73125 c -15.37498,0 -24.18698,14.813 -24.18698,34.875 0,21 10.312,34.5 24.18698,34.5 3.066,0 5.958,-0.67 8.603,-1.939 l 4.9,15.448 c -4.229,1.237 -8.759,1.866 -13.503,1.866 -25.31198,0 -44.24998,-17.625 -44.24998,-50.062 0,-33.188 19.313,-50.063 44.24998,-50.063 23.367,0 42.051,15.044 44.066,44.812 l -19.955,2.071 c -0.93,-18.333 -10.408,-31.508 -24.111,-31.508 m 80.812,71.813 -1.875,10.687 h -17.25 v -95.625 h 20.063 v 72.375 z m 294.1841,0 -1.875,10.687 h -17.25 v -95.625 h 20.062 v 72.375 z m -447.18308,158.815 -1.875,10.688 h -17.25 v -95.625 h 20.063 v 72.375 z m 350.99808,-185.065 c 0,14.062 9.562,23.812 20.437,23.812 10.5,0 18.938,-8.625 18.938,-22.5 v -2.437 h -39.375 z m 58.125,-15.001 v 10.876 c 0,27 -14.813,43.312 -37.125,43.312 -22.125,0 -41.063,-15.75 -41.063,-49.875 0,-1.468 0.032,-2.905 0.093,-4.313 h 19.97 z m -21.939,185.066 c 0,-27.938 43.5,-28.688 43.5,-44.813 0,-8.437 -7.5,-12 -15.75,-12 -7.125,0 -15.375,3.563 -21.188,6.75 h -6.937 v -15.75 c 4.687,-3.187 18.562,-6.375 28.125,-6.375 17.625,0 35.25,10.125 35.25,28.875 0,28.205 -42.981,28.127 -43.309,44.438 h -19.665 c -0.016,-0.372 -0.026,-0.746 -0.026,-1.125 m -94.873,-99.378 v -36.938 -14.812 -57 c -2.812,-2.25 -9.937,-7.5 -19.125,-7.5 -12.187,0 -25.875,8.062 -25.875,33.375 0,6.023 0.91,11.531 2.574,16.33 l -18.913,5.989 c -2.386,-6.582 -3.723,-14.225 -3.723,-22.882 0,-34.875 19.125,-48.187 39.187,-48.187 14.25,0 22.875,7.125 26.438,10.312 l 1.875,-8.062 h 17.625 v 129.375 z m 9.562,158.815 v -36.937 -14.813 -57 c -2.813,-2.25 -9.938,-7.5 -19.125,-7.5 -12.188,0 -25.875,8.063 -25.875,33.375 0,6.024 0.91,11.531 2.573,16.33 l -18.912,5.989 c -2.386,-6.581 -3.724,-14.224 -3.724,-22.881 0,-34.875 19.125,-48.188 39.188,-48.188 14.25,0 22.875,7.125 26.437,10.313 l 1.875,-8.063 h 17.625 v 129.375 z m -102.186,-49.312 -1.688,15.562 h -17.4371 v -28.875 h 20.0621 c 3.375,3.75 11.063,10.5 21.938,10.5 2.25,0 5.437,-0.187 6.562,-0.562 v 21 c -13.5,0 -25.125,-9.938 -29.437,-17.625 m 108.936,91.878 c -15.375,0 -24.187,14.812 -24.187,34.875 0,21 10.312,34.5 24.187,34.5 3.066,0 5.958,-0.67 8.603,-1.94 l 4.9,15.449 c -4.228,1.236 -8.758,1.866 -13.503,1.866 -25.312,0 -44.25,-17.625 -44.25,-50.063 0,-33.187 19.313,-50.062 44.25,-50.062 23.367,0 42.051,15.044 44.067,44.812 l -19.956,2.071 c -0.929,-18.333 -10.408,-31.508 -24.111,-31.508 m -190.6861,-158.815 c -15.375,0 -24.188,14.812 -24.188,34.875 0,21 10.313,34.5 24.188,34.5 3.066,0 5.958,-0.67 8.603,-1.94 l 4.9,15.448 c -4.229,1.237 -8.758,1.867 -13.503,1.867 -25.313,0 -44.25,-17.625 -44.25,-50.063 0,-33.187 19.312,-50.062 44.25,-50.062 23.367,0 42.051,15.044 44.066,44.811 l -19.955,2.071 c -0.93,-18.333 -10.408,-31.507 -24.111,-31.507 m 0,158.815 c -15.375,0 -24.188,14.812 -24.188,34.875 0,21 10.313,34.5 24.188,34.5 3.066,0 5.958,-0.67 8.603,-1.94 l 4.9,15.449 c -4.229,1.236 -8.758,1.866 -13.503,1.866 -25.313,0 -44.25,-17.625 -44.25,-50.063 0,-33.187 19.312,-50.062 44.25,-50.062 23.367,0 42.051,15.044 44.066,44.812 l -19.955,2.071 c -0.93,-18.333 -10.408,-31.508 -24.111,-31.508 m 72.3881,-233.789 -7.679,-16.669 c 3.909,-2.09 6.541,-6.262 6.541,-12.985 v -67.313 h 20.062 v 68.063 c 0,17.626 -8.005,26.263 -18.924,28.904 m 294.184,0 -7.679,-16.669 c 3.909,-2.09 6.54,-6.262 6.54,-12.985 v -67.313 h 20.063 v 68.063 c 0,17.626 -8.005,26.263 -18.924,28.904 m -447.18308,158.815 -7.679,-16.669 c 3.91,-2.09 6.541,-6.261 6.541,-12.985 v -67.312 h 20.062 v 68.062 c 0,17.627 -8.005,26.263 -18.924,28.904 m 0,158.815 -7.679,-16.668 c 3.91,-2.091 6.541,-6.262 6.541,-12.986 v -67.312 h 20.062 v 68.062 c 0,17.627 -8.005,26.263 -18.924,28.904 m -37.326,-12.029 -1.875,10.688 h -17.25 v -95.625 h 20.063 v 72.375 z m -19.126,-322.318 h -12.937 v 15.375 h 12.937 v 9 c 0,22.313 14.625,27.375 29.063,27.375 4.5,0 9.375,-0.562 12.375,-1.687 v -15 c -2.25,0.75 -6.563,1.5 -9.75,1.5 -5.813,0 -11.625,-1.875 -11.625,-12.938 v -8.25 h 17.437 v -15.375 h -17.437 z m 517.87008,124.878 -10.5,-11.813 v -34.5 h -20.062 v 129.375 h 20.062 v -73.5 l 34.125,39.75 h 21.563 l -31.313,-35.25 z m -143.248,62.062 c 6.563,0 12.188,5.625 12.188,12.375 0,6.75 -5.625,12.375 -12.188,12.375 -6.75,0 -12.562,-5.625 -12.562,-12.375 0,-6.75 5.812,-12.375 12.562,-12.375 m -131.059,50.441 h -21.188 l -34.1241,95.625 h 20.4371 l 24.562,-73.5 h 0.188 z" /></g><g
       style="stroke-width:0.54489166"
       transform="matrix(1.8352273,0,0,1.8352273,-1567.4836,-1157.2503)"
       id="g900"><text
         xml:space="preserve"
         style="font-style:normal;font-variant:normal;font-weight:normal;font-stretch:normal;font-size:16.01871872px;line-height:125%;font-family:'Neo Sans Pro';-inkscape-font-specification:'Neo Sans Pro';text-align:start;letter-spacing:0px;word-spacing:0px;text-anchor:start;fill:#868a90;fill-opacity:1;stroke:none;stroke-width:0.40866873px;stroke-linecap:butt;stroke-linejoin:miter;stroke-opacity:1"
         x="883.21313"
         y="-714.69189"
         id="text1473"
         transform="scale(1,-1)"><tspan
           id="tspan1471"
           x="883.21313"
           y="-714.69189"
           style="font-style:normal;font-variant:normal;font-weight:normal;font-stretch:normal;font-size:16.01871872px;font-family:'Neo Sans Pro';-inkscape-font-specification:'Neo Sans Pro';text-align:start;text-anchor:start;fill:#868a90;fill-opacity:1;stroke-width:0.40866873px">The Novo Nordisk Foundation Center for Biosustainability</tspan></text>
<path
         d="M 1005.7318,696.41352 H 883.77703 v 4.74477 h 121.95477 z"
         style="fill:#ffffff;fill-opacity:1;fill-rule:nonzero;stroke:none;stroke-width:0.5448916"
         id="path332" /><g
         style="fill:#ffffff;fill-opacity:1;stroke-width:0.32637721"
         id="g1469"
         transform="matrix(1.6695149,0,0,1.6695149,786.38257,-334.63045)"><path
           id="path1378"
           d="m 113.56816,644.89636 c -0.656,0 -1.15348,-0.0662 -1.54248,-0.13916 -0.129,-0.023 -0.19043,-0.0854 -0.19043,-0.19043 v -0.47315 c 0,-0.129 0.0867,-0.1622 0.17871,-0.15819 l 0.0454,0.003 c 0.352,0.015 0.89079,0.0733 1.50879,0.0733 0.653,0 0.93164,-0.21425 0.93164,-0.92725 v -0.40283 h -0.65625 c -1.683,0 -2.32031,-0.53954 -2.32031,-1.60254 v -0.0762 c 0,-1.243 0.80386,-1.57325 1.60986,-1.57325 0.497,0 1.02505,0.20308 1.45606,0.47608 l 0.006,-0.2124 c 0.004,-0.105 0.0932,-0.1919 0.19923,-0.1919 h 1.61571 c 0.10401,0 0.1919,0.0869 0.1919,0.1919 v 0.0469 c 0,0.11 -0.0849,0.21256 -0.1919,0.24756 l -0.85839,0.27686 v 2.81982 c 0,1.176 -0.6394,1.81201 -1.9834,1.81201 z m 0.27539,-2.93701 h 0.65625 v -1.35791 c -0.368,-0.201 -0.74179,-0.3252 -1.13379,-0.3252 -0.517,0 -0.78369,0.15196 -0.78369,0.73096 v 0.0762 c 0,0.608 0.24823,0.87598 1.26123,0.87598 z"
           style="fill:#ffffff;fill-opacity:1;fill-rule:nonzero;stroke:none;stroke-width:0.32637718" /><path
           id="path1361"
           transform="matrix(0.75000002,0,0,-0.75000002,0,841.89002)"
           d="m 80.501953,260.2793 c -0.938667,0 -2.042588,0.0747 -2.419922,0.13867 -0.189333,0.032 -0.298828,0.14142 -0.298828,0.35742 v 8.67383 c 0,0.224 0.109495,0.32542 0.298828,0.35742 0.377334,0.0627 1.481255,0.14063 2.419922,0.14063 1.238667,0 2.258214,-0.30404 2.935547,-0.97071 0.793333,-0.784 0.998047,-1.83762 0.998047,-3.26562 v -1.19532 c 0,-1.44533 -0.212245,-2.51306 -1.017578,-3.28906 -0.678667,-0.65466 -1.689349,-0.94726 -2.916016,-0.94726 z m 0,1.24414 c 0.702667,0 1.321625,0.14402 1.765625,0.55468 0.546667,0.50667 0.708984,1.26739 0.708984,2.49805 v 1.07422 c 0,1.19333 -0.142916,1.92274 -0.65625,2.44141 -0.446666,0.452 -1.087692,0.61328 -1.818359,0.61328 -0.537333,0 -0.90938,-0.0132 -1.248047,-0.0332 v -7.11133 c 0.345334,-0.02 0.710714,-0.0371 1.248047,-0.0371 z"
           style="fill:#ffffff;fill-opacity:1;fill-rule:nonzero;stroke:none;stroke-width:0.43516961" /><g
           style="fill:#ffffff;fill-opacity:1;stroke-width:0.32637721"
           transform="translate(-12.052469)"
           id="g1394"><path
             style="fill:#ffffff;fill-opacity:1;fill-rule:nonzero;stroke:none;stroke-width:0.32637721"
             d="m 98.972,645.6089 h -0.708 c -0.105,0 -0.197,0.087 -0.197,0.191 v 0.804 c 0,0.105 0.092,0.191 0.197,0.191 h 0.708 c 0.106,0 0.191,-0.086 0.191,-0.191 v -0.804 c 0,-0.104 -0.085,-0.191 -0.191,-0.191"
             id="path1388" /><path
             style="fill:#ffffff;fill-opacity:1;fill-rule:nonzero;stroke:none;stroke-width:0.32637721"
             d="m 98.087,639.6969 c 0,-0.105 0.086,-0.195 0.192,-0.195 h 0.669 c 0.104,0 0.191,0.09 0.191,0.195 v 4.942 c 0,0.105 -0.087,0.191 -0.191,0.191 h -1.86 c -0.105,0 -0.186,-0.086 -0.186,-0.192 v -0.062 c 0,-0.104 0.069,-0.191 0.186,-0.226 l 0.999,-0.291 z"
             id="path1386" /></g><path
           id="path1384"
           d="m 101.49102,644.6329 c 0,0.106 -0.084,0.197 -0.185,0.197 h -0.675 c -0.106,0 -0.191,-0.096 -0.191,-0.197 v -3.931 c -0.355,-0.182 -0.807997,-0.377 -1.185996,-0.377 -0.687,0 -0.934,0.277 -0.934,1.176 v 3.132 c 0,0.106 -0.085,0.197 -0.191,0.197 h -0.669 c -0.104,0 -0.192,-0.091 -0.192,-0.197 v -3.132 c 0,-1.214 0.376,-2.066 1.66,-2.066 0.589,0 1.062999,0.171 1.556996,0.49 l 0.007,-0.232 c 0.005,-0.105 0.089,-0.191 0.195,-0.191 h 1.664 c 0.106,0 0.191,0.086 0.191,0.191 v 0.047 c 0,0.11 -0.083,0.213 -0.191,0.248 l -0.86,0.277 z"
           style="fill:#ffffff;fill-opacity:1;fill-rule:nonzero;stroke:none;stroke-width:0.32637721" /><path
           id="path1382"
           d="m 108.50027,640.8309 c 0,-1.167 0.43,-1.402 1.411,-1.402 0.196,0 0.425,0.025 0.636,0.058 0.124,0.02 0.177,0.076 0.177,0.167 v 0.469 c 0,0.095 -0.072,0.139 -0.201,0.139 h -0.522 c -0.364,0 -0.444,0.067 -0.444,0.569 v 3.171 h 0.946 c 0.105,0 0.192,0.087 0.192,0.191 v 0.446 c 0,0.105 -0.087,0.191 -0.192,0.191 h -0.946 v 1.014 c 0,0.107 -0.091,0.168 -0.182,0.153 l -0.693,-0.115 c -0.109,-0.018 -0.182,-0.098 -0.182,-0.191 v -0.861 h -1.016 c -0.105,0 -0.187,-0.077 -0.187,-0.182 v -0.076 c 0,-0.106 0.082,-0.186 0.187,-0.223 l 1.016,-0.298 z"
           style="fill:#ffffff;fill-opacity:1;fill-rule:nonzero;stroke:none;stroke-width:0.32637721" /><path
           id="path1376"
           d="m 93.102811,640.4019 c 0.462,-0.022 1.231,-0.102 1.547,-0.102 0.607,0 0.813,0.182 0.813,0.57 0,0.234 -0.143,0.382 -0.569,0.64 l -1.138,0.689 c -0.527,0.321 -0.89,0.765 -0.89,1.344 0,0.976 0.674,1.354 1.774,1.354 0.656,0 1.13,-0.066 1.598,-0.158 0.12,-0.023 0.177,-0.096 0.177,-0.205 v -0.436 c 0,-0.114 -0.063,-0.172 -0.157,-0.172 h -0.034 c -0.303,0.017 -0.99,0.096 -1.531,0.096 -0.497,0 -0.775,-0.086 -0.775,-0.479 0,-0.22 0.181,-0.358 0.522,-0.56 l 1.1,-0.664 c 0.799,-0.479 0.985,-0.923 0.985,-1.449 0,-0.905 -0.67,-1.441 -1.832,-1.441 -0.364,0 -1.108,0.043 -1.612,0.168 -0.119,0.029 -0.19,0.096 -0.19,0.205 v 0.456 c 0,0.08 0.079,0.151 0.174,0.146 z"
           style="fill:#ffffff;fill-opacity:1;fill-rule:nonzero;stroke:none;stroke-width:0.32637721" /><path
           id="path1374"
           d="m 120.25139,639.6969 c 0,-0.105 0.088,-0.195 0.187,-0.195 h 0.676 c 0.104,0 0.191,0.095 0.191,0.195 v 3.942 c 0.421,0.215 0.822,0.359 1.186,0.359 0.732,0 0.932,-0.268 0.932,-1.167 v -3.134 c 0,-0.105 0.087,-0.195 0.191,-0.195 h 0.67 c 0.106,0 0.191,0.09 0.191,0.195 v 3.246 c 0,1.063 -0.367,1.954 -1.659,1.954 -0.597,0 -0.998,-0.123 -1.581,-0.481 l -0.007,0.223 c -0.003,0.105 -0.088,0.191 -0.193,0.191 h -1.777 c -0.105,0 -0.186,-0.086 -0.186,-0.191 v -0.063 c 0,-0.104 0.07,-0.191 0.186,-0.226 l 0.993,-0.291 z"
           style="fill:#ffffff;fill-opacity:1;fill-rule:nonzero;stroke:none;stroke-width:0.32637721" /><path
           id="path1372"
           d="m 68.727,645.6819 h -1.77 v -5.989 c 0,-0.101 -0.077,-0.191 -0.182,-0.191 h -0.737 c -0.101,0 -0.182,0.086 -0.182,0.191 v 5.989 h -1.769 c -0.106,0 -0.192,0.057 -0.192,0.162 v 0.588 c 0,0.101 0.086,0.177 0.192,0.177 h 4.64 c 0.105,0 0.186,-0.072 0.186,-0.177 v -0.588 c 0,-0.1 -0.081,-0.162 -0.186,-0.162"
           style="fill:#ffffff;fill-opacity:1;fill-rule:nonzero;stroke:none;stroke-width:0.32637721" /><path
           id="path1370"
           d="m 72.353,639.4299 c -1.545,0 -2.541,0.746 -2.541,2.678 v 4.319 c 0,0.101 0.083,0.182 0.189,0.182 h 0.732 c 0.099,0 0.186,-0.076 0.186,-0.182 v -4.319 c 0,-1.161 0.325,-1.755 1.434,-1.755 1.11,0 1.434,0.588 1.434,1.755 v 4.319 c 0,0.101 0.083,0.182 0.187,0.182 h 0.732 c 0.101,0 0.186,-0.076 0.186,-0.182 v -4.319 c 0,-1.932 -0.994,-2.678 -2.539,-2.678"
           style="fill:#ffffff;fill-opacity:1;fill-rule:nonzero;stroke:none;stroke-width:0.32637721" /><path
           style="fill:#ffffff;fill-opacity:1;fill-rule:nonzero;stroke:none;stroke-width:0.32637721"
           d="m 103.41076,640.4019 c 0.462,-0.022 1.231,-0.102 1.547,-0.102 0.607,0 0.813,0.182 0.813,0.57 0,0.234 -0.143,0.382 -0.569,0.64 l -1.138,0.689 c -0.527,0.321 -0.89,0.765 -0.89,1.344 0,0.976 0.674,1.354 1.774,1.354 0.656,0 1.13,-0.066 1.598,-0.158 0.12,-0.023 0.177,-0.096 0.177,-0.205 v -0.436 c 0,-0.114 -0.063,-0.172 -0.157,-0.172 h -0.034 c -0.303,0.017 -0.99,0.096 -1.531,0.096 -0.497,0 -0.775,-0.086 -0.775,-0.479 0,-0.22 0.181,-0.358 0.522,-0.56 l 1.1,-0.664 c 0.799,-0.479 0.985,-0.923 0.985,-1.449 0,-0.905 -0.67,-1.441 -1.832,-1.441 -0.364,0 -1.108,0.043 -1.612,0.168 -0.119,0.029 -0.19,0.096 -0.19,0.205 v 0.456 c 0,0.08 0.079,0.151 0.174,0.146 z"
           id="path1396" /><g
           style="fill:#ffffff;fill-opacity:1;stroke-width:0.32637721"
           id="g1402"
           transform="translate(18.887471)"><path
             id="path1398"
             d="m 98.972,645.6089 h -0.708 c -0.105,0 -0.197,0.087 -0.197,0.191 v 0.804 c 0,0.105 0.092,0.191 0.197,0.191 h 0.708 c 0.106,0 0.191,-0.086 0.191,-0.191 v -0.804 c 0,-0.104 -0.085,-0.191 -0.191,-0.191"
             style="fill:#ffffff;fill-opacity:1;fill-rule:nonzero;stroke:none;stroke-width:0.32637721" /><path
             id="path1400"
             d="m 98.30996,639.6969 c 0,-0.105 0.086,-0.195 0.192,-0.195 h 0.669 c 0.104,0 0.191,0.09 0.191,0.195 v 4.942 c 0,0.105 -0.087,0.191 -0.191,0.191 h -1.86 c -0.105,0 -0.186,-0.086 -0.186,-0.192 v -0.062 c 0,-0.104 0.069,-0.191 0.186,-0.226 l 0.999,-0.291 z"
             style="fill:#ffffff;fill-opacity:1;fill-rule:nonzero;stroke:none;stroke-width:0.32637721" /></g><path
           d="m 84.217793,641.50835 c 0,-0.39376 -0.075,-0.71877 -0.225006,-0.97503 -0.143753,-0.25626 -0.343758,-0.45939 -0.600013,-0.60939 -0.250006,-0.15001 -0.540637,-0.25626 -0.871894,-0.31876 -0.331258,-0.0562 -0.678141,-0.0843 -1.040649,-0.0843 -0.312507,0 -0.600014,0.006 -0.862519,0.0187 -0.262506,0.0125 -0.484386,0.0344 -0.66564,0.0656 -0.106253,0.0125 -0.184379,0.0437 -0.23438,0.0938 -0.05,0.05 -0.075,0.13438 -0.075,0.25314 v 6.24388 c 0,0.21251 0.100002,0.32814 0.300007,0.34689 0.156253,0.0188 0.365632,0.0344 0.628139,0.0468 0.268755,0.0188 0.556262,0.0282 0.862519,0.0282 0.375009,0 0.728141,-0.0281 1.059398,-0.0844 0.331257,-0.0562 0.621889,-0.15308 0.871896,-0.29063 0.250005,-0.1375 0.446885,-0.32188 0.590638,-0.55313 0.150003,-0.23126 0.225004,-0.52502 0.225004,-0.88127 v -0.15001 c 0,-0.35 -0.0875,-0.65313 -0.262506,-0.90939 -0.175003,-0.25001 -0.421884,-0.43751 -0.740641,-0.56251 0.325007,-0.11251 0.578138,-0.30314 0.759392,-0.57189 0.187505,-0.26876 0.281257,-0.58439 0.281257,-0.9469 z m -1.127006,3.19405 c 0,0.20617 -0.03902,0.37225 -0.11707,0.49824 -0.07284,0.13171 -0.179509,0.2348 -0.319993,0.30924 -0.135282,0.0744 -0.299181,0.12312 -0.491698,0.14603 -0.192516,0.0286 -0.408446,0.0429 -0.64779,0.0429 -0.135282,0 -0.270564,-0.003 -0.405846,-0.008 -0.135282,-0.006 -0.257556,-0.0112 -0.366821,-0.0172 v -2.13036 h 1.201926 c 0.223735,0 0.408446,0.0258 0.554134,0.0773 0.150892,0.0573 0.270564,0.13174 0.359017,0.22334 0.08845,0.0973 0.14829,0.20616 0.179509,0.32643 0.03642,0.12599 0.05463,0.2577 0.05463,0.39515 z m 0.02607,-2.94226 c -4e-6,0.14154 -0.01808,0.27741 -0.05425,0.40763 -0.03616,0.13021 -0.100751,0.24344 -0.193759,0.33969 -0.08784,0.10191 -0.206677,0.18117 -0.356517,0.23779 -0.149841,0.0622 -0.33844,0.0916 -0.565778,0.0935 h -1.193559 v -2.33539 c 0.129172,-0.005 0.260929,-0.0139 0.395268,-0.0254 0.139507,-0.005 0.276431,-0.008 0.410771,-0.008 0.237678,0 0.452106,0.017 0.643283,0.0509 0.196342,0.034 0.361683,0.0935 0.496024,0.17834 0.13434,0.0849 0.237678,0.20099 0.310015,0.34818 0.07234,0.14721 0.108506,0.33687 0.108506,0.569 z"
           style="font-style:normal;font-variant:normal;font-weight:normal;font-stretch:normal;font-size:10px;line-height:125%;font-family:'Neo Sans Pro';-inkscape-font-specification:'Neo Sans Pro';text-align:start;letter-spacing:0px;word-spacing:0px;text-anchor:start;fill:#ffffff;fill-opacity:1;stroke:none;stroke-width:0.24478289px;stroke-linecap:butt;stroke-linejoin:miter;stroke-opacity:1"
           id="path1414" /><path
           d="m 92.178333,641.80472 c 0,-0.34715 -0.04418,-0.66273 -0.132547,-0.94676 -0.08837,-0.28403 -0.220912,-0.52704 -0.397641,-0.72901 -0.17673,-0.20198 -0.397642,-0.35978 -0.662736,-0.47339 -0.265095,-0.1073 -0.571216,-0.16095 -0.918363,-0.16095 -0.347147,0 -0.653268,0.0537 -0.918363,0.16095 -0.258783,0.11361 -0.476539,0.27141 -0.653268,0.47339 -0.176729,0.20197 -0.309276,0.44498 -0.397641,0.72901 -0.08836,0.28403 -0.132548,0.59961 -0.132548,0.94676 v 0.71954 c 0,0.34715 0.04418,0.66274 0.132548,0.94677 0.08836,0.28403 0.220912,0.52703 0.397641,0.72901 0.176729,0.20197 0.394485,0.35661 0.653268,0.46391 0.265095,0.11361 0.571216,0.17042 0.918363,0.17042 0.347147,0 0.653268,-0.0568 0.918363,-0.17042 0.265094,-0.1073 0.486006,-0.26194 0.662736,-0.46391 0.176729,-0.20198 0.309276,-0.44498 0.397641,-0.72901 0.08836,-0.28403 0.132547,-0.59962 0.132547,-0.94677 z m -1.059782,0.65551 c 0,0.39951 -0.08302,0.71601 -0.249046,0.94949 -0.166031,0.23348 -0.433236,0.35022 -0.801616,0.35022 -0.363192,0 -0.627803,-0.11674 -0.793834,-0.35022 -0.16603,-0.22829 -0.249046,-0.54479 -0.249046,-0.94949 v -0.59148 c 0,-0.39951 0.08042,-0.71601 0.241263,-0.94948 0.166031,-0.23349 0.433236,-0.35023 0.801617,-0.35023 0.363191,0 0.627802,0.11415 0.793833,0.34244 0.171219,0.23348 0.256829,0.55257 0.256829,0.95727 z"
           style="font-style:normal;font-variant:normal;font-weight:normal;font-stretch:normal;font-size:10px;line-height:125%;font-family:'Neo Sans Pro';-inkscape-font-specification:'Neo Sans Pro';text-align:start;letter-spacing:0px;word-spacing:0px;text-anchor:start;fill:#ffffff;fill-opacity:1;stroke:none;stroke-width:0.24478289px;stroke-linecap:butt;stroke-linejoin:miter;stroke-opacity:1"
           id="path1418" /></g></g></g></svg>