<?xml version="1.0" encoding="UTF-8" standalone="no"?>
<!-- Created with Inkscape (http://www.inkscape.org/) -->

<svg
   xmlns:dc="http://purl.org/dc/elements/1.1/"
   xmlns:cc="http://creativecommons.org/ns#"
   xmlns:rdf="http://www.w3.org/1999/02/22-rdf-syntax-ns#"
   xmlns:svg="http://www.w3.org/2000/svg"
   xmlns="http://www.w3.org/2000/svg"
   xmlns:sodipodi="http://sodipodi.sourceforge.net/DTD/sodipodi-0.dtd"
   xmlns:inkscape="http://www.inkscape.org/namespaces/inkscape"
   version="1.1"
   id="svg2"
   xml:space="preserve"
   width="1920"
   height="1080"
   viewBox="0 0 1920 1080"
   sodipodi:docname="ivfsq_motivation.svg"
   inkscape:version="0.92.4 5da689c313, 2019-01-14"><metadata
     id="metadata8"><rdf:RDF><cc:Work
         rdf:about=""><dc:format>image/svg+xml</dc:format><dc:type
           rdf:resource="http://purl.org/dc/dcmitype/StillImage" /><dc:title></dc:title></cc:Work></rdf:RDF></metadata><defs
     id="defs6"><clipPath
       clipPathUnits="userSpaceOnUse"
       id="clipPath136"><path
         d="M 0,0 H 187.0983 V 456.14468 H 0 Z"
         id="path134"
         inkscape:connector-curvature="0" /></clipPath></defs><sodipodi:namedview
     pagecolor="#ffffff"
     bordercolor="#666666"
     borderopacity="1"
     objecttolerance="10"
     gridtolerance="10"
     guidetolerance="10"
     inkscape:pageopacity="0"
     inkscape:pageshadow="2"
     inkscape:window-width="1916"
     inkscape:window-height="1053"
     id="namedview4"
     showgrid="false"
     showguides="true"
     inkscape:guide-bbox="true"
     inkscape:zoom="0.59366321"
     inkscape:cx="1014.5944"
     inkscape:cy="484.67786"
     inkscape:window-x="0"
     inkscape:window-y="23"
     inkscape:window-maximized="0"
     inkscape:current-layer="g10"><sodipodi:guide
       position="175,0"
       orientation="1,0"
       id="guide1831"
       inkscape:locked="false"
       inkscape:label=""
       inkscape:color="rgb(0,0,255)" /><sodipodi:guide
       position="357.10483,930"
       orientation="0,1"
       id="guide1833"
       inkscape:locked="false"
       inkscape:label=""
       inkscape:color="rgb(0,0,255)" /><sodipodi:guide
       position="1790.578,628.30237"
       orientation="1,0"
       id="guide1835"
       inkscape:locked="false"
       inkscape:label=""
       inkscape:color="rgb(0,0,255)" /><sodipodi:guide
       position="1270.0804,50"
       orientation="0,1"
       id="guide1837"
       inkscape:locked="false"
       inkscape:label=""
       inkscape:color="rgb(0,0,255)" /></sodipodi:namedview><g
     id="g10"
     inkscape:groupmode="layer"
     inkscape:label="2017-11-03_ivflow"
     transform="matrix(1.3333333,0,0,-1.3333333,0,1080)"><g
       id="g30"
       transform="matrix(2.7942442,0,0,2.7942442,181.03877,694.46703)" /><g
       id="g38"
       transform="matrix(2.7942442,0,0,2.7942442,181.03877,694.46703)" /><text
       transform="scale(1,-1)"
       style="font-style:normal;font-variant:normal;font-weight:normal;font-stretch:normal;font-size:36px;font-family:'Minion Pro';-inkscape-font-specification:'Minion Pro';writing-mode:lr-tb;fill:#000000;fill-opacity:1;fill-rule:nonzero;stroke:none;stroke-width:2.79424429"
       id="text54"
       x="131.76842"
       y="-659.88751"><tspan
         sodipodi:role="line"
         id="tspan52"
         style="font-style:normal;font-variant:normal;font-weight:normal;font-stretch:normal;font-size:48px;font-family:'Minion Pro';-inkscape-font-specification:'Minion Pro';fill:#000000;stroke-width:2.79424429"
         x="131.76842"
         y="-659.88751">Expanding the</tspan><tspan
         sodipodi:role="line"
         style="font-style:normal;font-variant:normal;font-weight:normal;font-stretch:normal;font-size:48px;font-family:'Minion Pro';-inkscape-font-specification:'Minion Pro';fill:#3366cc;stroke-width:2.79424429"
         x="131.76842"
         y="-599.88751"
         id="tspan1858">Microbiome Synthetic Biology</tspan><tspan
         sodipodi:role="line"
         style="font-style:normal;font-variant:normal;font-weight:normal;font-stretch:normal;font-size:48px;font-family:'Minion Pro';-inkscape-font-specification:'Minion Pro';fill:#000000;stroke-width:2.79424429"
         x="131.76842"
         y="-539.88751"
         id="tspan1860">Toolbox</tspan></text>
<text
       transform="scale(1,-1)"
       style="font-variant:normal;font-size:57.73607254px;font-family:Quicksand;-inkscape-font-specification:QuicksandBook-Regular-Identity-H;writing-mode:lr-tb;fill:#000000;fill-opacity:1;fill-rule:nonzero;stroke:none;stroke-width:2.79424429"
       id="text58"
       x="181.03877"
       y="-582.71124"><tspan
         sodipodi:role="line"
         id="tspan56"
         style="fill:#000000;stroke-width:2.79424429"
         x="181.03877"
         y="-530.7052" /></text>
<text
       transform="scale(1,-1)"
       style="font-variant:normal;font-size:57.73607254px;font-family:Quicksand;-inkscape-font-specification:QuicksandBook-Regular-Identity-H;writing-mode:lr-tb;fill:#000000;fill-opacity:1;fill-rule:nonzero;stroke:none;stroke-width:2.79424429"
       id="text62"
       x="181.03877"
       y="-513.1178"><tspan
         sodipodi:role="line"
         id="tspan60"
         style="fill:#000000;stroke-width:2.79424429"
         x="181.03877"
         y="-461.11179" /></text>
<path
       inkscape:connector-curvature="0"
       id="path140"
       style="fill:#333333;fill-opacity:1;fill-rule:nonzero;stroke:none;stroke-width:1.32838368"
       d="m 1207.1922,37.598354 c -7.6329,1.157013 -15.7388,4.976129 -17.8243,8.391396 -1.3962,2.287479 -1.2965,5.608439 0.218,7.663438 2.7244,3.690246 5.8063,4.986747 30.0494,12.630263 2.2835,0.715996 6.5435,2.517306 9.4753,4.001107 l 5.3242,2.692617 1.5727,3.653055 c 1.4002,3.269154 1.8001,3.772621 3.7714,4.752981 2.2994,1.151704 3.6636,3.269154 3.1455,4.899065 -0.1513,0.471585 -1.0533,3.056625 -2.0085,5.738623 -2.5584,7.213119 -2.3353,8.816481 1.8001,12.837481 l 2.1532,2.09622 -1.1198,5.47426 c -0.6178,3.01012 -1.1318,6.67911 -1.1423,8.1576 -0.014,1.47849 -0.2379,3.47637 -0.5075,4.44212 -0.2711,0.96441 -0.8051,4.70115 -1.1943,8.30241 -0.6748,6.24205 -3.5282,24.86469 -3.8656,25.19678 -0.089,0.0889 -0.062,-4.6228 0.062,-10.46503 0.1967,-9.43418 0.1036,-11.16771 -0.7944,-15.40657 -1.0015,-4.73304 -1.0015,-4.79945 -0.082,-7.32738 0.7053,-1.93546 1.0109,-4.54972 1.2713,-10.93259 0.1807,-4.61349 0.1861,-9.18446 0,-10.16082 -0.3693,-1.96069 -3.0833,-5.281653 -5.2206,-6.38686 -1.873,-0.971057 -6.2581,-0.876722 -11.7017,0.248408 -8.7275,1.801282 -13.6412,2.086882 -21.7005,1.24601 -4.021,-0.421094 -8.6292,-0.971029 -10.2432,-1.230083 -7.0616,-1.131781 -19.6135,-0.150051 -25.2857,1.966035 -3.8138,1.42799 -5.4119,3.39931 -5.0904,6.25801 0.1309,1.18359 0.6694,2.73512 1.1942,3.4405 2.2516,3.04598 9.0808,5.2365 17.8907,5.73463 5.9312,0.3374 8.2558,0.9644 16.5225,4.42619 l 5.2244,2.19449 1.7283,3.14428 c 1.5409,2.80288 1.7283,3.52418 1.6816,6.5383 -0.046,2.83876 0.1913,3.9174 1.4627,6.63128 1.4798,3.16024 1.4996,3.31035 0.8208,5.51149 -1.1888,3.81908 -2.201,16.41218 -1.6192,20.12235 0.425,2.70857 0.3374,4.01703 -0.5447,8.406 -0.5765,2.86003 -1.4996,8.7753 -2.055,13.14967 -0.5499,4.37438 -1.4267,9.37575 -1.9408,11.12523 -1.2553,4.26543 -2.0085,10.85554 -1.6351,14.23362 0.2802,2.50532 0.2136,2.81218 -0.7679,3.33557 -1.5463,0.82492 -2.4124,3.26385 -2.1121,5.94185 0.2233,1.92484 0.1108,2.34993 -0.72,2.79626 -1.3284,0.712 -4.0171,4.85259 -4.0171,6.18629 0,0.59643 -0.5765,2.33928 -1.2818,3.87622 -0.9803,2.14269 -1.2195,3.26913 -1.007,4.82069 0.1714,1.2912 0.027,2.46416 -0.4143,3.24259 -0.3734,0.6695 -0.6909,1.92483 -0.7001,2.79226 0,0.86079 -0.457,2.68733 -0.9964,4.0569 -0.5459,1.37485 -1.4173,5.14748 -1.9461,8.3914 -0.5299,3.24258 -1.5049,7.89724 -2.1639,10.34147 -0.6641,2.44952 -1.4585,6.42405 -1.7641,8.84171 -0.312,2.41767 -1.2088,7.47215 -2.0032,11.22881 -2.8852,13.67839 -3.7368,20.78259 -4.2707,35.64853 -0.2073,5.80635 -0.5765,10.18071 -0.9126,10.7931 -0.6177,1.12117 -0.4211,6.02954 0.3003,7.40975 0.2391,0.46225 0.3679,2.4854 0.2856,4.50455 -0.083,2.01249 0.079,4.9243 0.3679,6.46522 0.4051,2.20512 0.3786,2.96761 -0.1295,3.57999 -0.6961,0.84088 -1.4067,4.39033 -1.6512,8.26122 -0.082,1.34434 -0.8037,4.01704 -1.6033,5.93656 -1.177,2.83877 -1.4214,4.05289 -1.3019,6.49182 0.1137,2.30871 -0.022,3.0659 -0.5818,3.28376 -1.1304,0.43041 -2.1533,2.83342 -2.1533,5.04918 0,1.11055 0.5301,4.14057 1.1836,6.74022 0.6536,2.59965 1.6871,7.44691 2.2941,10.77318 l 1.1106,6.04415 -1.9262,1.5157 c -2.0855,1.63391 -11.3737,10.51813 -17.18,16.42281 -1.9832,2.01381 -5.1169,5.77582 -6.9687,8.36482 l -3.3728,4.69584 -0.3281,4.33317 c -0.2591,3.41927 -0.1553,4.84199 0.4888,6.73491 0.4464,1.32308 0.7161,2.66208 0.5912,2.98356 -0.1252,0.32279 -1.2871,0.84619 -2.5838,1.16767 -5.2882,1.31376 -14.846,4.64003 -15.7546,5.48487 -0.5339,0.49816 -1.1928,0.90332 -1.4625,0.90332 -0.2696,0 -1.2142,0.63231 -2.0961,1.40142 -0.8821,0.76781 -2.1068,1.55557 -2.714,1.74817 -1.962,0.60708 -2.7138,2.38178 -2.3619,5.52607 0.4305,3.79919 -0.2073,4.5763 -5.3242,6.52237 -4.9707,1.88897 -6.0959,2.8175 -6.0959,5.04918 0,1.36026 0.3985,1.99258 2.2623,3.58532 l 2.2622,1.93544 -3.5654,2.86532 c -8.5973,6.90628 -9.5059,7.77239 -9.5059,9.07554 0,0.85546 1.2407,2.77099 3.8549,5.94585 5.376,6.53827 4.0942,6.81856 17.2386,-3.73543 5.9046,-4.74365 8.7328,-6.715 9.6254,-6.715 0.7625,0 2.0284,-0.69473 3.2121,-1.75877 1.582,-1.432 2.3764,-1.78534 4.1818,-1.85309 2.5277,-0.10359 3.285,-0.85014 2.8705,-2.83345 l -0.2803,-1.31773 3.2785,-0.14474 c 4.0847,-0.18191 4.8206,-0.95513 3.4152,-3.5654 -0.8674,-1.60869 -0.8727,-1.76941 -0.1093,-2.32999 1.0999,-0.80365 7.799,-10.24713 9.3758,-13.21076 1.0427,-1.966 1.7069,-2.56379 3.9745,-3.56537 2.6726,-1.17697 7.8361,-5.16212 15.5367,-11.97541 l 3.9069,-3.45646 0.3374,1.88897 c 0.1871,1.03747 0.4927,3.97453 0.6747,6.52768 0.3786,5.26174 -0.332,9.30401 -2.7604,15.71212 -1.7641,4.65466 -2.5478,9.84467 -2.1639,14.31733 0.6178,7.21181 1.9554,10.74663 6.1545,16.22089 1.3124,1.71229 2.5,3.60125 2.6354,4.18707 1.3855,5.9671 4.2655,20.58994 4.4009,22.31818 0.093,1.20351 0.3879,2.91049 0.659,3.7819 0.3932,1.27658 0.3521,1.58875 -0.2085,1.58875 -0.8555,0 -0.8555,-0.0889 0.037,2.4389 0.9857,2.80157 0.9857,3.93335 -0.014,2.65677 -0.5194,-0.6642 -0.4463,-0.18191 0.2485,1.64455 0.5406,1.42669 1.1889,3.48169 1.4333,4.57097 0.4144,1.86374 0.3466,2.08157 -1.2101,3.63844 -0.9073,0.90729 -1.7894,1.64985 -1.9608,1.64985 -0.1659,0 -0.8621,-0.44104 -1.5463,-0.97635 -2.9529,-2.32467 -6.4757,-0.12345 -6.4811,4.05287 0,0.85684 -0.2073,2.32999 -0.4569,3.26916 -0.2485,0.94449 -0.7001,2.64615 -0.9964,3.78856 -0.3838,1.49444 -0.789,2.07494 -1.432,2.07494 -0.4981,0 -1.2088,0.46228 -1.5821,1.02816 -0.6854,1.02684 -0.6907,1.02684 -2.3246,-0.50345 -1.8783,-1.74948 -2.2888,-1.70167 -1.4373,0.16067 0.5445,1.19822 0.461,1.42667 -0.9924,2.74976 -0.8661,0.79437 -1.9712,1.44794 -2.4535,1.44794 -0.6177,0 -1.8636,1.87301 -4.3225,6.50643 -1.8943,3.57599 -3.7833,7.31142 -4.1978,8.29839 -0.4676,1.11452 -1.2658,2.00189 -2.1173,2.3446 -2.6263,1.0534 -3.5654,1.57283 -3.5654,1.96203 0,0.21265 0.3839,0.24842 0.8568,0.0771 0.7625,-0.2803 0.7571,-0.20203 -0.079,0.74788 -0.809,0.91791 -0.8249,1.05873 -0.1395,1.05873 0.7001,0 0.6801,0.1861 -0.1554,1.60335 -0.805,1.36957 -0.9192,2.31404 -0.7585,6.32973 0.1036,2.59435 0.3746,5.00271 0.5978,5.35077 0.2272,0.3467 0.425,1.95004 0.445,3.56402 0.047,3.47641 0.9657,11.21954 1.7336,14.64944 1.0175,4.4979 2.7085,7.31539 6.5382,10.89672 2.9636,2.76569 4.8937,4.01571 10.5966,6.85447 8.042,4.00108 11.8824,5.06379 18.4511,5.10629 7.5666,0.041 11.7217,-0.47821 12.9266,-1.60868 0.5805,-0.54462 1.3482,-0.98563 1.7069,-0.98563 0.3574,0 2.0657,-0.78907 3.7926,-1.76013 2.2889,-1.27658 3.5242,-2.36585 4.567,-4.02634 1.4533,-2.31934 2.0124,-2.80153 7.0776,-6.11719 4.0064,-2.62622 6.3511,-4.97213 8.1205,-8.11643 0.8302,-1.4785 2.9171,-5.04918 4.6386,-7.93312 1.7176,-2.88522 3.8563,-7.31142 4.749,-9.83932 0.8927,-2.52657 2.7286,-6.64722 4.0888,-9.15787 1.873,-3.47108 11.3217,-26.11603 11.3217,-27.14419 0,-0.10359 -0.243,-0.0358 -0.5392,0.15005 -0.3786,0.23387 -0.4357,-0.16067 -0.1925,-1.31776 0.4318,-2.03908 2.0192,-3.45515 6.0508,-5.41715 2.5997,-1.26065 3.3476,-1.432 4.4367,-1.02151 1.0748,0.40913 1.8212,0.25371 4.1353,-0.85153 1.5569,-0.74254 3.7368,-2.21042 4.8419,-3.26916 1.1106,-1.0587 2.8907,-2.4442 3.9534,-3.07652 1.0639,-0.63896 2.2728,-1.45325 2.6886,-1.81192 0.4092,-0.35733 1.8411,-1.35361 3.1748,-2.21573 3.4299,-2.20512 5.0134,-4.78883 5.724,-9.35582 0.4928,-3.19608 0.7784,-3.88552 1.9355,-4.71045 0.8356,-0.59777 2.2781,-2.87062 3.7726,-5.94717 3.1748,-6.55422 7.399,-11.68047 16.2567,-19.72384 8.5469,-7.76173 14.3586,-14.13932 21.0112,-23.03815 7.051,-9.43952 9.5363,-13.48177 10.6881,-17.39917 0.5552,-1.87835 1.9262,-4.95621 3.046,-6.83852 l 2.035,-3.41526 -0.073,-5.75459 c -0.088,-6.78671 0,-6.59542 -5.8634,-12.2251 -2.2888,-2.19448 -4.9297,-5.29229 -5.8581,-6.88635 -4.0836,-6.95276 -10.5594,-14.19114 -24.6735,-27.58389 -2.0656,-1.962 -5.0292,-5.32946 -6.5901,-7.4881 -5.2989,-7.32204 -8.22,-9.92169 -15.4531,-13.74081 -3.8655,-2.03904 -4.5976,-2.1533 -4.8101,-0.7213 -0.2604,1.72824 -6.7562,-5.90466 -8.1311,-9.5524 -0.603,-1.59273 -2.0655,-4.20834 -3.2598,-5.81166 -1.1929,-1.60868 -2.5212,-3.83506 -2.941,-4.94559 -0.5605,-1.46255 -1.1889,-2.17854 -2.2728,-2.58901 l -1.4945,-0.5659 0.3214,-4.5351 c 0.1767,-2.50533 0.094,-6.07073 -0.1871,-7.95436 -0.2803,-1.87834 -0.7213,-6.40281 -0.9858,-10.05055 -0.2643,-3.65307 -0.8142,-7.5811 -1.2193,-8.73415 -0.4716,-1.33766 -0.7372,-3.8709 -0.7372,-7.06167 0,-3.26916 -0.3269,-6.30451 -0.9486,-8.85235 -0.5194,-2.13339 -1.4333,-8.27184 -2.0191,-13.64252 -0.9803,-8.90413 -1.0215,-10.40919 -0.4876,-17.09231 0.3216,-4.02631 0.7839,-8.6398 1.0269,-10.25378 0.2498,-1.60868 0.9033,-7.5439 1.4586,-13.17888 0.5552,-5.64167 1.1982,-11.57686 1.4372,-13.18554 0.234,-1.61398 0.5767,-5.01862 0.7572,-7.57048 0.1819,-2.54784 0.639,-5.38126 1.0177,-6.28459 0.3785,-0.9086 0.6853,-2.28348 0.6853,-3.0619 0,-0.77845 0.461,-3.1124 1.0268,-5.18868 2.3406,-8.62385 3.487,-13.14302 3.7208,-14.65339 0.1339,-0.87674 0.6377,-1.80527 1.116,-2.06565 0.5074,-0.26964 1.1304,-1.54625 1.4891,-3.03535 0.3374,-1.41604 1.2247,-4.01039 1.9713,-5.77051 0.7425,-1.75344 1.796,-5.271 2.3406,-7.80955 0.5394,-2.54253 1.6498,-6.90097 2.4642,-9.68258 1.8065,-6.15841 2.9994,-12.4483 4.7476,-24.96965 1.2712,-9.09544 1.3336,-10.43977 1.3602,-30.02809 0.036,-25.924751 -0.5658,-46.431011 -1.4691,-50.167755 -0.4876,-2.012497 -0.5394,-3.174848 -0.1862,-4.103375 0.7213,-1.894275 0.058,-6.788057 -1.0639,-7.800273 -0.7055,-0.637618 -0.9127,-1.514369 -0.9127,-3.844349 0,-3.674291 -0.9657,-7.067007 -2.6208,-9.236235 -2.3566,-3.092474 -8.5721,-4.992085 -18.4579,-5.64563 -3.4193,-0.22857 -6.4082,-0.53535 -6.642,-0.680147 -0.2378,-0.144742 -3.487,-0.819608 -7.2277,-1.505064 -3.7408,-0.684115 -8.9985,-1.935434 -11.6859,-2.776305 -4.5456,-1.426685 -5.4583,-1.546252 -13.1855,-1.680403 -4.5603,-0.07851 -9.6148,0.057 -11.2288,0.300213 z m 82.2043,385.241896 c 3.6225,5.56859 7.3992,13.04074 7.3992,14.62814 0,0.7107 0.6907,2.38183 1.5315,3.7102 1.9248,3.02473 2.9159,7.17063 2.7803,11.64328 -0.058,1.9049 0.068,3.91874 0.2697,4.47402 0.2763,0.76246 0,1.40541 -1.1305,2.61422 -0.8461,0.90865 -1.8012,1.49446 -2.1851,1.34435 -0.9485,-0.36267 -2.9982,1.27657 -6.61,5.28828 -1.6924,1.87834 -3.4712,3.56405 -3.9546,3.75135 -0.4823,0.1819 -1.0733,0.68946 -1.3125,1.12116 -0.3586,0.63763 -0.6947,0.68942 -1.7853,0.27495 -3.0514,-1.16234 -5.6138,-0.44632 -6.7921,1.89828 -0.3214,0.64958 -0.8979,1.27657 -1.2766,1.40143 -0.5804,0.1914 -0.6375,-1.1836 -0.3626,-8.99314 0.1754,-5.07443 0.534,-12.29686 0.7878,-16.05887 0.2604,-3.75796 0.623,-14.312 0.8103,-23.45523 l 0.3374,-16.61942 4.3996,4.41555 c 2.4176,2.42297 5.615,6.27794 7.0935,8.56142 z" /><text
       transform="scale(1,-1)"
       style="font-style:normal;font-variant:normal;font-weight:normal;font-stretch:normal;font-size:36px;font-family:'Minion Pro';-inkscape-font-specification:'Minion Pro';writing-mode:lr-tb;fill:#000000;fill-opacity:1;fill-rule:nonzero;stroke:none;stroke-width:2.79424429"
       id="text164"
       x="808.72937"
       y="-412.52667"><tspan
         sodipodi:role="line"
         id="tspan162"
         style="font-style:normal;font-variant:normal;font-weight:normal;font-stretch:normal;font-size:36px;font-family:'Minion Pro';-inkscape-font-specification:'Minion Pro';fill:#000000;stroke-width:2.79424429"
         x="808.72937"
         y="-412.52667">Engineering</tspan><tspan
         sodipodi:role="line"
         style="font-style:normal;font-variant:normal;font-weight:normal;font-stretch:normal;font-size:36px;font-family:'Minion Pro';-inkscape-font-specification:'Minion Pro';fill:#000000;stroke-width:2.79424429"
         x="808.72937"
         y="-367.52667"
         id="tspan1852">microbiome</tspan><tspan
         sodipodi:role="line"
         style="font-style:normal;font-variant:normal;font-weight:normal;font-stretch:normal;font-size:36px;font-family:'Minion Pro';-inkscape-font-specification:'Minion Pro';fill:#000000;stroke-width:2.79424429"
         x="808.72937"
         y="-322.52667"
         id="tspan1854">composition</tspan></text>
<text
       transform="scale(1,-1)"
       style="font-style:normal;font-variant:normal;font-weight:normal;font-stretch:normal;font-size:36px;font-family:'Minion Pro';-inkscape-font-specification:'Minion Pro';writing-mode:lr-tb;fill:#000000;fill-opacity:1;fill-rule:nonzero;stroke:none;stroke-width:2.79424429"
       id="text186"
       x="547.41449"
       y="-173.20352"><tspan
         sodipodi:role="line"
         id="tspan184"
         style="font-style:italic;font-variant:normal;font-weight:normal;font-stretch:normal;font-size:36px;font-family:'Minion Pro';-inkscape-font-specification:'Minion Pro';fill:#000000;stroke-width:2.79424429"
         x="547.41449"
         y="-173.20352">In vivo</tspan><tspan
         sodipodi:role="line"
         style="font-style:normal;font-variant:normal;font-weight:normal;font-stretch:normal;font-size:36px;font-family:'Minion Pro';-inkscape-font-specification:'Minion Pro';fill:#000000;stroke-width:2.79424429"
         x="547.41449"
         y="-128.20352"
         id="tspan1845">drug delivery</tspan></text>
<text
       transform="scale(1,-1)"
       style="font-style:normal;font-variant:normal;font-weight:normal;font-stretch:normal;font-size:36px;font-family:'Minion Pro';-inkscape-font-specification:'Minion Pro';writing-mode:lr-tb;fill:#000000;fill-opacity:1;fill-rule:nonzero;stroke:none;stroke-width:2.79424429"
       id="text208"
       x="245.9463"
       y="-284.35583"><tspan
         sodipodi:role="line"
         id="tspan206"
         style="font-style:normal;font-variant:normal;font-weight:normal;font-stretch:normal;font-size:36px;font-family:'Minion Pro';-inkscape-font-specification:'Minion Pro';fill:#000000;stroke-width:2.79424429"
         x="245.9463"
         y="-284.35583">Engineered</tspan><tspan
         sodipodi:role="line"
         style="font-style:normal;font-variant:normal;font-weight:normal;font-stretch:normal;font-size:36px;font-family:'Minion Pro';-inkscape-font-specification:'Minion Pro';fill:#000000;stroke-width:2.79424429"
         x="245.9463"
         y="-239.35583"
         id="tspan1841">Probiotics</tspan></text>
<path
       d="m 1005.6659,375.89675 h 118.8118 l 56.0085,56.00845 h 27.0213"
       style="fill:none;stroke:#3366cc;stroke-width:2.25000006;stroke-linecap:butt;stroke-linejoin:miter;stroke-miterlimit:10;stroke-dasharray:none;stroke-opacity:1"
       id="path214"
       inkscape:connector-curvature="0" /><path
       d="m 1219.5333,431.9052 c 0,3.32082 -2.692,6.01283 -6.0128,6.01283 -3.3209,0 -6.013,-2.69201 -6.013,-6.01283 0,-3.32083 2.6921,-6.01282 6.013,-6.01282 3.3208,0 6.0128,2.69199 6.0128,6.01282 z"
       style="fill:none;stroke:#3366cc;stroke-width:2.25000006;stroke-linecap:butt;stroke-linejoin:miter;stroke-miterlimit:10;stroke-dasharray:none;stroke-opacity:1"
       id="path220"
       inkscape:connector-curvature="0" /><path
       d="M 1124.4777,375.89675 1012.4608,263.87986 H 427.82391"
       style="fill:none;stroke:#3366cc;stroke-width:2.25000006;stroke-linecap:butt;stroke-linejoin:miter;stroke-miterlimit:10;stroke-dasharray:none;stroke-opacity:1"
       id="path226"
       inkscape:connector-curvature="0" /><path
       d="M 1012.4608,263.87986 900.44391,151.86293 H 760.01917"
       style="fill:none;stroke:#3366cc;stroke-width:2.25000006;stroke-linecap:butt;stroke-linejoin:miter;stroke-miterlimit:10;stroke-dasharray:none;stroke-opacity:1"
       id="path232"
       inkscape:connector-curvature="0" /></g></svg>