<?xml version="1.0" encoding="utf-8" standalone="no"?>
<!DOCTYPE svg PUBLIC "-//W3C//DTD SVG 1.1//EN"
  "http://www.w3.org/Graphics/SVG/1.1/DTD/svg11.dtd">
<!-- Created with matplotlib (https://matplotlib.org/) -->
<svg height="405pt" version="1.1" viewBox="0 0 720 405" width="720pt" xmlns="http://www.w3.org/2000/svg" xmlns:xlink="http://www.w3.org/1999/xlink">
 <defs>
  <style type="text/css">
*{stroke-linecap:butt;stroke-linejoin:round;}
  </style>
 </defs>
 <g id="figure_1">
  <g id="patch_1">
   <path d="M 0 405 
L 720 405 
L 720 0 
L 0 0 
z
" style="fill:none;"/>
  </g>
  <g id="axes_1">
   <g id="patch_2">
    <path d="M 69.51125 203.1775 
L 242.09156 203.1775 
L 242.09156 82.455 
L 69.51125 82.455 
z
" style="fill:none;"/>
   </g>
   <g id="matplotlib.axis_1">
    <g id="xtick_1">
     <g id="line2d_1">
      <defs>
       <path d="M 0 0 
L 0 3.5 
" id="m3e3b115449" style="stroke:#000000;stroke-width:0.8;"/>
      </defs>
      <g>
       <use style="stroke:#000000;stroke-width:0.8;" x="77.35581" xlink:href="#m3e3b115449" y="203.1775"/>
      </g>
     </g>
     <g id="text_1">
      <!-- 0.00 -->
      <defs>
       <path d="M 24 63.5 
C 9 63.5 3.5 45.703125 3.5 31.09375 
C 3.5 15.296875 8.90625 -1.203125 24 -1.203125 
C 39 -1.203125 44.296875 16.59375 44.296875 31.203125 
C 44.296875 46.59375 39 63.5 24 63.5 
z
M 23.90625 60.203125 
C 32.90625 60.203125 35.40625 45.40625 35.40625 31.203125 
C 35.40625 17.203125 33 2.203125 24 2.203125 
C 15.296875 2.203125 12.40625 17.296875 12.40625 31.296875 
C 12.40625 45.203125 14.796875 60.203125 23.90625 60.203125 
z
" id="MinionPro-Regular-48"/>
       <path d="M 11.40625 -1.203125 
C 14.59375 -1.203125 17 1.09375 17 4.59375 
C 17 7.796875 14.59375 10.296875 11.40625 10.296875 
C 8.203125 10.296875 5.796875 7.796875 5.796875 4.59375 
C 5.796875 1.09375 8.203125 -1.203125 11.40625 -1.203125 
z
" id="MinionPro-Regular-46"/>
      </defs>
      <g transform="translate(69.015966 217.297812)scale(0.1 -0.1)">
       <use xlink:href="#MinionPro-Regular-48"/>
       <use x="47.999985" xlink:href="#MinionPro-Regular-46"/>
       <use x="70.799973" xlink:href="#MinionPro-Regular-48"/>
       <use x="118.799957" xlink:href="#MinionPro-Regular-48"/>
      </g>
     </g>
    </g>
    <g id="xtick_2">
     <g id="line2d_2">
      <g>
       <use style="stroke:#000000;stroke-width:0.8;" x="116.578607" xlink:href="#m3e3b115449" y="203.1775"/>
      </g>
     </g>
     <g id="text_2">
      <!-- 0.25 -->
      <defs>
       <path d="M 41.203125 14 
C 38.203125 7.703125 36.90625 7.296875 31.5 7.296875 
L 12.796875 7.296875 
L 27 22.203125 
C 36.203125 32 40.203125 37.90625 40.203125 46.59375 
C 40.203125 57.09375 32.203125 63.5 23.40625 63.5 
C 17.59375 63.5 12.90625 60.90625 9.90625 57.59375 
L 4.203125 49.5 
L 6.40625 47.5 
C 9 51.40625 13.203125 56.796875 20 56.796875 
C 27.40625 56.796875 31.796875 51.90625 31.796875 43.5 
C 31.796875 34.90625 25.5 26.703125 19.296875 19.296875 
C 14.296875 13.5 8.703125 7.796875 3.09375 2.296875 
L 3.09375 0 
L 40.5 0 
C 41.703125 4.5 42.703125 8.90625 44 13.09375 
z
" id="MinionPro-Regular-50"/>
       <path d="M 15.203125 55 
L 38.5 55 
L 41.09375 61.5 
L 40.5 62.296875 
L 12 62.296875 
L 8.09375 31.796875 
C 10.40625 32.703125 14.203125 33.796875 18.40625 33.796875 
C 29.296875 33.796875 34.703125 27.5 34.703125 18.703125 
C 34.703125 11.203125 30.5 3.90625 22 3.90625 
C 15.90625 3.90625 11.796875 7.09375 9.703125 9 
C 8.703125 9.796875 7.90625 9.703125 7 9 
C 5.90625 8 5 6.703125 4.90625 5.703125 
C 4.703125 4.5 5.203125 3.703125 6.5 2.296875 
C 8 0.90625 12.203125 -1.203125 16.796875 -1.203125 
C 22.09375 -1.09375 28.796875 1.5 34.203125 5.90625 
C 40.296875 10.90625 43.09375 16.59375 43.09375 22.59375 
C 43.09375 30.796875 36.59375 39.5 23.796875 39.5 
C 21.09375 39.5 16.40625 37.90625 12.59375 36.5 
z
" id="MinionPro-Regular-53"/>
      </defs>
      <g transform="translate(108.238763 217.297812)scale(0.1 -0.1)">
       <use xlink:href="#MinionPro-Regular-48"/>
       <use x="47.999985" xlink:href="#MinionPro-Regular-46"/>
       <use x="70.799973" xlink:href="#MinionPro-Regular-50"/>
       <use x="118.799957" xlink:href="#MinionPro-Regular-53"/>
      </g>
     </g>
    </g>
    <g id="xtick_3">
     <g id="line2d_3">
      <g>
       <use style="stroke:#000000;stroke-width:0.8;" x="155.801405" xlink:href="#m3e3b115449" y="203.1775"/>
      </g>
     </g>
     <g id="text_3">
      <!-- 0.50 -->
      <g transform="translate(147.461561 217.297812)scale(0.1 -0.1)">
       <use xlink:href="#MinionPro-Regular-48"/>
       <use x="47.999985" xlink:href="#MinionPro-Regular-46"/>
       <use x="70.799973" xlink:href="#MinionPro-Regular-53"/>
       <use x="118.799957" xlink:href="#MinionPro-Regular-48"/>
      </g>
     </g>
    </g>
    <g id="xtick_4">
     <g id="line2d_4">
      <g>
       <use style="stroke:#000000;stroke-width:0.8;" x="195.024203" xlink:href="#m3e3b115449" y="203.1775"/>
      </g>
     </g>
     <g id="text_4">
      <!-- 0.75 -->
      <defs>
       <path d="M 44.703125 62.296875 
L 6.5 62.296875 
C 6.09375 58 5.59375 53 4.703125 47.5 
L 7.59375 47.5 
C 10 54.09375 10.59375 55 17.203125 55 
L 38.796875 55 
C 30.90625 37.59375 19.59375 16.90625 9.09375 -0.09375 
L 9.796875 -1.203125 
L 17.203125 -0.203125 
C 26.796875 20.40625 36.09375 40.796875 45.5 61.09375 
z
" id="MinionPro-Regular-55"/>
      </defs>
      <g transform="translate(186.684359 217.297812)scale(0.1 -0.1)">
       <use xlink:href="#MinionPro-Regular-48"/>
       <use x="47.999985" xlink:href="#MinionPro-Regular-46"/>
       <use x="70.799973" xlink:href="#MinionPro-Regular-55"/>
       <use x="118.799957" xlink:href="#MinionPro-Regular-53"/>
      </g>
     </g>
    </g>
    <g id="xtick_5">
     <g id="line2d_5">
      <g>
       <use style="stroke:#000000;stroke-width:0.8;" x="234.247" xlink:href="#m3e3b115449" y="203.1775"/>
      </g>
     </g>
     <g id="text_5">
      <!-- 1.00 -->
      <defs>
       <path d="M 38.40625 0 
L 38.40625 2.703125 
C 29.296875 3.40625 28.703125 4.203125 28.703125 11.40625 
L 28.703125 63.5 
C 23.203125 61.296875 17.296875 59.40625 10.90625 58.296875 
L 10.90625 56 
L 15.703125 55.796875 
C 20.09375 55.59375 20.5 55.09375 20.5 49.90625 
L 20.5 11.40625 
C 20.5 4.203125 20 3.40625 10.90625 2.703125 
L 10.90625 0 
z
" id="MinionPro-Regular-49"/>
      </defs>
      <g transform="translate(225.907156 217.297812)scale(0.1 -0.1)">
       <use xlink:href="#MinionPro-Regular-49"/>
       <use x="47.999985" xlink:href="#MinionPro-Regular-46"/>
       <use x="70.799973" xlink:href="#MinionPro-Regular-48"/>
       <use x="118.799957" xlink:href="#MinionPro-Regular-48"/>
      </g>
     </g>
    </g>
    <g id="text_6">
     <!-- FPR -->
     <defs>
      <path d="M 49.296875 50.296875 
C 48.796875 55 48.296875 61.40625 48.296875 65 
L 4.296875 65 
L 4.296875 62.203125 
C 12 61.59375 12.796875 61.09375 12.796875 52.40625 
L 12.796875 12.59375 
C 12.796875 4 12 3.40625 4 2.796875 
L 4 0 
L 31.203125 0 
L 31.203125 2.796875 
C 22.09375 3.40625 21.296875 4 21.296875 12.59375 
L 21.296875 30.703125 
L 31.59375 30.703125 
C 40.703125 30.703125 41.09375 29.5 42.40625 22.703125 
L 45.203125 22.703125 
L 45.203125 41.90625 
L 42.40625 41.90625 
C 41.09375 35.5 40.703125 34.59375 31.59375 34.59375 
L 21.296875 34.59375 
L 21.296875 58.40625 
C 21.296875 61.296875 21.59375 61.5 24.5 61.5 
L 32.09375 61.5 
C 39.703125 61.5 41.90625 60.703125 43.5 57.90625 
C 44.90625 55.796875 45.5 53.90625 46.296875 49.90625 
z
" id="MinionPro-Regular-70"/>
      <path d="M 4.59375 65 
L 4.59375 62.203125 
C 12 61.703125 12.796875 61.296875 12.796875 52.5 
L 12.796875 12.5 
C 12.796875 4.203125 12 3.40625 4 2.796875 
L 4 0 
L 31.09375 0 
L 31.09375 2.796875 
C 22.09375 3.40625 21.203125 3.90625 21.203125 12.40625 
L 21.203125 28.09375 
L 28.59375 26.203125 
C 29.703125 26.09375 31.59375 26.09375 33.09375 26.203125 
C 42.796875 27.5 52.59375 33.796875 52.59375 46.703125 
C 52.59375 53.296875 50 57.90625 46.09375 60.796875 
C 42.09375 63.796875 36.40625 65 29.296875 65 
z
M 21.203125 55.90625 
C 21.203125 58.703125 21.5 59.90625 22.296875 60.59375 
C 23 61.296875 25.09375 61.796875 27.90625 61.796875 
C 36.09375 61.796875 43 57.203125 43 46.40625 
C 43 33.703125 35 30.203125 28.5 30.203125 
C 25.203125 30.203125 22.5 30.90625 21.203125 31.40625 
z
" id="MinionPro-Regular-80"/>
      <path d="M 63.09375 1.796875 
C 60.90625 2.40625 58.59375 3.5 55.90625 6.5 
C 53.5 9.09375 51.40625 11.703125 47.796875 16.90625 
C 44.796875 21.40625 40.59375 28.09375 38.90625 31.40625 
C 46.296875 34.59375 51.59375 39.90625 51.59375 48.5 
C 51.59375 54.5 49 59 45 61.59375 
C 41.203125 64.09375 36.296875 65 29 65 
L 4.203125 65 
L 4.203125 62.203125 
C 12 61.5 12.796875 61.203125 12.796875 52.703125 
L 12.796875 12.5 
C 12.796875 4 11.90625 3.40625 3.703125 2.796875 
L 3.703125 0 
L 30 0 
L 30 2.796875 
C 22 3.40625 21.09375 4 21.09375 12.5 
L 21.09375 28.40625 
L 24.296875 28.40625 
C 29.5 28.40625 31.203125 27.203125 32.90625 24.40625 
C 35.90625 19.5 39.5 13.296875 43 8.40625 
C 47.5 1.90625 51.703125 -0.296875 59.203125 -0.703125 
C 60.40625 -0.796875 61.5 -0.796875 62.703125 -0.796875 
z
M 21.09375 31.703125 
L 21.09375 56.296875 
C 21.09375 59 21.5 60.203125 22.203125 60.703125 
C 23 61.296875 24.703125 61.703125 27.59375 61.703125 
C 35.203125 61.703125 42.296875 57.703125 42.296875 46.90625 
C 42.296875 41.5 40.703125 37.5 36.796875 34.5 
C 34.296875 32.5 31 31.703125 25.90625 31.703125 
z
" id="MinionPro-Regular-82"/>
     </defs>
     <g transform="translate(147.236561 230.818125)scale(0.1 -0.1)">
      <use xlink:href="#MinionPro-Regular-70"/>
      <use x="52.899994" xlink:href="#MinionPro-Regular-80"/>
      <use x="109.199982" xlink:href="#MinionPro-Regular-82"/>
     </g>
    </g>
   </g>
   <g id="matplotlib.axis_2">
    <g id="ytick_1">
     <g id="line2d_6">
      <defs>
       <path d="M 0 0 
L -3.5 0 
" id="m71a9ebb7e3" style="stroke:#000000;stroke-width:0.8;"/>
      </defs>
      <g>
       <use style="stroke:#000000;stroke-width:0.8;" x="69.51125" xlink:href="#m71a9ebb7e3" y="203.1775"/>
      </g>
     </g>
     <g id="text_7">
      <!-- 0.0 -->
      <g transform="translate(50.631563 206.737656)scale(0.1 -0.1)">
       <use xlink:href="#MinionPro-Regular-48"/>
       <use x="47.999985" xlink:href="#MinionPro-Regular-46"/>
       <use x="70.799973" xlink:href="#MinionPro-Regular-48"/>
      </g>
     </g>
    </g>
    <g id="ytick_2">
     <g id="line2d_7">
      <g>
       <use style="stroke:#000000;stroke-width:0.8;" x="69.51125" xlink:href="#m71a9ebb7e3" y="180.182738"/>
      </g>
     </g>
     <g id="text_8">
      <!-- 0.2 -->
      <g transform="translate(50.631563 183.742894)scale(0.1 -0.1)">
       <use xlink:href="#MinionPro-Regular-48"/>
       <use x="47.999985" xlink:href="#MinionPro-Regular-46"/>
       <use x="70.799973" xlink:href="#MinionPro-Regular-50"/>
      </g>
     </g>
    </g>
    <g id="ytick_3">
     <g id="line2d_8">
      <g>
       <use style="stroke:#000000;stroke-width:0.8;" x="69.51125" xlink:href="#m71a9ebb7e3" y="157.187976"/>
      </g>
     </g>
     <g id="text_9">
      <!-- 0.4 -->
      <defs>
       <path d="M 45.59375 17.796875 
L 45.59375 22.5 
L 36 22.5 
L 36 63.203125 
L 32 63.203125 
C 21.703125 49.59375 11.5 34.796875 2 20.59375 
L 2 17.796875 
L 28 17.796875 
L 28 10.59375 
C 28 4 27.59375 3.40625 18.90625 2.703125 
L 18.90625 0 
L 44.5 0 
L 44.5 2.703125 
C 36.40625 3.40625 36 3.90625 36 10.59375 
L 36 17.796875 
z
M 28 22.5 
L 8.296875 22.5 
C 14.90625 33.59375 21.40625 43.09375 27.796875 52 
L 28 52 
z
" id="MinionPro-Regular-52"/>
      </defs>
      <g transform="translate(50.631563 160.748132)scale(0.1 -0.1)">
       <use xlink:href="#MinionPro-Regular-48"/>
       <use x="47.999985" xlink:href="#MinionPro-Regular-46"/>
       <use x="70.799973" xlink:href="#MinionPro-Regular-52"/>
      </g>
     </g>
    </g>
    <g id="ytick_4">
     <g id="line2d_9">
      <g>
       <use style="stroke:#000000;stroke-width:0.8;" x="69.51125" xlink:href="#m71a9ebb7e3" y="134.193214"/>
      </g>
     </g>
     <g id="text_10">
      <!-- 0.6 -->
      <defs>
       <path d="M 13.703125 34.296875 
C 16.703125 48.203125 26 54.5 32.09375 57.40625 
C 35.796875 59.09375 39.703125 60.296875 43 60.90625 
L 42.296875 64.09375 
C 38.296875 63.40625 33.5 62.296875 29.5 60.90625 
C 18.90625 57 3.703125 45.703125 3.703125 23.796875 
C 3.703125 8.40625 12.5 -1.203125 24.203125 -1.203125 
C 36.203125 -1.203125 44.703125 8.90625 44.703125 20.796875 
C 44.703125 31.09375 37.40625 39.296875 26.703125 39.296875 
C 24.703125 39.296875 22.59375 38.59375 20.40625 37.59375 
z
M 22.796875 33.703125 
C 31.90625 33.703125 36.09375 25.5 36.09375 17.203125 
C 36.09375 10.59375 33.703125 2.203125 25.90625 2.203125 
C 17.703125 2.203125 12.59375 12 12.59375 24 
C 12.59375 26.59375 12.703125 29 13.203125 30.90625 
C 15.59375 32.203125 19 33.703125 22.796875 33.703125 
z
" id="MinionPro-Regular-54"/>
      </defs>
      <g transform="translate(50.631563 137.753371)scale(0.1 -0.1)">
       <use xlink:href="#MinionPro-Regular-48"/>
       <use x="47.999985" xlink:href="#MinionPro-Regular-46"/>
       <use x="70.799973" xlink:href="#MinionPro-Regular-54"/>
      </g>
     </g>
    </g>
    <g id="ytick_5">
     <g id="line2d_10">
      <g>
       <use style="stroke:#000000;stroke-width:0.8;" x="69.51125" xlink:href="#m71a9ebb7e3" y="111.198452"/>
      </g>
     </g>
     <g id="text_11">
      <!-- 0.8 -->
      <defs>
       <path d="M 24.796875 63.5 
C 14.09375 63.5 7 55.5 7 47.09375 
C 7 40.09375 11.296875 35.296875 17.796875 31.59375 
C 14.40625 29.40625 10.59375 26.703125 9 25.203125 
C 6.796875 23.09375 4.5 20.296875 4.5 15.703125 
C 4.5 5 13 -1.203125 23.703125 -1.203125 
C 32.203125 -1.203125 43.5 5.203125 43.5 16.90625 
C 43.5 25.59375 37.203125 30.40625 30.296875 34.296875 
C 34.796875 37.40625 37.5 39.796875 38.203125 40.703125 
C 40.09375 42.90625 41.09375 45.796875 41.09375 48.703125 
C 41.09375 56.796875 34.296875 63.5 24.796875 63.5 
z
M 23.796875 60.296875 
C 28.40625 60.296875 33.59375 56.59375 33.59375 48.203125 
C 33.59375 42.203125 30.90625 38.5 27.5 35.796875 
C 20.40625 39.296875 14.5 42.59375 14.5 50 
C 14.5 55.09375 17.90625 60.296875 23.796875 60.296875 
z
M 24.703125 2 
C 18.40625 2 12.5 7.09375 12.5 16.296875 
C 12.5 21.796875 15.90625 26.796875 20.703125 30 
C 28.40625 26.09375 35.5 21.796875 35.5 14.296875 
C 35.5 6.59375 30.796875 2 24.703125 2 
z
" id="MinionPro-Regular-56"/>
      </defs>
      <g transform="translate(50.631563 114.758609)scale(0.1 -0.1)">
       <use xlink:href="#MinionPro-Regular-48"/>
       <use x="47.999985" xlink:href="#MinionPro-Regular-46"/>
       <use x="70.799973" xlink:href="#MinionPro-Regular-56"/>
      </g>
     </g>
    </g>
    <g id="ytick_6">
     <g id="line2d_11">
      <g>
       <use style="stroke:#000000;stroke-width:0.8;" x="69.51125" xlink:href="#m71a9ebb7e3" y="88.20369"/>
      </g>
     </g>
     <g id="text_12">
      <!-- 1.0 -->
      <g transform="translate(50.631563 91.763847)scale(0.1 -0.1)">
       <use xlink:href="#MinionPro-Regular-49"/>
       <use x="47.999985" xlink:href="#MinionPro-Regular-46"/>
       <use x="70.799973" xlink:href="#MinionPro-Regular-48"/>
      </g>
     </g>
    </g>
    <g id="text_13">
     <!-- TPR -->
     <defs>
      <path d="M 59.203125 49.796875 
C 58.703125 55.59375 58.203125 62.90625 58.203125 67.5 
L 56.09375 67.5 
C 54.5 65.59375 53.703125 65 51 65 
L 11.5 65 
C 8.703125 65 7.40625 65.203125 6 67.5 
L 4 67.5 
C 3.796875 62 3.296875 55.5 2.796875 49.5 
L 5.703125 49.5 
C 6.90625 53.90625 7.703125 56.703125 8.90625 58.40625 
C 10.203125 60.703125 12.203125 61.5 20.5 61.5 
L 26.703125 61.5 
L 26.703125 12.296875 
C 26.703125 4.40625 25.90625 3.40625 16.796875 2.796875 
L 16.796875 0 
L 45.5 0 
L 45.5 2.796875 
C 36 3.40625 35.203125 4.40625 35.203125 12.296875 
L 35.203125 61.5 
L 42.296875 61.5 
C 49.796875 61.5 51.5 60.796875 53.09375 58.40625 
C 54.296875 56.796875 55.203125 54.296875 56.296875 49.5 
z
" id="MinionPro-Regular-84"/>
     </defs>
     <g transform="translate(44.231563 151.820937)rotate(-90)scale(0.1 -0.1)">
      <use xlink:href="#MinionPro-Regular-84"/>
      <use x="61.699997" xlink:href="#MinionPro-Regular-80"/>
      <use x="117.999985" xlink:href="#MinionPro-Regular-82"/>
     </g>
    </g>
   </g>
   <g id="line2d_12">
    <path clip-path="url(#pdd995f46a1)" d="M 77.35581 203.1775 
L 77.35581 199.892534 
L 77.35581 196.607568 
L 77.426946 196.607568 
L 77.426946 193.322602 
L 77.498082 193.322602 
L 77.498082 190.037636 
L 77.53365 190.037636 
L 77.53365 186.75267 
L 77.604787 186.75267 
L 77.604787 170.32784 
L 77.853764 170.32784 
L 77.853764 167.042874 
L 77.960468 167.042874 
L 77.960468 163.757908 
L 78.173877 163.757908 
L 78.173877 160.472942 
L 78.245014 160.472942 
L 78.245014 157.187976 
L 78.351718 157.187976 
L 78.351718 153.90301 
L 78.742968 153.90301 
L 78.742968 150.618044 
L 78.814104 150.618044 
L 78.814104 147.333078 
L 78.885241 147.333078 
L 78.885241 144.048112 
L 79.063082 144.048112 
L 79.063082 134.193214 
L 79.66774 134.193214 
L 79.66774 130.908248 
L 80.201263 130.908248 
L 80.201263 127.623282 
L 80.272399 127.623282 
L 80.272399 124.338316 
L 80.556945 124.338316 
L 80.556945 121.05335 
L 80.592513 121.05335 
L 80.592513 117.768384 
L 81.268308 117.768384 
L 81.268308 114.483418 
L 81.375013 114.483418 
L 81.375013 111.198452 
L 136.825787 111.198452 
L 136.825787 107.913486 
L 169.761911 107.913486 
L 169.761911 104.62852 
L 202.057808 104.62852 
L 202.057808 101.343554 
L 203.76508 101.343554 
L 203.76508 98.058588 
L 219.699619 98.058588 
L 219.699619 94.773622 
L 223.825527 94.773622 
L 223.825527 91.488656 
L 227.987003 91.488656 
L 227.987003 88.20369 
L 232.89541 88.20369 
L 234.247 88.20369 
" style="fill:none;stroke:#660099;stroke-linecap:square;stroke-width:3;"/>
   </g>
   <g id="line2d_13">
    <path clip-path="url(#pdd995f46a1)" d="M 77.35581 203.1775 
L 77.889332 183.467704 
L 77.889332 176.897772 
L 78.280582 176.897772 
L 78.280582 173.612806 
L 78.458423 173.612806 
L 78.458423 170.32784 
L 78.671832 170.32784 
L 78.671832 167.042874 
L 78.7074 167.042874 
L 78.7074 163.757908 
L 78.849673 163.757908 
L 78.849673 160.472942 
L 79.312059 160.472942 
L 79.312059 157.187976 
L 79.596604 157.187976 
L 79.596604 153.90301 
L 81.695126 153.90301 
L 81.695126 150.618044 
L 83.864784 150.618044 
L 83.864784 147.333078 
L 84.789557 147.333078 
L 84.789557 144.048112 
L 85.394216 144.048112 
L 85.394216 140.763146 
L 91.90319 140.763146 
L 91.90319 137.47818 
L 94.179553 137.47818 
L 94.179553 134.193214 
L 94.890917 134.193214 
L 94.890917 130.908248 
L 99.906028 130.908248 
L 99.906028 127.623282 
L 102.00455 127.623282 
L 102.00455 124.338316 
L 109.402729 124.338316 
L 109.402729 121.05335 
L 110.647615 121.05335 
L 110.647615 117.768384 
L 120.606702 117.768384 
L 120.606702 114.483418 
L 121.993861 114.483418 
L 121.993861 111.198452 
L 123.914542 111.198452 
L 123.914542 107.913486 
L 126.297609 107.913486 
L 126.297609 104.62852 
L 131.952948 104.62852 
L 131.952948 101.343554 
L 150.341691 101.343554 
L 150.341691 98.058588 
L 168.019071 98.058588 
L 168.019071 94.773622 
L 172.465092 94.773622 
L 172.465092 91.488656 
L 175.310545 91.488656 
L 175.310545 88.20369 
L 232.646433 88.20369 
L 234.247 88.20369 
" style="fill:none;stroke:#3366cc;stroke-linecap:square;stroke-width:3;"/>
   </g>
   <g id="patch_3">
    <path d="M 69.51125 203.1775 
L 69.51125 82.455 
" style="fill:none;stroke:#000000;stroke-linecap:square;stroke-linejoin:miter;stroke-width:0.8;"/>
   </g>
   <g id="patch_4">
    <path d="M 69.51125 203.1775 
L 242.09156 203.1775 
" style="fill:none;stroke:#000000;stroke-linecap:square;stroke-linejoin:miter;stroke-width:0.8;"/>
   </g>
   <g id="text_14">
    <!-- Error rate AUC = 0.84 -->
    <defs>
     <path d="M 51.59375 16.203125 
C 50.296875 12.203125 48.40625 8.796875 46.703125 6.796875 
C 44.5 4.203125 41.703125 3.40625 34.09375 3.40625 
C 29.09375 3.40625 25.59375 3.5 23.703125 4.703125 
C 21.90625 6 21.296875 8.09375 21.296875 12.796875 
L 21.296875 31.703125 
L 30.796875 31.703125 
C 39.5 31.703125 40.203125 31.09375 41.5 23.90625 
L 44.40625 23.90625 
L 44.40625 43.09375 
L 41.5 43.09375 
C 40.203125 36.40625 39.703125 35.59375 30.703125 35.59375 
L 21.296875 35.59375 
L 21.296875 58.296875 
C 21.296875 61.296875 21.5 61.5 24.59375 61.5 
L 32.203125 61.5 
C 39.40625 61.5 42.09375 60.796875 43.5 58.703125 
C 44.796875 56.5 45.796875 54.296875 46.703125 50.09375 
L 49.59375 50.59375 
C 49.296875 55.703125 48.796875 62.5 48.796875 65 
L 4.203125 65 
L 4.203125 62.203125 
C 12 61.5 12.796875 61.203125 12.796875 52.203125 
L 12.796875 12.40625 
C 12.796875 4.296875 12 3.5 2.90625 2.796875 
L 2.90625 0 
L 51.09375 0 
C 52 3.09375 54 12.5 54.59375 15.796875 
z
" id="MinionPro-Regular-69"/>
     <path d="M 18.09375 34.296875 
L 18.09375 45.203125 
C 13.296875 43.09375 8.90625 41.90625 4 41.09375 
L 4 38.90625 
C 9.703125 38.09375 10.203125 37.703125 10.203125 31.09375 
L 10.203125 10.40625 
C 10.203125 3.796875 9.5 3.203125 3.296875 2.59375 
L 3.296875 0 
L 26.296875 0 
L 26.296875 2.59375 
C 18.59375 3.203125 18.09375 3.796875 18.09375 10.40625 
L 18.09375 28.703125 
C 20.296875 34.296875 23.5 37.296875 26.09375 37.296875 
C 27.703125 37.296875 28.90625 36.703125 30.296875 35.203125 
C 30.90625 34.59375 31.796875 34.5 33 35 
C 34.90625 35.90625 36.203125 37.90625 36.203125 39.90625 
C 36.203125 42.296875 33.796875 44.90625 30.40625 44.90625 
C 25.59375 44.90625 21.296875 39.296875 18.296875 34.296875 
z
" id="MinionPro-Regular-114"/>
     <path d="M 25.59375 44.90625 
C 16.5 44.90625 3.703125 37.40625 3.703125 20.90625 
C 3.703125 9.796875 11.90625 -1.203125 25.59375 -1.203125 
C 35.5 -1.203125 47.296875 6.5 47.296875 22.59375 
C 47.296875 35 38 44.90625 25.59375 44.90625 
z
M 24.59375 41.59375 
C 33.296875 41.59375 38 32.09375 38 20.40625 
C 38 6.703125 32.90625 2.09375 26.703125 2.09375 
C 18.5 2.09375 13 11.5 13 24.09375 
C 13 35.40625 18.40625 41.59375 24.59375 41.59375 
z
" id="MinionPro-Regular-111"/>
     <path id="MinionPro-Regular-32"/>
     <path d="M 43.296875 3.90625 
L 42.296875 6.5 
C 41.296875 5.90625 39.90625 5.40625 38.703125 5.40625 
C 37 5.40625 35.203125 6.90625 35.203125 11.40625 
L 35.203125 30 
C 35.203125 35.203125 34.203125 39.296875 30.703125 42.203125 
C 28.5 44 25.5 44.90625 22.5 44.90625 
C 16.796875 43.796875 10.296875 39.90625 7.5 37.90625 
C 5.59375 36.5 4.296875 35.40625 4.296875 33.90625 
C 4.296875 31.59375 6.90625 29.59375 8.703125 29.59375 
C 10.09375 29.59375 11.203125 30.296875 11.59375 31.90625 
C 12.40625 35 13.296875 37.203125 14.59375 38.5 
C 15.59375 39.703125 17.09375 40.5 19.09375 40.5 
C 24.09375 40.5 27.5 36.40625 27.5 29.203125 
L 27.5 27.40625 
C 25.296875 25.59375 18 22.90625 12 20.90625 
C 6.5 19 3.90625 15.90625 3.90625 11 
C 3.90625 4.703125 8.796875 -1.203125 15.90625 -1.203125 
C 18.90625 -1.203125 23.703125 2.5 27.703125 5.203125 
C 28.203125 3.5 28.796875 2.09375 30.09375 0.703125 
C 31.203125 -0.296875 33.296875 -1.203125 34.796875 -1.203125 
z
M 27.5 8.40625 
C 25.59375 6.59375 22.09375 4.90625 19.5 4.796875 
C 16.40625 4.796875 12.40625 7.296875 12.40625 12.5 
C 12.40625 16.09375 14.59375 18 18.5 19.796875 
C 20.59375 20.796875 25.40625 22.90625 27.5 24 
z
" id="MinionPro-Regular-97"/>
     <path d="M 29.796875 3.59375 
L 28.90625 6.203125 
C 27.5 5.5 25.203125 4.5 22.703125 4.5 
C 20.203125 4.5 16.90625 6 16.90625 14.09375 
L 16.90625 39.796875 
L 27.59375 39.796875 
C 28.796875 40.5 29.09375 42.703125 28.203125 43.703125 
L 16.90625 43.703125 
L 16.90625 57.40625 
L 15.5 57.59375 
L 9 51 
L 9 43.703125 
L 4.40625 43.703125 
L 1.703125 40.796875 
L 2.09375 39.796875 
L 9 39.796875 
L 9 10.703125 
C 9 2.796875 12.5 -1.203125 18.796875 -1.203125 
C 19.703125 -1.203125 21.296875 -0.796875 23 0.09375 
z
" id="MinionPro-Regular-116"/>
     <path d="M 37.90625 10.59375 
C 34.296875 7.203125 30.5 5.59375 26.5 5.59375 
C 19.5 5.59375 11.703125 11.203125 11.59375 24.796875 
C 23.5 25.203125 36 26.203125 37.703125 26.5 
C 39.5 26.90625 40 27.703125 40 29.703125 
C 40 37.5 33.296875 44.90625 25 44.90625 
C 19.796875 44.90625 14.40625 42.203125 10.296875 37.59375 
C 6.203125 33.09375 3.703125 27 3.703125 20.09375 
C 3.703125 8.796875 10.90625 -1.203125 23.203125 -1.203125 
C 26.296875 -1.203125 33.203125 0.59375 39.5 8.5 
z
M 22.59375 41.203125 
C 28.09375 41.203125 31.5 36.40625 31.40625 31.203125 
C 31.40625 29.796875 30.796875 29.203125 29 29.203125 
C 23.203125 29 17.703125 28.90625 12.09375 28.90625 
C 13.59375 37 18 41.203125 22.59375 41.203125 
z
" id="MinionPro-Regular-101"/>
     <path d="M 67.296875 0 
L 67.296875 2.796875 
C 60.796875 3.40625 59.5 4.296875 56.296875 12.90625 
C 49.90625 30.296875 43.203125 49.296875 37 66.5 
L 33.90625 65.59375 
L 13.203125 13.09375 
C 9.703125 4.296875 8.296875 3.703125 2 2.796875 
L 2 0 
L 23.703125 0 
L 23.703125 2.796875 
C 16.203125 3.5 15.296875 4.5 17.5 10.796875 
C 18.796875 15 20.296875 19.203125 21.90625 23.703125 
L 43.203125 23.703125 
C 45.40625 17.59375 47.40625 12.203125 48.703125 8.296875 
C 50 4.40625 49.09375 3.59375 42.796875 2.796875 
L 42.796875 0 
z
M 41.796875 28 
L 23.40625 28 
C 26.40625 36.203125 29.59375 44.90625 32.796875 53.5 
L 33 53.5 
z
" id="MinionPro-Regular-65"/>
     <path d="M 71.59375 65 
L 47.796875 65 
L 47.796875 62.203125 
C 54.796875 61.703125 56.90625 60.5 57.5 56.59375 
C 57.90625 53.5 58.203125 49.296875 58.203125 40.09375 
L 58.203125 32.5 
C 58.203125 16 53.703125 4 39.296875 4 
C 26.90625 4 20.5 13.203125 20.5 29.296875 
L 20.5 52.09375 
C 20.5 61.09375 21.296875 61.703125 29.203125 62.203125 
L 29.203125 65 
L 3.296875 65 
L 3.296875 62.203125 
C 11.203125 61.5 12 61.09375 12 52.09375 
L 12 27.09375 
C 12 15.40625 14.796875 7.90625 20.796875 3.296875 
C 25.203125 -0.09375 31 -1.5 36.796875 -1.5 
C 43.40625 -1.5 50.09375 0.59375 54.703125 5.40625 
C 60.5 11.5 62.296875 20 62.296875 31.796875 
L 62.296875 40.09375 
C 62.296875 49.296875 62.5 53.59375 62.796875 56.296875 
C 63.296875 60.40625 65.59375 61.796875 71.59375 62.203125 
z
" id="MinionPro-Regular-85"/>
     <path d="M 61.40625 17.59375 
C 56.40625 7.59375 51 2.09375 40.796875 2.09375 
C 25.59375 2.09375 14.59375 14.90625 14.59375 33.59375 
C 14.59375 48.796875 23.5 62.90625 40.203125 62.90625 
C 51 62.90625 57 58.59375 59.59375 48 
L 62.59375 48.703125 
C 62 54.09375 61.40625 58.09375 60.59375 63.796875 
C 57.796875 64.296875 51 66.5 42.90625 66.5 
C 20.59375 66.5 4.40625 52.59375 4.40625 31.59375 
C 4.40625 15.703125 15.296875 -1.5 40.203125 -1.5 
C 47.40625 -1.5 55.796875 0.5 58.59375 1.203125 
C 60.40625 4.5 62.90625 11.90625 64.296875 16.5 
z
" id="MinionPro-Regular-67"/>
     <path d="M 52.90625 32.09375 
L 52.90625 37.09375 
L 5.203125 37.09375 
L 5.203125 32.09375 
z
M 52.90625 13.796875 
L 52.90625 18.796875 
L 5.203125 18.796875 
L 5.203125 13.796875 
z
" id="MinionPro-Regular-61"/>
    </defs>
    <g style="fill:#660099;" transform="translate(148.852454 188.70525)scale(0.1 -0.1)">
     <use xlink:href="#MinionPro-Regular-69"/>
     <use x="56.799988" xlink:href="#MinionPro-Regular-114"/>
     <use x="93.899979" xlink:href="#MinionPro-Regular-114"/>
     <use x="130.999969" xlink:href="#MinionPro-Regular-111"/>
     <use x="181.999954" xlink:href="#MinionPro-Regular-114"/>
     <use x="219.099945" xlink:href="#MinionPro-Regular-32"/>
     <use x="241.799942" xlink:href="#MinionPro-Regular-114"/>
     <use x="278.899933" xlink:href="#MinionPro-Regular-97"/>
     <use x="322.799927" xlink:href="#MinionPro-Regular-116"/>
     <use x="353.299911" xlink:href="#MinionPro-Regular-101"/>
     <use x="395.799896" xlink:href="#MinionPro-Regular-32"/>
     <use x="418.499893" xlink:href="#MinionPro-Regular-65"/>
     <use x="487.599884" xlink:href="#MinionPro-Regular-85"/>
     <use x="561.199875" xlink:href="#MinionPro-Regular-67"/>
     <use x="627.69986" xlink:href="#MinionPro-Regular-32"/>
     <use x="650.399857" xlink:href="#MinionPro-Regular-61"/>
     <use x="708.399841" xlink:href="#MinionPro-Regular-32"/>
     <use x="731.099838" xlink:href="#MinionPro-Regular-48"/>
     <use x="779.099823" xlink:href="#MinionPro-Regular-46"/>
     <use x="801.899811" xlink:href="#MinionPro-Regular-56"/>
     <use x="849.899796" xlink:href="#MinionPro-Regular-52"/>
    </g>
   </g>
   <g id="text_15">
    <!-- Raw signal AUC = 0.86 -->
    <defs>
     <path d="M 69.59375 43.703125 
L 51.5 43.703125 
L 51.5 41.203125 
C 58 40.296875 58.59375 39.703125 57.296875 34.5 
C 55.5 27.09375 52.703125 18.40625 50.5 11.5 
L 50.296875 11.5 
C 46.09375 22.203125 42 32.796875 38.296875 43.203125 
L 35.703125 43.203125 
C 31.5 31.703125 27.796875 21.40625 24.09375 11.796875 
L 23.90625 11.796875 
C 21.40625 19.5 18.90625 27.40625 16.59375 35.09375 
C 15.09375 39.59375 15.59375 40.203125 21.59375 41.203125 
L 21.59375 43.703125 
L 0.90625 43.703125 
L 0.90625 41.203125 
C 5.703125 40.5 6.59375 39.796875 8.40625 34.59375 
C 12.5 22.59375 16.296875 10.796875 19.90625 -1.09375 
L 22.796875 -1.09375 
C 26.703125 10 30.796875 20 34.59375 30 
C 38.703125 19.5 42.796875 9.703125 46.796875 -1.09375 
L 49.59375 -1.09375 
C 54.203125 12.5 58.59375 25.796875 61.59375 33.703125 
C 63.703125 39.203125 64.59375 40.40625 69.59375 41.203125 
z
" id="MinionPro-Regular-119"/>
     <path d="M 32 32.5 
C 31.703125 35 30.59375 40.90625 29.796875 43.203125 
C 27.703125 44 25 44.90625 20.90625 44.90625 
C 11.703125 44.90625 5.703125 39 5.703125 32 
C 5.703125 24.296875 12.203125 21 18.203125 18.203125 
C 23.203125 15.90625 26.09375 13.5 26.09375 9.09375 
C 26.09375 4.90625 22.703125 2.09375 19 2.09375 
C 13 2.09375 8.5 7.90625 6.703125 14.5 
L 4.09375 14 
C 4.09375 10.40625 5 3.59375 5.703125 2.203125 
C 7.5 0.703125 12.09375 -1.203125 17.203125 -1.203125 
C 25.203125 -1.203125 33.703125 3.5 33.703125 12.59375 
C 33.703125 19.5 28.59375 23.09375 21.09375 26.203125 
C 16.59375 28.09375 12.59375 30.40625 12.59375 34.90625 
C 12.59375 38.796875 15.296875 41.796875 19.09375 41.796875 
C 24 41.796875 27.5 37.796875 29.40625 31.90625 
z
" id="MinionPro-Regular-115"/>
     <path d="M 13.5 53.59375 
C 16.40625 53.59375 18.59375 56 18.59375 58.703125 
C 18.59375 61.703125 16.40625 63.90625 13.59375 63.90625 
C 10.90625 63.90625 8.5 61.703125 8.5 58.703125 
C 8.5 56 10.90625 53.59375 13.5 53.59375 
z
M 25.203125 0 
L 25.203125 2.59375 
C 18.796875 3.203125 18.09375 3.796875 18.09375 10.59375 
L 18.09375 45.09375 
C 13.703125 43.296875 9 42 3.90625 41.203125 
L 3.90625 38.796875 
C 9.90625 37.796875 10.203125 37.40625 10.203125 31.203125 
L 10.203125 10.59375 
C 10.203125 3.796875 9.5 3.203125 3.203125 2.59375 
L 3.203125 0 
z
" id="MinionPro-Regular-105"/>
     <path d="M 46.203125 43.796875 
C 42.59375 43.203125 37.5 42.59375 32.59375 42.40625 
C 29.703125 44 26.40625 44.90625 23 44.90625 
C 15.296875 44.90625 5.09375 39.703125 5.09375 28.296875 
C 5.09375 21.5 9.40625 16.796875 13.90625 14.90625 
C 12.296875 12.90625 9.09375 10.296875 5.09375 8.796875 
C 5 7.796875 5.296875 6.09375 6.203125 4.59375 
C 7.5 2.5 10 0.203125 13.59375 -0.90625 
C 11.203125 -2.703125 7.296875 -5.90625 5.296875 -7.90625 
C 3.796875 -9.40625 2.90625 -11.296875 2.90625 -13.5 
C 3 -19.203125 9.09375 -25.703125 20.203125 -25.703125 
C 33.5 -25.703125 45.203125 -16 45.203125 -5.90625 
C 45.203125 3.90625 37 5.90625 30.796875 5.90625 
C 27.5 5.90625 23.90625 5.796875 20.296875 5.796875 
C 15.796875 5.796875 14 7.703125 14 9.703125 
C 14 11.09375 15.59375 12.90625 17 13.796875 
C 18.59375 13.59375 20.40625 13.296875 22.09375 13.296875 
C 30.59375 13.296875 39.59375 18.5 39.59375 29.296875 
C 39.59375 32.90625 38.5 36 36.59375 38.203125 
L 42.296875 37.90625 
C 43.90625 38.796875 45.90625 41.40625 46.796875 43 
z
M 22 41.90625 
C 27.703125 41.90625 31.40625 36.296875 31.40625 28.40625 
C 31.40625 20.5 27.5 16.59375 23.09375 16.5 
C 17.5 16.5 13.703125 22.09375 13.703125 29.90625 
C 13.703125 37.703125 17.59375 41.90625 22 41.90625 
z
M 24.203125 -1.09375 
C 28.40625 -1.09375 31.296875 -1.40625 33.796875 -2.40625 
C 36.703125 -3.59375 38.40625 -6.09375 38.40625 -9.5 
C 38.40625 -15.703125 33.5 -20.59375 24 -20.59375 
C 16.59375 -20.59375 10.796875 -16.5 10.796875 -11.09375 
C 10.796875 -8.203125 12.796875 -5.40625 15.40625 -3.296875 
C 17.203125 -1.703125 19.40625 -1.09375 24.203125 -1.09375 
z
" id="MinionPro-Regular-103"/>
     <path d="M 52.296875 0 
L 52.296875 2.59375 
C 46.5 3.203125 46 3.59375 46 10.40625 
L 46 29.703125 
C 46 39.40625 41 44.90625 33.09375 44.90625 
C 30.203125 44.90625 27.59375 43.703125 24.796875 41.90625 
C 22.296875 40.203125 20.09375 38.703125 18.09375 37.203125 
L 18.09375 45.203125 
C 13.703125 43.203125 9 42 4.203125 41.09375 
L 4.203125 38.796875 
C 9.59375 37.796875 10.203125 37.5 10.203125 31.09375 
L 10.203125 10.40625 
C 10.203125 3.796875 9.703125 3.296875 2.90625 2.59375 
L 2.90625 0 
L 24.59375 0 
L 24.59375 2.59375 
C 18.703125 3.203125 18.09375 3.59375 18.09375 10.40625 
L 18.09375 33.90625 
C 21.09375 36.5 25 39 29 39 
C 35.703125 39 38.09375 34.5 38.09375 27.59375 
L 38.09375 10.90625 
C 38.09375 4 37.40625 3.203125 31.5 2.59375 
L 31.5 0 
z
" id="MinionPro-Regular-110"/>
     <path d="M 23.796875 0 
L 23.796875 2.59375 
C 17.40625 3.203125 16.59375 3.796875 16.59375 10.40625 
L 16.59375 71.203125 
C 13.203125 70 7 68.296875 1.796875 67.703125 
L 1.796875 65.296875 
C 8.09375 64.796875 8.703125 64.5 8.703125 57.703125 
L 8.703125 10.40625 
C 8.703125 3.796875 7.796875 3.203125 1.5 2.59375 
L 1.5 0 
z
" id="MinionPro-Regular-108"/>
    </defs>
    <g style="fill:#ff0099;" transform="translate(145.289954 198.192737)scale(0.1 -0.1)">
     <use xlink:href="#MinionPro-Regular-82"/>
     <use x="62.099991" xlink:href="#MinionPro-Regular-97"/>
     <use x="105.999985" xlink:href="#MinionPro-Regular-119"/>
     <use x="174.499969" xlink:href="#MinionPro-Regular-32"/>
     <use x="197.199966" xlink:href="#MinionPro-Regular-115"/>
     <use x="233.899963" xlink:href="#MinionPro-Regular-105"/>
     <use x="260.699951" xlink:href="#MinionPro-Regular-103"/>
     <use x="307.499939" xlink:href="#MinionPro-Regular-110"/>
     <use x="362.199936" xlink:href="#MinionPro-Regular-97"/>
     <use x="406.09993" xlink:href="#MinionPro-Regular-108"/>
     <use x="431.399918" xlink:href="#MinionPro-Regular-32"/>
     <use x="454.099915" xlink:href="#MinionPro-Regular-65"/>
     <use x="523.199905" xlink:href="#MinionPro-Regular-85"/>
     <use x="596.799896" xlink:href="#MinionPro-Regular-67"/>
     <use x="663.299881" xlink:href="#MinionPro-Regular-32"/>
     <use x="685.999878" xlink:href="#MinionPro-Regular-61"/>
     <use x="743.999863" xlink:href="#MinionPro-Regular-32"/>
     <use x="766.69986" xlink:href="#MinionPro-Regular-48"/>
     <use x="814.699844" xlink:href="#MinionPro-Regular-46"/>
     <use x="837.499832" xlink:href="#MinionPro-Regular-56"/>
     <use x="885.499817" xlink:href="#MinionPro-Regular-54"/>
    </g>
   </g>
   <g id="text_16">
    <!-- Single Nucleotides -->
    <defs>
     <path d="M 54.59375 21 
Q 54.59375 17 53.1875 13.09375 
Q 51.796875 9.203125 48.546875 6.09375 
Q 45.296875 3 40.09375 1.046875 
Q 34.90625 -0.90625 27.296875 -0.90625 
Q 21.296875 -0.90625 16.75 -0.296875 
Q 12.203125 0.296875 8.40625 1.296875 
Q 7.59375 1.5 7 2 
Q 6.40625 2.5 6.40625 3.296875 
L 6.40625 13.09375 
Q 6.40625 14.203125 6.90625 14.59375 
Q 7.40625 15 8.203125 15 
L 8.5 15 
Q 10 14.796875 12.640625 14.59375 
Q 15.296875 14.40625 18.09375 14.25 
Q 20.90625 14.09375 23.453125 13.9375 
Q 26 13.796875 27.5 13.796875 
Q 32.703125 13.796875 34.546875 15.5 
Q 36.40625 17.203125 36.40625 20.796875 
Q 36.40625 23 35.046875 24.546875 
Q 33.703125 26.09375 29.796875 28.40625 
L 16 36.59375 
Q 12.5 38.703125 10.25 40.890625 
Q 8 43.09375 6.640625 45.5 
Q 5.296875 47.90625 4.75 50.453125 
Q 4.203125 53 4.203125 55.703125 
Q 4.203125 59.796875 5.453125 63.34375 
Q 6.703125 66.90625 9.703125 69.546875 
Q 12.703125 72.203125 17.59375 73.703125 
Q 22.5 75.203125 29.796875 75.203125 
Q 32.5 75.203125 35.640625 75 
Q 38.796875 74.796875 41.6875 74.5 
Q 44.59375 74.203125 47.09375 73.796875 
Q 49.59375 73.40625 51 73 
Q 51.59375 72.796875 52.046875 72.390625 
Q 52.5 72 52.5 71.203125 
L 52.5 61.09375 
Q 52.5 60.40625 52.140625 59.90625 
Q 51.796875 59.40625 50.796875 59.40625 
L 50.59375 59.40625 
Q 49.5 59.5 47.046875 59.640625 
Q 44.59375 59.796875 41.5 60 
Q 38.40625 60.203125 35.15625 60.34375 
Q 31.90625 60.5 29.40625 60.5 
Q 25.09375 60.5 23.34375 59.203125 
Q 21.59375 57.90625 21.59375 55.203125 
Q 21.59375 54.09375 21.890625 53.296875 
Q 22.203125 52.5 22.953125 51.75 
Q 23.703125 51 25 50.140625 
Q 26.296875 49.296875 28.296875 48.203125 
L 41.09375 41.296875 
Q 48.90625 37.09375 51.75 32.09375 
Q 54.59375 27.09375 54.59375 21 
z
" id="NeoSansPro-Bold-83"/>
     <path d="M 23 65.796875 
Q 23 65 22.390625 64.390625 
Q 21.796875 63.796875 21 63.796875 
L 8 63.796875 
Q 7.203125 63.796875 6.59375 64.390625 
Q 6 65 6 65.796875 
L 6 75.09375 
Q 6 75.90625 6.59375 76.5 
Q 7.203125 77.09375 8 77.09375 
L 21 77.09375 
Q 21.796875 77.09375 22.390625 76.5 
Q 23 75.90625 23 75.09375 
z
M 22.59375 2 
Q 22.59375 1.203125 22 0.59375 
Q 21.40625 0 20.59375 0 
L 8.40625 0 
Q 7.59375 0 7 0.59375 
Q 6.40625 1.203125 6.40625 2 
L 6.40625 55.296875 
Q 6.40625 56.09375 7 56.6875 
Q 7.59375 57.296875 8.40625 57.296875 
L 20.59375 57.296875 
Q 21.40625 57.296875 22 56.6875 
Q 22.59375 56.09375 22.59375 55.296875 
z
" id="NeoSansPro-Bold-105"/>
     <path d="M 55.203125 2.09375 
Q 55.203125 1.296875 54.546875 0.640625 
Q 53.90625 0 53.09375 0 
L 41 0 
Q 40.203125 0 39.59375 0.640625 
Q 39 1.296875 39 2.09375 
L 39 35.40625 
Q 39 38 38.703125 39.796875 
Q 38.40625 41.59375 37.59375 42.6875 
Q 36.796875 43.796875 35.34375 44.25 
Q 33.90625 44.703125 31.59375 44.703125 
Q 29.40625 44.703125 27.09375 43.796875 
Q 24.796875 42.90625 22.203125 41.5 
L 22.203125 2.09375 
Q 22.203125 1.296875 21.59375 0.640625 
Q 21 0 20.203125 0 
L 8.09375 0 
Q 7.296875 0 6.640625 0.640625 
Q 6 1.296875 6 2.09375 
L 6 55.296875 
Q 6 56.09375 6.59375 56.6875 
Q 7.203125 57.296875 8 57.296875 
L 19.203125 57.296875 
Q 20 57.296875 20.59375 56.6875 
Q 21.203125 56.09375 21.203125 55.296875 
L 21.203125 52.90625 
Q 25.296875 55.796875 29 56.9375 
Q 32.703125 58.09375 37.5 58.09375 
Q 42.90625 58.09375 46.34375 56.296875 
Q 49.796875 54.5 51.75 51.453125 
Q 53.703125 48.40625 54.453125 44.25 
Q 55.203125 40.09375 55.203125 35.40625 
L 55.203125 2.09375 
z
" id="NeoSansPro-Bold-110"/>
     <path d="M 57.703125 49 
Q 57.703125 47.90625 57.25 47.5 
Q 56.796875 47.09375 55.90625 46.796875 
L 52.796875 45.796875 
Q 53.703125 44.40625 54.34375 42.296875 
Q 55 40.203125 55 38.40625 
L 55 37.59375 
Q 55 27.796875 48.546875 23.34375 
Q 42.09375 18.90625 30.296875 18.90625 
Q 26.796875 18.90625 24.09375 19.34375 
Q 21.40625 19.796875 19.90625 20.40625 
Q 19.09375 19.90625 18.796875 19.34375 
Q 18.5 18.796875 18.5 18.09375 
Q 18.5 16.90625 19.09375 16.296875 
Q 19.703125 15.703125 21.5 15.296875 
L 32.796875 12.796875 
Q 39.296875 11.40625 43.796875 10.046875 
Q 48.296875 8.703125 51.046875 6.953125 
Q 53.796875 5.203125 55 2.75 
Q 56.203125 0.296875 56.203125 -3.296875 
L 56.203125 -4.09375 
Q 56.203125 -20.40625 30 -20.40625 
Q 17.5 -20.40625 11.046875 -16.203125 
Q 4.59375 -12 4.59375 -4.09375 
L 4.59375 -3.296875 
Q 4.59375 -0.203125 6 2.59375 
Q 7.40625 5.40625 10.59375 7.90625 
Q 7.90625 9.40625 6.703125 12.046875 
Q 5.5 14.703125 5.5 17.203125 
Q 5.5 20 6.75 22.09375 
Q 8 24.203125 9.90625 25.703125 
Q 7.5 27.796875 6.390625 31.1875 
Q 5.296875 34.59375 5.296875 37.59375 
L 5.296875 38.40625 
Q 5.296875 46.90625 11.25 52.09375 
Q 17.203125 57.296875 30.296875 57.296875 
L 55.203125 57.296875 
Q 56.296875 57.296875 57 56.546875 
Q 57.703125 55.796875 57.703125 54.703125 
z
M 39.203125 38.40625 
Q 39.203125 41.5 37.390625 43.546875 
Q 35.59375 45.59375 30.296875 45.59375 
Q 25 45.59375 23.09375 43.546875 
Q 21.203125 41.5 21.203125 38.40625 
L 21.203125 37.59375 
Q 21.203125 36.296875 21.546875 35.046875 
Q 21.90625 33.796875 22.90625 32.796875 
Q 23.90625 31.796875 25.65625 31.1875 
Q 27.40625 30.59375 30.296875 30.59375 
Q 35.59375 30.59375 37.390625 32.5 
Q 39.203125 34.40625 39.203125 37.59375 
z
M 39.703125 -3.296875 
Q 39.703125 -2.59375 39.34375 -1.9375 
Q 39 -1.296875 37.890625 -0.6875 
Q 36.796875 -0.09375 34.796875 0.5 
Q 32.796875 1.09375 29.40625 1.90625 
L 22 3.5 
Q 21.09375 2.203125 20.546875 0.75 
Q 20 -0.703125 20 -3.296875 
L 20 -4.09375 
Q 20 -6.703125 22.09375 -7.953125 
Q 24.203125 -9.203125 30 -9.203125 
Q 33.09375 -9.203125 35 -8.84375 
Q 36.90625 -8.5 37.953125 -7.796875 
Q 39 -7.09375 39.34375 -6.140625 
Q 39.703125 -5.203125 39.703125 -4.09375 
z
" id="NeoSansPro-Bold-103"/>
     <path d="M 22.203125 2.09375 
Q 22.203125 1.296875 21.640625 0.640625 
Q 21.09375 0 20.296875 0 
L 8.09375 0 
Q 7.296875 0 6.640625 0.640625 
Q 6 1.296875 6 2.09375 
L 6 74.703125 
Q 6 75.5 6.640625 76.09375 
Q 7.296875 76.703125 8.09375 76.703125 
L 20.296875 76.703125 
Q 21.09375 76.703125 21.640625 76.09375 
Q 22.203125 75.5 22.203125 74.703125 
L 22.203125 2.09375 
z
" id="NeoSansPro-Bold-108"/>
     <path d="M 54.5 26 
Q 54.5 23.59375 52.40625 23.59375 
L 20.5 23.59375 
L 20.5 23.40625 
Q 20.5 21.296875 21 19.296875 
Q 21.5 17.296875 22.703125 15.796875 
Q 23.90625 14.296875 25.84375 13.390625 
Q 27.796875 12.5 30.796875 12.5 
Q 33.203125 12.5 35.890625 12.59375 
Q 38.59375 12.703125 41.25 12.796875 
Q 43.90625 12.90625 46.203125 13.046875 
Q 48.5 13.203125 50 13.40625 
L 50.296875 13.40625 
Q 52.203125 13.40625 52.203125 11.796875 
L 52.203125 4.203125 
Q 52.203125 3 51.796875 2.390625 
Q 51.40625 1.796875 50.09375 1.5 
Q 45.296875 0.296875 40.6875 -0.296875 
Q 36.09375 -0.90625 29.59375 -0.90625 
Q 25.09375 -0.90625 20.59375 0.390625 
Q 16.09375 1.703125 12.5 4.703125 
Q 8.90625 7.703125 6.703125 12.640625 
Q 4.5 17.59375 4.5 24.796875 
L 4.5 31.796875 
Q 4.5 37.796875 6.203125 42.6875 
Q 7.90625 47.59375 11.15625 51 
Q 14.40625 54.40625 19.09375 56.25 
Q 23.796875 58.09375 29.796875 58.09375 
Q 35.90625 58.09375 40.546875 56.09375 
Q 45.203125 54.09375 48.296875 50.59375 
Q 51.40625 47.09375 52.953125 42.296875 
Q 54.5 37.5 54.5 31.796875 
z
M 38.703125 34 
Q 38.703125 39.59375 36.296875 42.34375 
Q 33.90625 45.09375 29.703125 45.09375 
Q 25.5 45.09375 23 42.296875 
Q 20.5 39.5 20.5 34 
L 20.5 33.59375 
L 38.703125 33.59375 
z
" id="NeoSansPro-Bold-101"/>
     <path id="NeoSansPro-Bold-32"/>
     <path d="M 65.90625 3.796875 
Q 65.90625 2.203125 64.75 1.09375 
Q 63.59375 0 62 0 
L 52.203125 0 
Q 50.59375 0 49.390625 0.546875 
Q 48.203125 1.09375 47 3.09375 
L 24.203125 42.5 
Q 23.703125 43.296875 23.296875 43.296875 
Q 22.796875 43.296875 22.796875 42.5 
L 22.796875 2 
Q 22.796875 1.203125 22.1875 0.59375 
Q 21.59375 0 20.796875 0 
L 9 0 
Q 8.203125 0 7.59375 0.59375 
Q 7 1.203125 7 2 
L 7 70.5 
Q 7 72.09375 8.09375 73.1875 
Q 9.203125 74.296875 10.796875 74.296875 
L 20.90625 74.296875 
Q 22.40625 74.296875 23.296875 73.546875 
Q 24.203125 72.796875 25.09375 71.203125 
L 48.796875 30 
Q 49.296875 29.203125 49.59375 29.203125 
Q 50.09375 29.203125 50.09375 30.09375 
L 50.09375 72.40625 
Q 50.09375 73.203125 50.6875 73.75 
Q 51.296875 74.296875 52.09375 74.296875 
L 63.90625 74.296875 
Q 64.703125 74.296875 65.296875 73.75 
Q 65.90625 73.203125 65.90625 72.40625 
L 65.90625 3.796875 
z
" id="NeoSansPro-Bold-78"/>
     <path d="M 55.203125 2 
Q 55.203125 1.203125 54.59375 0.59375 
Q 54 0 53.203125 0 
L 42 0 
Q 41.203125 0 40.59375 0.59375 
Q 40 1.203125 40 2 
L 40 4.40625 
Q 35.90625 1.5 32.203125 0.34375 
Q 28.5 -0.796875 23.703125 -0.796875 
Q 18.296875 -0.796875 14.84375 0.953125 
Q 11.40625 2.703125 9.453125 5.796875 
Q 7.5 8.90625 6.75 13.046875 
Q 6 17.203125 6 21.90625 
L 6 55.203125 
Q 6 56 6.640625 56.640625 
Q 7.296875 57.296875 8.09375 57.296875 
L 20.203125 57.296875 
Q 21 57.296875 21.59375 56.640625 
Q 22.203125 56 22.203125 55.203125 
L 22.203125 21.90625 
Q 22.203125 19.296875 22.5 17.5 
Q 22.796875 15.703125 23.59375 14.59375 
Q 24.40625 13.5 25.84375 13.046875 
Q 27.296875 12.59375 29.59375 12.59375 
Q 31.796875 12.59375 34.09375 13.5 
Q 36.40625 14.40625 39 15.796875 
L 39 55.203125 
Q 39 56 39.59375 56.640625 
Q 40.203125 57.296875 41 57.296875 
L 53.09375 57.296875 
Q 53.90625 57.296875 54.546875 56.640625 
Q 55.203125 56 55.203125 55.203125 
L 55.203125 2 
z
" id="NeoSansPro-Bold-117"/>
     <path d="M 43.203125 2.90625 
Q 43.203125 1.796875 42.703125 1.34375 
Q 42.203125 0.90625 41.09375 0.59375 
Q 39 0.09375 35.640625 -0.40625 
Q 32.296875 -0.90625 27.796875 -0.90625 
Q 17.203125 -0.90625 10.84375 5.59375 
Q 4.5 12.09375 4.5 24.40625 
L 4.5 32.796875 
Q 4.5 45.09375 10.84375 51.59375 
Q 17.203125 58.09375 27.796875 58.09375 
Q 32.296875 58.09375 35.640625 57.59375 
Q 39 57.09375 41.09375 56.59375 
Q 42.203125 56.296875 42.703125 55.84375 
Q 43.203125 55.40625 43.203125 54.296875 
L 43.203125 45.40625 
Q 43.203125 44.59375 42.640625 44.140625 
Q 42.09375 43.703125 41.296875 43.703125 
L 41.09375 43.703125 
Q 38.296875 44 35.75 44.203125 
Q 33.203125 44.40625 28.90625 44.40625 
Q 27.203125 44.40625 25.703125 43.84375 
Q 24.203125 43.296875 23.09375 41.9375 
Q 22 40.59375 21.34375 38.34375 
Q 20.703125 36.09375 20.703125 32.796875 
L 20.703125 24.40625 
Q 20.703125 21.09375 21.34375 18.84375 
Q 22 16.59375 23.09375 15.25 
Q 24.203125 13.90625 25.703125 13.34375 
Q 27.203125 12.796875 28.90625 12.796875 
Q 33.203125 12.796875 35.75 13 
Q 38.296875 13.203125 41.09375 13.5 
L 41.296875 13.5 
Q 42.09375 13.5 42.640625 13.046875 
Q 43.203125 12.59375 43.203125 11.796875 
L 43.203125 2.90625 
z
" id="NeoSansPro-Bold-99"/>
     <path d="M 54.5 25.09375 
Q 54.5 19.09375 52.84375 14.296875 
Q 51.203125 9.5 48.046875 6.140625 
Q 44.90625 2.796875 40.25 0.9375 
Q 35.59375 -0.90625 29.5 -0.90625 
Q 23.40625 -0.90625 18.75 0.9375 
Q 14.09375 2.796875 10.890625 6.140625 
Q 7.703125 9.5 6.046875 14.296875 
Q 4.40625 19.09375 4.40625 25.09375 
L 4.40625 32.09375 
Q 4.40625 38.09375 6.046875 42.890625 
Q 7.703125 47.703125 10.890625 51.046875 
Q 14.09375 54.40625 18.75 56.25 
Q 23.40625 58.09375 29.5 58.09375 
Q 35.59375 58.09375 40.25 56.25 
Q 44.90625 54.40625 48.046875 51.046875 
Q 51.203125 47.703125 52.84375 42.890625 
Q 54.5 38.09375 54.5 32.09375 
z
M 38.40625 32.09375 
Q 38.40625 44.296875 29.5 44.296875 
Q 25.09375 44.296875 22.796875 41.25 
Q 20.5 38.203125 20.5 32.09375 
L 20.5 25.09375 
Q 20.5 19 22.796875 15.890625 
Q 25.09375 12.796875 29.5 12.796875 
Q 38.40625 12.796875 38.40625 25.09375 
z
" id="NeoSansPro-Bold-111"/>
     <path d="M 39 1.90625 
Q 39 0.203125 37.09375 -0.09375 
Q 34.796875 -0.5 33.09375 -0.703125 
Q 31.40625 -0.90625 29.203125 -0.90625 
Q 25.09375 -0.90625 21.9375 -0.25 
Q 18.796875 0.40625 16.6875 2.296875 
Q 14.59375 4.203125 13.5 7.546875 
Q 12.40625 10.90625 12.40625 16.203125 
L 12.40625 45.203125 
L 4.40625 46.5 
Q 3.59375 46.703125 2.9375 47.25 
Q 2.296875 47.796875 2.296875 48.59375 
L 2.296875 55.203125 
Q 2.296875 56 2.9375 56.640625 
Q 3.59375 57.296875 4.40625 57.296875 
L 12.40625 57.296875 
L 12.40625 65.5 
Q 12.40625 66.296875 13 66.796875 
Q 13.59375 67.296875 14.40625 67.5 
L 26.59375 69.59375 
L 26.90625 69.59375 
Q 27.703125 69.59375 28.203125 69.140625 
Q 28.703125 68.703125 28.703125 67.90625 
L 28.703125 57.296875 
L 36.90625 57.296875 
Q 37.703125 57.296875 38.296875 56.6875 
Q 38.90625 56.09375 38.90625 55.296875 
L 38.90625 47.203125 
Q 38.90625 46.40625 38.296875 45.796875 
Q 37.703125 45.203125 36.90625 45.203125 
L 28.703125 45.203125 
L 28.703125 16.09375 
Q 28.703125 13.09375 29.203125 12.25 
Q 29.703125 11.40625 32 11.40625 
L 36.90625 11.40625 
Q 39 11.40625 39 9.703125 
L 39 1.90625 
z
" id="NeoSansPro-Bold-116"/>
     <path d="M 53.703125 4.59375 
Q 53.703125 3.40625 53.140625 2.796875 
Q 52.59375 2.203125 50.59375 1.703125 
Q 46.296875 0.59375 40.6875 -0.15625 
Q 35.09375 -0.90625 29.296875 -0.90625 
Q 17.09375 -0.90625 10.640625 5.796875 
Q 4.203125 12.5 4.203125 24.703125 
L 4.203125 32.5 
Q 4.203125 44.296875 10.390625 51.1875 
Q 16.59375 58.09375 29.296875 58.09375 
Q 30.796875 58.09375 33.046875 57.890625 
Q 35.296875 57.703125 37.5 57.40625 
L 37.5 74.703125 
Q 37.5 75.5 38.09375 76.09375 
Q 38.703125 76.703125 39.5 76.703125 
L 51.59375 76.703125 
Q 52.40625 76.703125 53.046875 76.09375 
Q 53.703125 75.5 53.703125 74.703125 
z
M 37.5 44.203125 
Q 35.703125 44.40625 33.390625 44.546875 
Q 31.09375 44.703125 29.296875 44.703125 
Q 26.59375 44.703125 24.890625 43.796875 
Q 23.203125 42.90625 22.203125 41.25 
Q 21.203125 39.59375 20.796875 37.34375 
Q 20.40625 35.09375 20.40625 32.5 
L 20.40625 24.703125 
Q 20.40625 22 20.796875 19.75 
Q 21.203125 17.5 22.203125 15.84375 
Q 23.203125 14.203125 24.890625 13.296875 
Q 26.59375 12.40625 29.296875 12.40625 
Q 31.796875 12.40625 33.9375 12.59375 
Q 36.09375 12.796875 37.5 13 
z
" id="NeoSansPro-Bold-100"/>
     <path d="M 46.09375 15.90625 
Q 46.09375 12.40625 44.796875 9.296875 
Q 43.5 6.203125 40.84375 3.953125 
Q 38.203125 1.703125 34.203125 0.390625 
Q 30.203125 -0.90625 24.703125 -0.90625 
Q 22.59375 -0.90625 20.25 -0.75 
Q 17.90625 -0.59375 15.453125 -0.296875 
Q 13 0 10.703125 0.390625 
Q 8.40625 0.796875 6.5 1.296875 
Q 4.59375 1.796875 4.59375 3.59375 
L 4.59375 11.703125 
Q 4.59375 12.5 5.09375 13.046875 
Q 5.59375 13.59375 6.5 13.59375 
L 6.90625 13.59375 
Q 8.90625 13.296875 11.34375 13.046875 
Q 13.796875 12.796875 16.1875 12.59375 
Q 18.59375 12.40625 20.640625 12.296875 
Q 22.703125 12.203125 23.90625 12.203125 
Q 27.5 12.203125 28.640625 13.140625 
Q 29.796875 14.09375 29.796875 16.09375 
Q 29.796875 17.203125 29 18.140625 
Q 28.203125 19.09375 26.09375 20.296875 
L 13.09375 27.796875 
Q 8.90625 30.203125 6.546875 33.953125 
Q 4.203125 37.703125 4.203125 42.59375 
Q 4.203125 50.203125 9.25 54.140625 
Q 14.296875 58.09375 24.703125 58.09375 
Q 30.59375 58.09375 34.640625 57.4375 
Q 38.703125 56.796875 42.5 55.796875 
Q 44.40625 55.296875 44.40625 53.5 
L 44.40625 45.40625 
Q 44.40625 43.5 42.703125 43.5 
L 42.40625 43.5 
Q 41.296875 43.59375 39.296875 43.84375 
Q 37.296875 44.09375 34.9375 44.296875 
Q 32.59375 44.5 30.140625 44.640625 
Q 27.703125 44.796875 25.796875 44.796875 
Q 22.90625 44.796875 21.703125 44.1875 
Q 20.5 43.59375 20.5 41.90625 
Q 20.5 40.796875 21.296875 40.046875 
Q 22.09375 39.296875 23.59375 38.40625 
L 36 31.296875 
Q 39.09375 29.5 41.046875 27.640625 
Q 43 25.796875 44.140625 23.84375 
Q 45.296875 21.90625 45.6875 19.90625 
Q 46.09375 17.90625 46.09375 15.90625 
z
" id="NeoSansPro-Bold-115"/>
    </defs>
    <g transform="translate(69.51125 76.455)scale(0.12 -0.12)">
     <use xlink:href="#NeoSansPro-Bold-83"/>
     <use x="58.799988" xlink:href="#NeoSansPro-Bold-105"/>
     <use x="87.799973" xlink:href="#NeoSansPro-Bold-110"/>
     <use x="148.999969" xlink:href="#NeoSansPro-Bold-103"/>
     <use x="208.899963" xlink:href="#NeoSansPro-Bold-108"/>
     <use x="237.09996" xlink:href="#NeoSansPro-Bold-101"/>
     <use x="296.099945" xlink:href="#NeoSansPro-Bold-32"/>
     <use x="322.09993" xlink:href="#NeoSansPro-Bold-78"/>
     <use x="394.999924" xlink:href="#NeoSansPro-Bold-117"/>
     <use x="456.199921" xlink:href="#NeoSansPro-Bold-99"/>
     <use x="503.599915" xlink:href="#NeoSansPro-Bold-108"/>
     <use x="531.799911" xlink:href="#NeoSansPro-Bold-101"/>
     <use x="590.799896" xlink:href="#NeoSansPro-Bold-111"/>
     <use x="649.66864" xlink:href="#NeoSansPro-Bold-116"/>
     <use x="691.768631" xlink:href="#NeoSansPro-Bold-105"/>
     <use x="720.768616" xlink:href="#NeoSansPro-Bold-100"/>
     <use x="780.468613" xlink:href="#NeoSansPro-Bold-101"/>
     <use x="839.468597" xlink:href="#NeoSansPro-Bold-115"/>
    </g>
   </g>
  </g>
  <g id="axes_2">
   <g id="patch_5">
    <path d="M 266.677917 203.1775 
L 439.258226 203.1775 
L 439.258226 82.455 
L 266.677917 82.455 
z
" style="fill:none;"/>
   </g>
   <g id="matplotlib.axis_3">
    <g id="xtick_6">
     <g id="line2d_14">
      <g>
       <use style="stroke:#000000;stroke-width:0.8;" x="274.522476" xlink:href="#m3e3b115449" y="203.1775"/>
      </g>
     </g>
     <g id="text_17">
      <!-- 0.00 -->
      <g transform="translate(266.182632 217.297812)scale(0.1 -0.1)">
       <use xlink:href="#MinionPro-Regular-48"/>
       <use x="47.999985" xlink:href="#MinionPro-Regular-46"/>
       <use x="70.799973" xlink:href="#MinionPro-Regular-48"/>
       <use x="118.799957" xlink:href="#MinionPro-Regular-48"/>
      </g>
     </g>
    </g>
    <g id="xtick_7">
     <g id="line2d_15">
      <g>
       <use style="stroke:#000000;stroke-width:0.8;" x="313.745274" xlink:href="#m3e3b115449" y="203.1775"/>
      </g>
     </g>
     <g id="text_18">
      <!-- 0.25 -->
      <g transform="translate(305.40543 217.297812)scale(0.1 -0.1)">
       <use xlink:href="#MinionPro-Regular-48"/>
       <use x="47.999985" xlink:href="#MinionPro-Regular-46"/>
       <use x="70.799973" xlink:href="#MinionPro-Regular-50"/>
       <use x="118.799957" xlink:href="#MinionPro-Regular-53"/>
      </g>
     </g>
    </g>
    <g id="xtick_8">
     <g id="line2d_16">
      <g>
       <use style="stroke:#000000;stroke-width:0.8;" x="352.968072" xlink:href="#m3e3b115449" y="203.1775"/>
      </g>
     </g>
     <g id="text_19">
      <!-- 0.50 -->
      <g transform="translate(344.628228 217.297812)scale(0.1 -0.1)">
       <use xlink:href="#MinionPro-Regular-48"/>
       <use x="47.999985" xlink:href="#MinionPro-Regular-46"/>
       <use x="70.799973" xlink:href="#MinionPro-Regular-53"/>
       <use x="118.799957" xlink:href="#MinionPro-Regular-48"/>
      </g>
     </g>
    </g>
    <g id="xtick_9">
     <g id="line2d_17">
      <g>
       <use style="stroke:#000000;stroke-width:0.8;" x="392.190869" xlink:href="#m3e3b115449" y="203.1775"/>
      </g>
     </g>
     <g id="text_20">
      <!-- 0.75 -->
      <g transform="translate(383.851025 217.297812)scale(0.1 -0.1)">
       <use xlink:href="#MinionPro-Regular-48"/>
       <use x="47.999985" xlink:href="#MinionPro-Regular-46"/>
       <use x="70.799973" xlink:href="#MinionPro-Regular-55"/>
       <use x="118.799957" xlink:href="#MinionPro-Regular-53"/>
      </g>
     </g>
    </g>
    <g id="xtick_10">
     <g id="line2d_18">
      <g>
       <use style="stroke:#000000;stroke-width:0.8;" x="431.413667" xlink:href="#m3e3b115449" y="203.1775"/>
      </g>
     </g>
     <g id="text_21">
      <!-- 1.00 -->
      <g transform="translate(423.073823 217.297812)scale(0.1 -0.1)">
       <use xlink:href="#MinionPro-Regular-49"/>
       <use x="47.999985" xlink:href="#MinionPro-Regular-46"/>
       <use x="70.799973" xlink:href="#MinionPro-Regular-48"/>
       <use x="118.799957" xlink:href="#MinionPro-Regular-48"/>
      </g>
     </g>
    </g>
    <g id="text_22">
     <!-- FPR -->
     <g transform="translate(344.403228 230.818125)scale(0.1 -0.1)">
      <use xlink:href="#MinionPro-Regular-70"/>
      <use x="52.899994" xlink:href="#MinionPro-Regular-80"/>
      <use x="109.199982" xlink:href="#MinionPro-Regular-82"/>
     </g>
    </g>
   </g>
   <g id="matplotlib.axis_4">
    <g id="ytick_7">
     <g id="line2d_19">
      <g>
       <use style="stroke:#000000;stroke-width:0.8;" x="266.677917" xlink:href="#m71a9ebb7e3" y="203.1775"/>
      </g>
     </g>
    </g>
    <g id="ytick_8">
     <g id="line2d_20">
      <g>
       <use style="stroke:#000000;stroke-width:0.8;" x="266.677917" xlink:href="#m71a9ebb7e3" y="180.182738"/>
      </g>
     </g>
    </g>
    <g id="ytick_9">
     <g id="line2d_21">
      <g>
       <use style="stroke:#000000;stroke-width:0.8;" x="266.677917" xlink:href="#m71a9ebb7e3" y="157.187976"/>
      </g>
     </g>
    </g>
    <g id="ytick_10">
     <g id="line2d_22">
      <g>
       <use style="stroke:#000000;stroke-width:0.8;" x="266.677917" xlink:href="#m71a9ebb7e3" y="134.193214"/>
      </g>
     </g>
    </g>
    <g id="ytick_11">
     <g id="line2d_23">
      <g>
       <use style="stroke:#000000;stroke-width:0.8;" x="266.677917" xlink:href="#m71a9ebb7e3" y="111.198452"/>
      </g>
     </g>
    </g>
    <g id="ytick_12">
     <g id="line2d_24">
      <g>
       <use style="stroke:#000000;stroke-width:0.8;" x="266.677917" xlink:href="#m71a9ebb7e3" y="88.20369"/>
      </g>
     </g>
    </g>
   </g>
   <g id="line2d_25">
    <path clip-path="url(#p182e920b6e)" d="M 274.522476 203.1775 
L 274.522476 199.129126 
L 274.887339 199.129126 
L 274.887339 195.080753 
L 275.069771 195.080753 
L 275.17923 193.461403 
L 275.215716 181.316283 
L 275.252203 181.316283 
L 275.471121 181.316283 
L 275.471121 175.64856 
L 275.690039 175.64856 
L 275.799498 171.600186 
L 275.981929 171.600186 
L 275.981929 166.742138 
L 276.164361 166.742138 
L 276.27382 164.313114 
L 276.857601 164.313114 
L 276.857601 160.26474 
L 277.222464 160.26474 
L 277.25895 157.026041 
L 278.06165 157.026041 
L 278.134622 152.167993 
L 278.317054 152.167993 
L 278.35354 151.358318 
L 280.287315 151.358318 
L 280.287315 147.309945 
L 282.330549 147.309945 
L 282.403522 140.022872 
L 282.585954 140.022872 
L 282.585954 135.974499 
L 283.826489 135.974499 
L 283.826489 134.355149 
L 285.139996 134.355149 
L 285.212969 131.926125 
L 285.79675 131.926125 
L 285.79675 131.11645 
L 285.833236 131.11645 
L 286.48999 131.11645 
L 286.48999 130.306776 
L 287.730525 130.306776 
L 287.730525 128.687426 
L 287.839984 128.687426 
L 291.962939 128.687426 
L 291.962939 124.639053 
L 293.312933 124.639053 
L 293.312933 123.829378 
L 296.341298 123.829378 
L 296.341298 120.590679 
L 296.633188 120.590679 
L 296.706161 119.781004 
L 296.888592 119.781004 
L 296.888592 118.97133 
L 298.348045 118.97133 
L 298.348045 117.35198 
L 302.799377 117.35198 
L 302.799377 116.542305 
L 302.981808 116.542305 
L 302.981808 112.493932 
L 303.273699 112.493932 
L 303.419644 109.255233 
L 307.870976 109.255233 
L 307.943948 106.826209 
L 308.81962 106.826209 
L 308.929079 106.016534 
L 311.884471 106.016534 
L 311.884471 105.206859 
L 311.99393 105.206859 
L 312.431766 105.206859 
L 312.431766 104.397185 
L 312.504739 104.397185 
L 312.906088 104.397185 
L 312.906088 103.58751 
L 315.533104 103.58751 
L 315.533104 101.968161 
L 315.56959 101.968161 
L 323.341177 101.968161 
L 323.523609 99.539136 
L 331.441141 99.539136 
L 331.441141 97.110112 
L 332.134381 97.110112 
L 332.280326 96.300438 
L 337.935706 96.300438 
L 337.935706 95.490763 
L 342.350551 95.490763 
L 342.423524 94.681088 
L 374.093653 94.681088 
L 374.203112 93.871413 
L 375.917969 93.871413 
L 376.136887 92.252064 
L 383.032802 92.252064 
L 383.288206 91.442389 
L 418.533995 91.442389 
L 418.716426 90.632715 
L 425.648828 90.632715 
L 425.648828 89.82304 
L 428.129898 89.82304 
L 428.129898 89.013365 
L 428.239357 89.013365 
L 428.713679 89.013365 
L 428.713679 88.20369 
L 431.413667 88.20369 
L 431.413667 88.20369 
" style="fill:none;stroke:#ff0099;stroke-linecap:square;stroke-width:3;"/>
   </g>
   <g id="line2d_26">
    <path clip-path="url(#p182e920b6e)" d="M 274.522476 203.1775 
L 275.325175 160.26474 
L 275.361662 154.597017 
L 275.58058 154.597017 
L 275.690039 147.309945 
L 276.054902 147.309945 
L 276.164361 146.50027 
L 277.368409 146.50027 
L 277.368409 142.451896 
L 279.192726 142.451896 
L 279.229212 139.213198 
L 279.995425 139.213198 
L 279.995425 135.164824 
L 280.54272 135.164824 
L 280.54272 131.11645 
L 280.579206 131.11645 
L 282.184604 131.11645 
L 282.294063 130.306776 
L 287.548094 130.306776 
L 287.58458 129.497101 
L 288.131875 129.497101 
L 288.27782 127.068077 
L 292.072398 127.068077 
L 292.072398 126.258402 
L 292.14537 126.258402 
L 292.473747 126.258402 
L 292.473747 125.448727 
L 292.54672 125.448727 
L 293.23996 125.448727 
L 293.458878 124.639053 
L 295.42914 124.639053 
L 295.42914 120.590679 
L 296.12238 120.590679 
L 296.158866 119.781004 
L 297.618319 119.781004 
L 297.654805 117.35198 
L 303.56559 117.35198 
L 303.711535 116.542305 
L 303.820994 113.303607 
L 321.62632 113.303607 
L 321.699292 110.064908 
L 331.404654 110.064908 
L 331.441141 108.445558 
L 332.900594 108.445558 
L 333.083025 107.635884 
L 333.812752 107.635884 
L 333.812752 106.826209 
L 339.650563 106.826209 
L 339.650563 102.777835 
L 349.355926 102.777835 
L 349.465384 99.539136 
L 353.843743 99.539136 
L 353.843743 98.729462 
L 353.88023 98.729462 
L 359.13426 98.729462 
L 359.316692 97.110112 
L 370.372048 97.110112 
L 370.372048 95.490763 
L 370.481507 95.490763 
L 375.11527 95.490763 
L 375.11527 94.681088 
L 378.253094 94.681088 
L 378.253094 92.252064 
L 378.28958 92.252064 
L 388.651696 92.252064 
L 388.651696 89.82304 
L 388.688182 89.82304 
L 419.227235 89.82304 
L 419.336694 89.013365 
L 421.525873 89.013365 
L 421.525873 88.20369 
L 421.56236 88.20369 
L 431.413667 88.20369 
L 431.413667 88.20369 
" style="fill:none;stroke:#ff9900;stroke-linecap:square;stroke-width:3;"/>
   </g>
   <g id="patch_6">
    <path d="M 266.677917 203.1775 
L 266.677917 82.455 
" style="fill:none;stroke:#000000;stroke-linecap:square;stroke-linejoin:miter;stroke-width:0.8;"/>
   </g>
   <g id="patch_7">
    <path d="M 266.677917 203.1775 
L 439.258226 203.1775 
" style="fill:none;stroke:#000000;stroke-linecap:square;stroke-linejoin:miter;stroke-width:0.8;"/>
   </g>
   <g id="text_23">
    <!-- Error rate AUC = 0.88 -->
    <g style="fill:#660099;" transform="translate(346.01912 188.70525)scale(0.1 -0.1)">
     <use xlink:href="#MinionPro-Regular-69"/>
     <use x="56.799988" xlink:href="#MinionPro-Regular-114"/>
     <use x="93.899979" xlink:href="#MinionPro-Regular-114"/>
     <use x="130.999969" xlink:href="#MinionPro-Regular-111"/>
     <use x="181.999954" xlink:href="#MinionPro-Regular-114"/>
     <use x="219.099945" xlink:href="#MinionPro-Regular-32"/>
     <use x="241.799942" xlink:href="#MinionPro-Regular-114"/>
     <use x="278.899933" xlink:href="#MinionPro-Regular-97"/>
     <use x="322.799927" xlink:href="#MinionPro-Regular-116"/>
     <use x="353.299911" xlink:href="#MinionPro-Regular-101"/>
     <use x="395.799896" xlink:href="#MinionPro-Regular-32"/>
     <use x="418.499893" xlink:href="#MinionPro-Regular-65"/>
     <use x="487.599884" xlink:href="#MinionPro-Regular-85"/>
     <use x="561.199875" xlink:href="#MinionPro-Regular-67"/>
     <use x="627.69986" xlink:href="#MinionPro-Regular-32"/>
     <use x="650.399857" xlink:href="#MinionPro-Regular-61"/>
     <use x="708.399841" xlink:href="#MinionPro-Regular-32"/>
     <use x="731.099838" xlink:href="#MinionPro-Regular-48"/>
     <use x="779.099823" xlink:href="#MinionPro-Regular-46"/>
     <use x="801.899811" xlink:href="#MinionPro-Regular-56"/>
     <use x="849.899796" xlink:href="#MinionPro-Regular-56"/>
    </g>
   </g>
   <g id="text_24">
    <!-- Raw signal AUC = 0.86 -->
    <g style="fill:#ff0099;" transform="translate(342.45662 198.192737)scale(0.1 -0.1)">
     <use xlink:href="#MinionPro-Regular-82"/>
     <use x="62.099991" xlink:href="#MinionPro-Regular-97"/>
     <use x="105.999985" xlink:href="#MinionPro-Regular-119"/>
     <use x="174.499969" xlink:href="#MinionPro-Regular-32"/>
     <use x="197.199966" xlink:href="#MinionPro-Regular-115"/>
     <use x="233.899963" xlink:href="#MinionPro-Regular-105"/>
     <use x="260.699951" xlink:href="#MinionPro-Regular-103"/>
     <use x="307.499939" xlink:href="#MinionPro-Regular-110"/>
     <use x="362.199936" xlink:href="#MinionPro-Regular-97"/>
     <use x="406.09993" xlink:href="#MinionPro-Regular-108"/>
     <use x="431.399918" xlink:href="#MinionPro-Regular-32"/>
     <use x="454.099915" xlink:href="#MinionPro-Regular-65"/>
     <use x="523.199905" xlink:href="#MinionPro-Regular-85"/>
     <use x="596.799896" xlink:href="#MinionPro-Regular-67"/>
     <use x="663.299881" xlink:href="#MinionPro-Regular-32"/>
     <use x="685.999878" xlink:href="#MinionPro-Regular-61"/>
     <use x="743.999863" xlink:href="#MinionPro-Regular-32"/>
     <use x="766.69986" xlink:href="#MinionPro-Regular-48"/>
     <use x="814.699844" xlink:href="#MinionPro-Regular-46"/>
     <use x="837.499832" xlink:href="#MinionPro-Regular-56"/>
     <use x="885.499817" xlink:href="#MinionPro-Regular-54"/>
    </g>
   </g>
   <g id="text_25">
    <!-- 5-mers -->
    <defs>
     <path d="M 56.59375 23.59375 
Q 56.59375 11.703125 49.6875 5.390625 
Q 42.796875 -0.90625 29.59375 -0.90625 
Q 24.796875 -0.90625 19.546875 -0.15625 
Q 14.296875 0.59375 9.90625 2 
Q 9.09375 2.203125 8.5 2.640625 
Q 7.90625 3.09375 7.90625 4.203125 
L 7.90625 12.09375 
Q 7.90625 12.90625 8.40625 13.40625 
Q 8.90625 13.90625 9.703125 13.90625 
L 9.90625 13.90625 
Q 12.296875 13.59375 14.84375 13.390625 
Q 17.40625 13.203125 19.84375 13.046875 
Q 22.296875 12.90625 24.390625 12.796875 
Q 26.5 12.703125 27.90625 12.703125 
Q 31.5 12.703125 33.703125 13.453125 
Q 35.90625 14.203125 37.203125 15.59375 
Q 38.5 17 38.953125 19 
Q 39.40625 21 39.40625 23.59375 
L 39.40625 24.40625 
Q 39.40625 26.90625 38.75 28.65625 
Q 38.09375 30.40625 36.4375 31.5 
Q 34.796875 32.59375 32.09375 33.09375 
Q 29.40625 33.59375 25.203125 33.59375 
L 9.703125 33.59375 
Q 9.09375 33.59375 8.6875 34.046875 
Q 8.296875 34.5 8.296875 35 
L 8.296875 35.09375 
L 11.40625 72.40625 
Q 11.5 73.203125 12.046875 73.75 
Q 12.59375 74.296875 13.40625 74.296875 
L 52.296875 74.296875 
Q 53.09375 74.296875 53.6875 73.75 
Q 54.296875 73.203125 54.296875 72.40625 
L 54.296875 62.40625 
Q 54.296875 61.59375 53.6875 61.046875 
Q 53.09375 60.5 52.296875 60.5 
L 25.09375 60.5 
L 23.90625 46.703125 
L 26.796875 46.703125 
Q 33.296875 46.703125 38.75 45.640625 
Q 44.203125 44.59375 48.203125 42.046875 
Q 52.203125 39.5 54.390625 35.203125 
Q 56.59375 30.90625 56.59375 24.40625 
L 56.59375 23.59375 
z
" id="NeoSansPro-Bold-53"/>
     <path d="M 26.796875 26.40625 
Q 26.796875 25.59375 26.1875 25.09375 
Q 25.59375 24.59375 24.796875 24.59375 
L 5.40625 24.59375 
Q 4.59375 24.59375 4 25.09375 
Q 3.40625 25.59375 3.40625 26.40625 
L 3.40625 34.40625 
Q 3.40625 35.203125 4 35.75 
Q 4.59375 36.296875 5.40625 36.296875 
L 24.796875 36.296875 
Q 25.59375 36.296875 26.1875 35.75 
Q 26.796875 35.203125 26.796875 34.40625 
L 26.796875 26.40625 
z
" id="NeoSansPro-Bold-45"/>
     <path d="M 81.5 2.09375 
Q 81.5 1.296875 80.84375 0.640625 
Q 80.203125 0 79.40625 0 
L 67.296875 0 
Q 66.5 0 65.890625 0.640625 
Q 65.296875 1.296875 65.296875 2.09375 
L 65.296875 36.203125 
Q 65.296875 41 64 42.75 
Q 62.703125 44.5 59.203125 44.5 
Q 57.90625 44.5 55.84375 44.140625 
Q 53.796875 43.796875 51.5 42.703125 
Q 51.796875 39.703125 51.796875 36.203125 
L 51.796875 2.09375 
Q 51.796875 1.296875 51.1875 0.640625 
Q 50.59375 0 49.796875 0 
L 37.703125 0 
Q 36.90625 0 36.25 0.640625 
Q 35.59375 1.296875 35.59375 2.09375 
L 35.59375 36.203125 
Q 35.59375 41 34.4375 42.75 
Q 33.296875 44.5 29.796875 44.5 
Q 28.40625 44.5 26.453125 43.796875 
Q 24.5 43.09375 22.203125 41.90625 
L 22.203125 2.09375 
Q 22.203125 1.296875 21.59375 0.640625 
Q 21 0 20.203125 0 
L 8.09375 0 
Q 7.296875 0 6.640625 0.640625 
Q 6 1.296875 6 2.09375 
L 6 55.296875 
Q 6 56.09375 6.59375 56.6875 
Q 7.203125 57.296875 8 57.296875 
L 19.40625 57.296875 
Q 20.203125 57.296875 20.796875 56.6875 
Q 21.40625 56.09375 21.40625 55.296875 
L 21.40625 53.09375 
Q 24.59375 55.203125 28.1875 56.640625 
Q 31.796875 58.09375 36.203125 58.09375 
Q 40.203125 58.09375 43.046875 56.9375 
Q 45.90625 55.796875 48 53.203125 
Q 50.203125 54.40625 52.09375 55.34375 
Q 54 56.296875 55.890625 56.890625 
Q 57.796875 57.5 59.84375 57.796875 
Q 61.90625 58.09375 64.296875 58.09375 
Q 69.203125 58.09375 72.546875 56.5 
Q 75.90625 54.90625 77.84375 52.046875 
Q 79.796875 49.203125 80.640625 45.140625 
Q 81.5 41.09375 81.5 36.203125 
L 81.5 2.09375 
z
" id="NeoSansPro-Bold-109"/>
     <path d="M 37.40625 46.59375 
Q 37.40625 45.90625 37 45.296875 
Q 36.59375 44.703125 35.90625 44.703125 
L 35.09375 44.703125 
Q 31.40625 44.703125 28.203125 43.703125 
Q 25 42.703125 22.203125 41.203125 
L 22.203125 2.09375 
Q 22.203125 1.296875 21.59375 0.640625 
Q 21 0 20.203125 0 
L 8.09375 0 
Q 7.296875 0 6.640625 0.640625 
Q 6 1.296875 6 2.09375 
L 6 55.296875 
Q 6 56.09375 6.59375 56.6875 
Q 7.203125 57.296875 8 57.296875 
L 19.90625 57.296875 
Q 20.703125 57.296875 21.296875 56.6875 
Q 21.90625 56.09375 21.90625 55.296875 
L 21.90625 53.296875 
Q 24.703125 55.59375 28.25 56.84375 
Q 31.796875 58.09375 35.40625 58.09375 
Q 36.203125 58.09375 36.796875 57.5 
Q 37.40625 56.90625 37.40625 56.09375 
L 37.40625 46.59375 
z
" id="NeoSansPro-Bold-114"/>
    </defs>
    <g transform="translate(266.677917 76.455)scale(0.12 -0.12)">
     <use xlink:href="#NeoSansPro-Bold-53"/>
     <use x="64.499985" xlink:href="#NeoSansPro-Bold-45"/>
     <use x="94.699982" xlink:href="#NeoSansPro-Bold-109"/>
     <use x="182.199966" xlink:href="#NeoSansPro-Bold-101"/>
     <use x="241.199951" xlink:href="#NeoSansPro-Bold-114"/>
     <use x="280.799942" xlink:href="#NeoSansPro-Bold-115"/>
    </g>
   </g>
  </g>
  <g id="axes_3">
   <g id="patch_8">
    <path d="M 463.844583 203.1775 
L 636.424893 203.1775 
L 636.424893 82.455 
L 463.844583 82.455 
z
" style="fill:none;"/>
   </g>
   <g id="matplotlib.axis_5">
    <g id="xtick_11">
     <g id="line2d_27">
      <g>
       <use style="stroke:#000000;stroke-width:0.8;" x="471.689143" xlink:href="#m3e3b115449" y="203.1775"/>
      </g>
     </g>
     <g id="text_26">
      <!-- 0.00 -->
      <g transform="translate(463.349299 217.297812)scale(0.1 -0.1)">
       <use xlink:href="#MinionPro-Regular-48"/>
       <use x="47.999985" xlink:href="#MinionPro-Regular-46"/>
       <use x="70.799973" xlink:href="#MinionPro-Regular-48"/>
       <use x="118.799957" xlink:href="#MinionPro-Regular-48"/>
      </g>
     </g>
    </g>
    <g id="xtick_12">
     <g id="line2d_28">
      <g>
       <use style="stroke:#000000;stroke-width:0.8;" x="510.911941" xlink:href="#m3e3b115449" y="203.1775"/>
      </g>
     </g>
     <g id="text_27">
      <!-- 0.25 -->
      <g transform="translate(502.572097 217.297812)scale(0.1 -0.1)">
       <use xlink:href="#MinionPro-Regular-48"/>
       <use x="47.999985" xlink:href="#MinionPro-Regular-46"/>
       <use x="70.799973" xlink:href="#MinionPro-Regular-50"/>
       <use x="118.799957" xlink:href="#MinionPro-Regular-53"/>
      </g>
     </g>
    </g>
    <g id="xtick_13">
     <g id="line2d_29">
      <g>
       <use style="stroke:#000000;stroke-width:0.8;" x="550.134738" xlink:href="#m3e3b115449" y="203.1775"/>
      </g>
     </g>
     <g id="text_28">
      <!-- 0.50 -->
      <g transform="translate(541.794894 217.297812)scale(0.1 -0.1)">
       <use xlink:href="#MinionPro-Regular-48"/>
       <use x="47.999985" xlink:href="#MinionPro-Regular-46"/>
       <use x="70.799973" xlink:href="#MinionPro-Regular-53"/>
       <use x="118.799957" xlink:href="#MinionPro-Regular-48"/>
      </g>
     </g>
    </g>
    <g id="xtick_14">
     <g id="line2d_30">
      <g>
       <use style="stroke:#000000;stroke-width:0.8;" x="589.357536" xlink:href="#m3e3b115449" y="203.1775"/>
      </g>
     </g>
     <g id="text_29">
      <!-- 0.75 -->
      <g transform="translate(581.017692 217.297812)scale(0.1 -0.1)">
       <use xlink:href="#MinionPro-Regular-48"/>
       <use x="47.999985" xlink:href="#MinionPro-Regular-46"/>
       <use x="70.799973" xlink:href="#MinionPro-Regular-55"/>
       <use x="118.799957" xlink:href="#MinionPro-Regular-53"/>
      </g>
     </g>
    </g>
    <g id="xtick_15">
     <g id="line2d_31">
      <g>
       <use style="stroke:#000000;stroke-width:0.8;" x="628.580334" xlink:href="#m3e3b115449" y="203.1775"/>
      </g>
     </g>
     <g id="text_30">
      <!-- 1.00 -->
      <g transform="translate(620.24049 217.297812)scale(0.1 -0.1)">
       <use xlink:href="#MinionPro-Regular-49"/>
       <use x="47.999985" xlink:href="#MinionPro-Regular-46"/>
       <use x="70.799973" xlink:href="#MinionPro-Regular-48"/>
       <use x="118.799957" xlink:href="#MinionPro-Regular-48"/>
      </g>
     </g>
    </g>
    <g id="text_31">
     <!-- FPR -->
     <g transform="translate(541.569894 230.818125)scale(0.1 -0.1)">
      <use xlink:href="#MinionPro-Regular-70"/>
      <use x="52.899994" xlink:href="#MinionPro-Regular-80"/>
      <use x="109.199982" xlink:href="#MinionPro-Regular-82"/>
     </g>
    </g>
   </g>
   <g id="matplotlib.axis_6">
    <g id="ytick_13">
     <g id="line2d_32">
      <g>
       <use style="stroke:#000000;stroke-width:0.8;" x="463.844583" xlink:href="#m71a9ebb7e3" y="203.1775"/>
      </g>
     </g>
    </g>
    <g id="ytick_14">
     <g id="line2d_33">
      <g>
       <use style="stroke:#000000;stroke-width:0.8;" x="463.844583" xlink:href="#m71a9ebb7e3" y="180.182738"/>
      </g>
     </g>
    </g>
    <g id="ytick_15">
     <g id="line2d_34">
      <g>
       <use style="stroke:#000000;stroke-width:0.8;" x="463.844583" xlink:href="#m71a9ebb7e3" y="157.187976"/>
      </g>
     </g>
    </g>
    <g id="ytick_16">
     <g id="line2d_35">
      <g>
       <use style="stroke:#000000;stroke-width:0.8;" x="463.844583" xlink:href="#m71a9ebb7e3" y="134.193214"/>
      </g>
     </g>
    </g>
    <g id="ytick_17">
     <g id="line2d_36">
      <g>
       <use style="stroke:#000000;stroke-width:0.8;" x="463.844583" xlink:href="#m71a9ebb7e3" y="111.198452"/>
      </g>
     </g>
    </g>
    <g id="ytick_18">
     <g id="line2d_37">
      <g>
       <use style="stroke:#000000;stroke-width:0.8;" x="463.844583" xlink:href="#m71a9ebb7e3" y="88.20369"/>
      </g>
     </g>
    </g>
    <g id="text_32">
     <!-- TPR -->
     <g transform="translate(457.444583 151.820937)rotate(-90)scale(0.1 -0.1)">
      <use xlink:href="#MinionPro-Regular-84"/>
      <use x="61.699997" xlink:href="#MinionPro-Regular-80"/>
      <use x="117.999985" xlink:href="#MinionPro-Regular-82"/>
     </g>
    </g>
   </g>
   <g id="line2d_38">
    <path clip-path="url(#p9fb9f67143)" d="M 471.689143 203.1775 
L 471.689143 199.892534 
L 471.760279 199.892534 
L 471.760279 196.607568 
L 471.866984 196.607568 
L 471.866984 193.322602 
L 471.902552 193.322602 
L 471.902552 190.037636 
L 472.009256 190.037636 
L 472.009256 183.467704 
L 472.187097 183.467704 
L 472.187097 180.182738 
L 472.222665 180.182738 
L 472.222665 173.612806 
L 472.471643 173.612806 
L 472.471643 170.32784 
L 472.756188 170.32784 
L 472.756188 167.042874 
L 473.396415 167.042874 
L 473.396415 163.757908 
L 473.431983 163.757908 
L 473.431983 160.472942 
L 473.929937 160.472942 
L 473.929937 157.187976 
L 474.392324 157.187976 
L 474.392324 153.90301 
L 475.174823 153.90301 
L 475.174823 150.618044 
L 476.882095 150.618044 
L 476.882095 147.333078 
L 478.482663 147.333078 
L 478.482663 144.048112 
L 479.656413 144.048112 
L 479.656413 140.763146 
L 480.723458 140.763146 
L 480.723458 137.47818 
L 483.853456 137.47818 
L 483.853456 134.193214 
L 484.138002 134.193214 
L 484.138002 130.908248 
L 484.386979 130.908248 
L 484.386979 127.623282 
L 495.448679 127.623282 
L 495.448679 124.338316 
L 507.826402 124.338316 
L 507.826402 121.05335 
L 533.542188 121.05335 
L 533.542188 117.768384 
L 551.504113 117.768384 
L 551.504113 114.483418 
L 571.813537 114.483418 
L 571.813537 111.198452 
L 580.207625 111.198452 
L 580.207625 107.913486 
L 588.06819 107.913486 
L 588.06819 104.62852 
L 590.095575 104.62852 
L 590.095575 101.343554 
L 604.785229 101.343554 
L 604.785229 98.058588 
L 609.764772 98.058588 
L 609.764772 94.773622 
L 623.60079 94.773622 
L 623.60079 91.488656 
L 626.944198 91.488656 
L 626.944198 88.20369 
L 626.979766 88.20369 
L 628.580334 88.20369 
" style="fill:none;stroke:#660099;stroke-linecap:square;stroke-width:3;"/>
   </g>
   <g id="line2d_39">
    <path clip-path="url(#p9fb9f67143)" d="M 471.689143 203.1775 
L 471.689143 199.129126 
L 472.054006 199.129126 
L 472.054006 195.080753 
L 472.236438 195.080753 
L 472.345897 193.461403 
L 472.382383 181.316283 
L 472.418869 181.316283 
L 472.637787 181.316283 
L 472.637787 175.64856 
L 472.856705 175.64856 
L 472.966164 171.600186 
L 473.148596 171.600186 
L 473.148596 166.742138 
L 473.331027 166.742138 
L 473.440486 164.313114 
L 474.024268 164.313114 
L 474.024268 160.26474 
L 474.389131 160.26474 
L 474.425617 157.026041 
L 475.228316 157.026041 
L 475.301289 152.167993 
L 475.483721 152.167993 
L 475.520207 151.358318 
L 477.453982 151.358318 
L 477.453982 147.309945 
L 479.497216 147.309945 
L 479.570189 140.022872 
L 479.75262 140.022872 
L 479.75262 135.974499 
L 480.993155 135.974499 
L 480.993155 134.355149 
L 482.306663 134.355149 
L 482.379636 131.926125 
L 482.963417 131.926125 
L 482.963417 131.11645 
L 482.999903 131.11645 
L 483.656657 131.11645 
L 483.656657 130.306776 
L 484.897192 130.306776 
L 484.897192 128.687426 
L 485.006651 128.687426 
L 489.129605 128.687426 
L 489.129605 124.639053 
L 490.479599 124.639053 
L 490.479599 123.829378 
L 493.507964 123.829378 
L 493.507964 120.590679 
L 493.799855 120.590679 
L 493.872827 119.781004 
L 494.055259 119.781004 
L 494.055259 118.97133 
L 495.514712 118.97133 
L 495.514712 117.35198 
L 499.966044 117.35198 
L 499.966044 116.542305 
L 500.148475 116.542305 
L 500.148475 112.493932 
L 500.440366 112.493932 
L 500.586311 109.255233 
L 505.037642 109.255233 
L 505.110615 106.826209 
L 505.986287 106.826209 
L 506.095746 106.016534 
L 509.051138 106.016534 
L 509.051138 105.206859 
L 509.160597 105.206859 
L 509.598433 105.206859 
L 509.598433 104.397185 
L 509.671406 104.397185 
L 510.072755 104.397185 
L 510.072755 103.58751 
L 512.69977 103.58751 
L 512.69977 101.968161 
L 512.736257 101.968161 
L 520.507844 101.968161 
L 520.690275 99.539136 
L 528.607807 99.539136 
L 528.607807 97.110112 
L 529.301048 97.110112 
L 529.446993 96.300438 
L 535.102373 96.300438 
L 535.102373 95.490763 
L 539.517218 95.490763 
L 539.590191 94.681088 
L 571.260319 94.681088 
L 571.369778 93.871413 
L 573.084636 93.871413 
L 573.303554 92.252064 
L 580.199469 92.252064 
L 580.454873 91.442389 
L 615.700661 91.442389 
L 615.883093 90.632715 
L 622.815494 90.632715 
L 622.815494 89.82304 
L 625.296564 89.82304 
L 625.296564 89.013365 
L 625.406023 89.013365 
L 625.880346 89.013365 
L 625.880346 88.20369 
L 628.580334 88.20369 
L 628.580334 88.20369 
" style="fill:none;stroke:#ff0099;stroke-linecap:square;stroke-width:3;"/>
   </g>
   <g id="patch_9">
    <path d="M 463.844583 203.1775 
L 463.844583 82.455 
" style="fill:none;stroke:#000000;stroke-linecap:square;stroke-linejoin:miter;stroke-width:0.8;"/>
   </g>
   <g id="patch_10">
    <path d="M 463.844583 203.1775 
L 636.424893 203.1775 
" style="fill:none;stroke:#000000;stroke-linecap:square;stroke-linejoin:miter;stroke-width:0.8;"/>
   </g>
   <g id="text_33">
    <!-- 1-mer AUC = 0.76 -->
    <defs>
     <path d="M 30 25.296875 
L 7.09375 25.296875 
L 5.703125 19.796875 
L 28.5 19.796875 
z
" id="MinionPro-Regular-45"/>
     <path d="M 79.59375 0 
L 79.59375 2.59375 
C 73.90625 3.203125 73.09375 3.59375 73.09375 10.296875 
L 73.09375 29.59375 
C 73.09375 39.40625 68.203125 44.90625 60.40625 44.90625 
C 57.59375 44.90625 55 43.703125 52.90625 42.296875 
C 50.40625 40.796875 47.5 38.90625 44.59375 36.703125 
C 42.59375 41.90625 38.296875 44.90625 33.5 44.90625 
C 30.296875 44.90625 27.90625 43.796875 25.296875 42.203125 
C 22.296875 40.296875 20.09375 38.5 18 37.09375 
L 18 45.203125 
C 13.59375 43.203125 8.5 41.90625 4.09375 41.09375 
L 4.09375 38.796875 
C 9.90625 37.90625 10.203125 37.40625 10.203125 31 
L 10.203125 10.296875 
C 10.203125 3.796875 9.296875 3.203125 2.703125 2.59375 
L 2.703125 0 
L 23.796875 0 
L 23.796875 2.59375 
C 18.90625 3.203125 18.09375 3.796875 18.09375 10.296875 
L 18.09375 33.796875 
C 21.09375 36.296875 25 39 29 39 
C 35.09375 39 37.703125 34.90625 37.703125 27.5 
L 37.703125 10.296875 
C 37.703125 3.703125 36.796875 3.203125 30.59375 2.59375 
L 30.59375 0 
L 52 0 
L 52 2.59375 
C 46.5 3.203125 45.59375 3.796875 45.59375 10.09375 
L 45.59375 29.59375 
C 45.59375 31.5 45.5 32.59375 45.296875 33.796875 
C 49.09375 37 52.90625 39 56.5 39 
C 62.796875 39 65.296875 34.5 65.296875 27.40625 
L 65.296875 10.703125 
C 65.296875 3.59375 64.203125 3.203125 58.296875 2.59375 
L 58.296875 0 
z
" id="MinionPro-Regular-109"/>
    </defs>
    <g style="fill:#660099;" transform="translate(558.254537 188.70525)scale(0.1 -0.1)">
     <use xlink:href="#MinionPro-Regular-49"/>
     <use x="47.999985" xlink:href="#MinionPro-Regular-45"/>
     <use x="83.599976" xlink:href="#MinionPro-Regular-109"/>
     <use x="165.499969" xlink:href="#MinionPro-Regular-101"/>
     <use x="207.999954" xlink:href="#MinionPro-Regular-114"/>
     <use x="245.099945" xlink:href="#MinionPro-Regular-32"/>
     <use x="267.799942" xlink:href="#MinionPro-Regular-65"/>
     <use x="336.899933" xlink:href="#MinionPro-Regular-85"/>
     <use x="410.499924" xlink:href="#MinionPro-Regular-67"/>
     <use x="476.999908" xlink:href="#MinionPro-Regular-32"/>
     <use x="499.699905" xlink:href="#MinionPro-Regular-61"/>
     <use x="557.69989" xlink:href="#MinionPro-Regular-32"/>
     <use x="580.399887" xlink:href="#MinionPro-Regular-48"/>
     <use x="628.399872" xlink:href="#MinionPro-Regular-46"/>
     <use x="651.19986" xlink:href="#MinionPro-Regular-55"/>
     <use x="699.199844" xlink:href="#MinionPro-Regular-54"/>
    </g>
   </g>
   <g id="text_34">
    <!-- 5-mer AUC = 0.88 -->
    <g style="fill:#ff0099;" transform="translate(558.254537 198.36305)scale(0.1 -0.1)">
     <use xlink:href="#MinionPro-Regular-53"/>
     <use x="47.999985" xlink:href="#MinionPro-Regular-45"/>
     <use x="83.599976" xlink:href="#MinionPro-Regular-109"/>
     <use x="165.499969" xlink:href="#MinionPro-Regular-101"/>
     <use x="207.999954" xlink:href="#MinionPro-Regular-114"/>
     <use x="245.099945" xlink:href="#MinionPro-Regular-32"/>
     <use x="267.799942" xlink:href="#MinionPro-Regular-65"/>
     <use x="336.899933" xlink:href="#MinionPro-Regular-85"/>
     <use x="410.499924" xlink:href="#MinionPro-Regular-67"/>
     <use x="476.999908" xlink:href="#MinionPro-Regular-32"/>
     <use x="499.699905" xlink:href="#MinionPro-Regular-61"/>
     <use x="557.69989" xlink:href="#MinionPro-Regular-32"/>
     <use x="580.399887" xlink:href="#MinionPro-Regular-48"/>
     <use x="628.399872" xlink:href="#MinionPro-Regular-46"/>
     <use x="651.19986" xlink:href="#MinionPro-Regular-56"/>
     <use x="699.199844" xlink:href="#MinionPro-Regular-56"/>
    </g>
   </g>
   <g id="text_35">
    <!-- Whole Genome (Err. rate) -->
    <defs>
     <path d="M 87.203125 72.796875 
L 77.90625 7.296875 
Q 77.296875 2.90625 75 1.296875 
Q 72.703125 -0.296875 68.703125 -0.296875 
L 63 -0.296875 
Q 59.703125 -0.296875 57.25 1.203125 
Q 54.796875 2.703125 53.796875 6.5 
L 45.90625 36.40625 
Q 45.703125 37 45.546875 37.09375 
Q 45.40625 37.203125 45 37.203125 
Q 44.59375 37.203125 44.5 37.09375 
Q 44.40625 37 44.203125 36.40625 
L 36.296875 6.5 
Q 35.296875 2.703125 32.84375 1.203125 
Q 30.40625 -0.296875 27.09375 -0.296875 
L 21.40625 -0.296875 
Q 17.40625 -0.296875 15.09375 1.296875 
Q 12.796875 2.90625 12.203125 7.296875 
L 2.90625 72.796875 
L 2.90625 73 
Q 2.90625 73.796875 3.40625 74.046875 
Q 3.90625 74.296875 4.5 74.296875 
L 18.09375 74.296875 
Q 19.5 74.296875 19.703125 72.40625 
L 25.40625 18.796875 
Q 25.5 17.5 26 17.5 
Q 26.40625 17.5 26.703125 18.796875 
L 33.90625 46.296875 
Q 34.703125 49.203125 36.390625 50.140625 
Q 38.09375 51.09375 40.09375 51.09375 
L 50 51.09375 
Q 52 51.09375 53.703125 50.140625 
Q 55.40625 49.203125 56.203125 46.296875 
L 63.40625 18.796875 
Q 63.703125 17.5 64.09375 17.5 
Q 64.59375 17.5 64.703125 18.796875 
L 70.40625 72.40625 
Q 70.59375 74.296875 72 74.296875 
L 85.59375 74.296875 
Q 86.203125 74.296875 86.703125 74.046875 
Q 87.203125 73.796875 87.203125 73 
z
" id="NeoSansPro-Bold-87"/>
     <path d="M 55.203125 2.09375 
Q 55.203125 1.296875 54.546875 0.640625 
Q 53.90625 0 53.09375 0 
L 41 0 
Q 40.203125 0 39.59375 0.640625 
Q 39 1.296875 39 2.09375 
L 39 35.40625 
Q 39 38 38.703125 39.796875 
Q 38.40625 41.59375 37.59375 42.6875 
Q 36.796875 43.796875 35.34375 44.25 
Q 33.90625 44.703125 31.59375 44.703125 
Q 29.40625 44.703125 27.09375 43.796875 
Q 24.796875 42.90625 22.203125 41.5 
L 22.203125 2.09375 
Q 22.203125 1.296875 21.59375 0.640625 
Q 21 0 20.203125 0 
L 8.09375 0 
Q 7.296875 0 6.640625 0.640625 
Q 6 1.296875 6 2.09375 
L 6 74.703125 
Q 6 75.5 6.59375 76.09375 
Q 7.203125 76.703125 8 76.703125 
L 20.203125 76.703125 
Q 21 76.703125 21.59375 76.09375 
Q 22.203125 75.5 22.203125 74.703125 
L 22.203125 53.59375 
Q 26 56.09375 29.5 57.09375 
Q 33 58.09375 37.5 58.09375 
Q 42.90625 58.09375 46.34375 56.296875 
Q 49.796875 54.5 51.75 51.453125 
Q 53.703125 48.40625 54.453125 44.25 
Q 55.203125 40.09375 55.203125 35.40625 
L 55.203125 2.09375 
z
" id="NeoSansPro-Bold-104"/>
     <path d="M 58 60.796875 
Q 58 60 57.59375 59.75 
Q 57.203125 59.5 56.5 59.5 
L 56.203125 59.5 
Q 52.59375 59.703125 47.1875 60 
Q 41.796875 60.296875 35.40625 60.296875 
Q 32.40625 60.296875 29.953125 59.5 
Q 27.5 58.703125 25.796875 56.75 
Q 24.09375 54.796875 23.1875 51.5 
Q 22.296875 48.203125 22.296875 43.296875 
L 22.296875 30.796875 
Q 22.296875 25.59375 23.34375 22.296875 
Q 24.40625 19 26.046875 17.09375 
Q 27.703125 15.203125 29.703125 14.5 
Q 31.703125 13.796875 33.5 13.796875 
Q 37.59375 13.796875 41.203125 14.09375 
L 41.203125 37.09375 
Q 41.203125 37.90625 41.75 38.5 
Q 42.296875 39.09375 43.09375 39.09375 
L 55.90625 39.09375 
Q 56.703125 39.09375 57.296875 38.5 
Q 57.90625 37.90625 57.90625 37.09375 
L 57.90625 3.5 
Q 57.90625 1.59375 55.90625 1.203125 
Q 51.796875 0.40625 46.390625 -0.25 
Q 41 -0.90625 33.5 -0.90625 
Q 30.703125 -0.90625 27.453125 -0.296875 
Q 24.203125 0.296875 21.046875 1.6875 
Q 17.90625 3.09375 15 5.5 
Q 12.09375 7.90625 9.84375 11.40625 
Q 7.59375 14.90625 6.296875 19.75 
Q 5 24.59375 5 30.90625 
L 5 43.296875 
Q 5 52.90625 7.703125 59.046875 
Q 10.40625 65.203125 14.75 68.796875 
Q 19.09375 72.40625 24.546875 73.796875 
Q 30 75.203125 35.40625 75.203125 
Q 42.90625 75.203125 48.203125 74.34375 
Q 53.5 73.5 56.296875 72.90625 
Q 58 72.59375 58 71.40625 
L 58 60.796875 
z
" id="NeoSansPro-Bold-71"/>
     <path d="M 32.796875 -18.40625 
Q 32.796875 -19.40625 31.59375 -19.40625 
L 21.59375 -19.40625 
Q 20.5 -19.40625 19.640625 -19.09375 
Q 18.796875 -18.796875 18.203125 -18 
Q 15 -13.5 12.546875 -8.75 
Q 10.09375 -4 8.4375 1.390625 
Q 6.796875 6.796875 5.9375 13 
Q 5.09375 19.203125 5.09375 26.5 
L 5.09375 28.296875 
Q 5.09375 42.796875 8.4375 53.390625 
Q 11.796875 64 18.203125 72.90625 
Q 18.796875 73.703125 19.640625 74 
Q 20.5 74.296875 21.59375 74.296875 
L 31.59375 74.296875 
Q 32.796875 74.296875 32.796875 73.296875 
Q 32.796875 72.703125 32.296875 71.703125 
Q 30.203125 67.90625 28.25 63.34375 
Q 26.296875 58.796875 24.796875 53.390625 
Q 23.296875 48 22.390625 41.75 
Q 21.5 35.5 21.5 28.296875 
L 21.5 26.5 
Q 21.5 19.296875 22.390625 13.046875 
Q 23.296875 6.796875 24.796875 1.4375 
Q 26.296875 -3.90625 28.25 -8.453125 
Q 30.203125 -13 32.296875 -16.796875 
Q 32.796875 -17.796875 32.796875 -18.40625 
z
" id="NeoSansPro-Bold-40"/>
     <path d="M 52.40625 2.5 
Q 52.40625 0.703125 50.40625 0.40625 
Q 47.796875 0 43.4375 -0.453125 
Q 39.09375 -0.90625 31 -0.90625 
Q 26.203125 -0.90625 21.796875 -0.09375 
Q 17.40625 0.703125 14.046875 3 
Q 10.703125 5.296875 8.703125 9.546875 
Q 6.703125 13.796875 6.703125 20.59375 
L 6.703125 53.796875 
Q 6.703125 60.59375 8.703125 64.796875 
Q 10.703125 69 14.046875 71.296875 
Q 17.40625 73.59375 21.84375 74.390625 
Q 26.296875 75.203125 31.09375 75.203125 
Q 35.09375 75.203125 38.140625 75.046875 
Q 41.203125 74.90625 43.5 74.703125 
Q 45.796875 74.5 47.4375 74.296875 
Q 49.09375 74.09375 50.40625 73.90625 
Q 52.40625 73.59375 52.40625 71.90625 
L 52.40625 62.59375 
Q 52.40625 61.796875 51.796875 61.1875 
Q 51.203125 60.59375 50.40625 60.59375 
L 30.09375 60.59375 
Q 26.59375 60.59375 25.140625 59.140625 
Q 23.703125 57.703125 23.703125 53.796875 
L 23.703125 44.703125 
L 49.59375 44.703125 
Q 50.40625 44.703125 51 44.09375 
Q 51.59375 43.5 51.59375 42.703125 
L 51.59375 33.203125 
Q 51.59375 32.40625 51 31.796875 
Q 50.40625 31.203125 49.59375 31.203125 
L 23.703125 31.203125 
L 23.703125 20.59375 
Q 23.703125 16.703125 25.140625 15.25 
Q 26.59375 13.796875 30.09375 13.796875 
L 50.40625 13.796875 
Q 51.203125 13.796875 51.796875 13.1875 
Q 52.40625 12.59375 52.40625 11.796875 
L 52.40625 2.5 
z
" id="NeoSansPro-Bold-69"/>
     <path d="M 21.59375 2 
Q 21.59375 1.203125 21 0.59375 
Q 20.40625 0 19.59375 0 
L 7.90625 0 
Q 7.09375 0 6.4375 0.59375 
Q 5.796875 1.203125 5.796875 2 
L 5.796875 14.59375 
Q 5.796875 15.40625 6.4375 15.953125 
Q 7.09375 16.5 7.90625 16.5 
L 19.59375 16.5 
Q 20.40625 16.5 21 15.953125 
Q 21.59375 15.40625 21.59375 14.59375 
L 21.59375 2 
z
" id="NeoSansPro-Bold-46"/>
     <path d="M 50.203125 2 
Q 50.203125 1.203125 49.59375 0.59375 
Q 49 0 48.203125 0 
L 37 0 
Q 36.203125 0 35.59375 0.59375 
Q 35 1.203125 35 2 
L 35 3.59375 
Q 32.09375 1.5 28.84375 0.296875 
Q 25.59375 -0.90625 21.09375 -0.90625 
Q 17.796875 -0.90625 14.75 -0.046875 
Q 11.703125 0.796875 9.296875 2.796875 
Q 6.90625 4.796875 5.453125 8.09375 
Q 4 11.40625 4 16.296875 
L 4 17.203125 
Q 4 26 9.84375 30.046875 
Q 15.703125 34.09375 28.59375 34.09375 
L 34 34.09375 
L 34 37.703125 
Q 34 42 32 43.296875 
Q 30 44.59375 26.5 44.59375 
Q 24.09375 44.59375 21.640625 44.546875 
Q 19.203125 44.5 16.953125 44.390625 
Q 14.703125 44.296875 12.890625 44.140625 
Q 11.09375 44 9.90625 43.90625 
L 9.40625 43.90625 
Q 8.59375 43.90625 8.09375 44.296875 
Q 7.59375 44.703125 7.59375 45.703125 
L 7.59375 53.796875 
Q 7.59375 55.5 9.5 56 
Q 12.296875 56.703125 17.046875 57.390625 
Q 21.796875 58.09375 26.796875 58.09375 
Q 32.203125 58.09375 36.546875 56.9375 
Q 40.90625 55.796875 43.90625 53.34375 
Q 46.90625 50.90625 48.546875 47.046875 
Q 50.203125 43.203125 50.203125 37.703125 
z
M 34.296875 24.5 
L 28.59375 24.5 
Q 26 24.5 24.296875 24.046875 
Q 22.59375 23.59375 21.59375 22.6875 
Q 20.59375 21.796875 20.1875 20.390625 
Q 19.796875 19 19.796875 17.203125 
L 19.796875 16.296875 
Q 19.796875 13.09375 21.34375 12.1875 
Q 22.90625 11.296875 26.09375 11.296875 
Q 28.40625 11.296875 30.453125 11.9375 
Q 32.5 12.59375 34.296875 13.5 
z
" id="NeoSansPro-Bold-97"/>
     <path d="M 31 26.5 
Q 31 19.203125 30.140625 13 
Q 29.296875 6.796875 27.640625 1.390625 
Q 26 -4 23.546875 -8.75 
Q 21.09375 -13.5 17.90625 -18 
Q 17.296875 -18.796875 16.4375 -19.09375 
Q 15.59375 -19.40625 14.5 -19.40625 
L 4.5 -19.40625 
Q 3.296875 -19.40625 3.296875 -18.40625 
Q 3.296875 -17.796875 3.796875 -16.796875 
Q 5.90625 -13 7.84375 -8.453125 
Q 9.796875 -3.90625 11.296875 1.4375 
Q 12.796875 6.796875 13.6875 13.046875 
Q 14.59375 19.296875 14.59375 26.5 
L 14.59375 28.296875 
Q 14.59375 35.5 13.6875 41.75 
Q 12.796875 48 11.296875 53.390625 
Q 9.796875 58.796875 7.84375 63.34375 
Q 5.90625 67.90625 3.796875 71.703125 
Q 3.296875 72.703125 3.296875 73.296875 
Q 3.296875 74.296875 4.5 74.296875 
L 14.5 74.296875 
Q 15.59375 74.296875 16.4375 74 
Q 17.296875 73.703125 17.90625 72.90625 
Q 24.296875 64 27.640625 53.390625 
Q 31 42.796875 31 28.296875 
L 31 26.5 
z
" id="NeoSansPro-Bold-41"/>
    </defs>
    <g transform="translate(463.844583 76.455)scale(0.12 -0.12)">
     <use xlink:href="#NeoSansPro-Bold-87"/>
     <use x="88.899994" xlink:href="#NeoSansPro-Bold-104"/>
     <use x="150.099991" xlink:href="#NeoSansPro-Bold-111"/>
     <use x="208.999985" xlink:href="#NeoSansPro-Bold-108"/>
     <use x="237.199982" xlink:href="#NeoSansPro-Bold-101"/>
     <use x="296.199966" xlink:href="#NeoSansPro-Bold-32"/>
     <use x="322.199951" xlink:href="#NeoSansPro-Bold-71"/>
     <use x="386.699936" xlink:href="#NeoSansPro-Bold-101"/>
     <use x="445.699921" xlink:href="#NeoSansPro-Bold-110"/>
     <use x="506.899918" xlink:href="#NeoSansPro-Bold-111"/>
     <use x="565.799911" xlink:href="#NeoSansPro-Bold-109"/>
     <use x="653.299896" xlink:href="#NeoSansPro-Bold-101"/>
     <use x="712.299881" xlink:href="#NeoSansPro-Bold-32"/>
     <use x="738.299866" xlink:href="#NeoSansPro-Bold-40"/>
     <use x="774.399857" xlink:href="#NeoSansPro-Bold-69"/>
     <use x="832.399841" xlink:href="#NeoSansPro-Bold-114"/>
     <use x="871.999832" xlink:href="#NeoSansPro-Bold-114"/>
     <use x="911.552948" xlink:href="#NeoSansPro-Bold-46"/>
     <use x="938.952942" xlink:href="#NeoSansPro-Bold-32"/>
     <use x="964.952927" xlink:href="#NeoSansPro-Bold-114"/>
     <use x="1004.521667" xlink:href="#NeoSansPro-Bold-97"/>
     <use x="1060.690414" xlink:href="#NeoSansPro-Bold-116"/>
     <use x="1102.790405" xlink:href="#NeoSansPro-Bold-101"/>
     <use x="1161.79039" xlink:href="#NeoSansPro-Bold-41"/>
    </g>
   </g>
  </g>
 </g>
 <defs>
  <clipPath id="pdd995f46a1">
   <rect height="120.7225" width="172.58031" x="69.51125" y="82.455"/>
  </clipPath>
  <clipPath id="p182e920b6e">
   <rect height="120.7225" width="172.58031" x="266.677917" y="82.455"/>
  </clipPath>
  <clipPath id="p9fb9f67143">
   <rect height="120.7225" width="172.58031" x="463.844583" y="82.455"/>
  </clipPath>
 </defs>
</svg>
